<?xml version="1.0" standalone="no"?>
<!DOCTYPE svg PUBLIC "-//W3C//DTD SVG 1.1//EN" "http://www.w3.org/Graphics/SVG/1.1/DTD/svg11.dtd" >
<svg xmlns="http://www.w3.org/2000/svg" xmlns:xlink="http://www.w3.org/1999/xlink" version="1.1">
<metadata>
Created by FontForge 20170731 at Wed May 10 09:26:54 2023
 By Aleksey,,,
Copyright (C) 2017 Hoefler &#38; Co. http://www.typography.com
</metadata>
<defs>
<font id="RingsideRegular-Med" horiz-adv-x="835" >
  <font-face 
    font-family="Ringside Regular Med"
    font-weight="350"
    font-stretch="normal"
    units-per-em="2048"
    panose-1="2 0 6 0 0 0 0 0 0 0"
    ascent="1638"
    descent="-410"
    x-height="975"
    cap-height="1364"
    bbox="-381 -684 2456 2177"
    underline-thickness="0"
    underline-position="0"
    unicode-range="U+0020-FB04"
  />
<missing-glyph horiz-adv-x="1024" 
d="M0 -410v2048h1024v-2048h-1024zM145 1536l367 -799l367 799h-734zM102 -156l353 770l-353 770v-1540zM922 1384l-353 -770l353 -770v1540zM512 492l-367 -799h734z" />
    <glyph glyph-name="f_f" unicode="ff" horiz-adv-x="1454" 
d="M612 1417h123v-155h-86q-104 0 -148 -41.5t-44 -124.5v-121h481v127q0 315 360 315h123v-155h-86q-104 0 -148 -41.5t-44 -124.5v-121h270v-158h-270v-817h-205v817h-481v-817h-205v817h-182v158h182v127q0 315 360 315z" />
    <glyph glyph-name="f_f_i" unicode="ffi" horiz-adv-x="1994" 
d="M1421 1417v-155h-86q-104 0 -148 -41.5t-44 -124.5v-121h270v-158h-270v-817h-205v817h-481v-817h-205v817h-182v158h182v127q0 315 360 315h123v-155h-86q-104 0 -148 -41.5t-44 -124.5v-121h481v127q0 315 360 315h123zM1614 1362h227v-195h-227v195zM1624 975h207
v-975h-207v975z" />
    <glyph glyph-name="f_f_l" unicode="ffl" horiz-adv-x="1996" 
d="M735 1417v-155h-86q-104 0 -148 -41.5t-44 -124.5v-121h481v127q0 315 360 315h123v-155h-86q-104 0 -148 -41.5t-44 -124.5v-121h270v-158h-270v-817h-205v817h-481v-817h-205v817h-182v158h182v127q0 315 360 315h123zM1624 1417h207v-1417h-207v1417z" />
    <glyph glyph-name=".notdef" horiz-adv-x="1024" 
d="M0 -410v2048h1024v-2048h-1024zM145 1536l367 -799l367 799h-734zM102 -156l353 770l-353 770v-1540zM922 1384l-353 -770l353 -770v1540zM512 492l-367 -799h734z" />
    <glyph glyph-name=".null" horiz-adv-x="0" 
 />
    <glyph glyph-name="nonmarkingreturn" horiz-adv-x="682" 
 />
    <glyph glyph-name="space" unicode=" " horiz-adv-x="446" 
 />
    <glyph glyph-name="exclam" unicode="!" horiz-adv-x="555" 
d="M172 1364h211v-418l-74 -538h-63l-74 538v418zM164 236h225v-236h-225v236z" />
    <glyph glyph-name="quotedbl" unicode="&#x22;" horiz-adv-x="913" 
d="M207 1364h225l-203 -621h-135zM621 1364h225l-217 -621h-137z" />
    <glyph glyph-name="numbersign" unicode="#" horiz-adv-x="1617" 
d="M864 0l66 350h-365l-65 -350h-158l66 350h-304v148h330l68 368h-340v148h368l66 350h158l-66 -350h365l65 350h158l-66 -350h303v-148h-329l-68 -368h340v-148h-369l-65 -350h-158zM594 498h362l68 368h-362z" />
    <glyph glyph-name="dollar" unicode="$" horiz-adv-x="1345" 
d="M1208 385q0 -167 -118.5 -270.5t-315.5 -124.5v-228h-172v226q-226 18 -343.5 130t-117.5 285v48h209v-29q0 -123 87 -193.5t253 -70.5q139 0 223 55.5t84 153.5q0 40 -13 69.5t-36.5 52t-69.5 42t-98 35t-137 36.5q-130 28 -216.5 59.5t-146.5 76.5t-87 105t-27 142
q0 158 120 266t320 125v221h174v-225q205 -24 308.5 -133t103.5 -268v-35h-207v29q0 105 -77 173t-238 68q-133 0 -213 -57t-80 -148q0 -37 12.5 -65t35.5 -49.5t67 -40t96.5 -34t134.5 -34.5q265 -59 375 -143.5t110 -249.5z" />
    <glyph glyph-name="percent" unicode="%" horiz-adv-x="1808" 
d="M438 1393q155 0 242.5 -90t87.5 -238v-45q0 -145 -88.5 -235.5t-241.5 -90.5t-241 90.5t-88 235.5v45q0 146 87.5 237t241.5 91zM1589 1372l-1198 -1380h-174l1200 1380h172zM438 1262q-88 0 -133 -53.5t-45 -139.5v-51q0 -87 46 -140t132 -53t132 53t46 140v51
q0 86 -45.5 139.5t-132.5 53.5zM1370 -29q-154 0 -242 90t-88 236v45q0 146 87.5 237t242.5 91q154 0 242 -90.5t88 -237.5v-45q0 -145 -88.5 -235.5t-241.5 -90.5zM1370 102q86 0 132 53t46 138v53q0 86 -45.5 139.5t-132.5 53.5q-88 0 -133 -53.5t-45 -139.5v-53
q0 -85 46 -138t132 -53z" />
    <glyph glyph-name="ampersand" unicode="&#x26;" horiz-adv-x="1540" 
d="M1513 307q0 -60 -6 -107t-21.5 -92t-41 -74.5t-68 -47t-98.5 -17.5q-148 0 -338 156q-217 -156 -438 -156q-195 0 -308.5 100.5t-113.5 256.5q0 138 85.5 239.5t276.5 179.5q-102 163 -102 310q0 144 103 242t278 98q177 0 276 -87.5t99 -213.5q0 -120 -89 -221
t-302 -185q110 -167 256 -319q145 158 219 405h170q-78 -295 -277 -522q131 -125 211 -125q57 0 79.5 46.5t22.5 160.5v43h127v-70zM530 1049q0 -115 99 -244q153 57 214.5 126.5t61.5 149.5q0 62 -46 111t-136 49q-97 0 -145 -56.5t-48 -135.5zM281 348q0 -105 66.5 -161
t168.5 -56q159 0 307 113q-140 140 -305 374q-237 -99 -237 -270z" />
    <glyph glyph-name="quotesingle" unicode="'" horiz-adv-x="509" 
d="M215 1364h225l-209 -621h-137z" />
    <glyph glyph-name="parenleft" unicode="(" horiz-adv-x="811" 
d="M709 1610l98 -90q-459 -365 -459 -902q0 -534 459 -897l-98 -92q-282 198 -420.5 450t-138.5 539q0 289 138.5 541.5t420.5 450.5z" />
    <glyph glyph-name="parenright" unicode=")" horiz-adv-x="811" 
d="M102 -371l-98 90q459 365 459 902q0 534 -459 897l98 92q282 -198 421 -450t139 -539q0 -288 -138.5 -540t-421.5 -452z" />
    <glyph glyph-name="asterisk" unicode="*" horiz-adv-x="874" 
d="M502 621q0 -35 -35 -35h-59q-35 0 -35 35q0 136 37 307q-140 -126 -248 -187q-27 -19 -47 13l-29 53q-9 16 -5 28t17 19q114 66 283 121q-172 56 -283 121q-31 16 -12 47l29 53q21 30 49 12q109 -63 246 -184q-37 168 -37 305q0 35 35 35h59q35 0 35 -35q0 -137 -37 -305
q137 121 246 184q29 18 47 -12l30 -53q16 -31 -12 -47q-112 -65 -282 -121q170 -56 282 -121q13 -6 16.5 -19t-4.5 -28l-28 -53q-19 -32 -49 -13q-107 62 -246 187q37 -171 37 -307z" />
    <glyph glyph-name="plus" unicode="+" horiz-adv-x="1224" 
d="M526 1120h172v-358h377v-160h-377v-360h-172v360h-379v160h379v358z" />
    <glyph glyph-name="comma" unicode="," horiz-adv-x="481" 
d="M123 250h235v-184q0 -174 -70 -264.5t-220 -131.5v66q97 53 129 107t32 157h-106v250z" />
    <glyph glyph-name="hyphen" unicode="-" horiz-adv-x="858" 
d="M127 698h604v-163h-604v163z" />
    <glyph glyph-name="period" unicode="." horiz-adv-x="481" 
d="M123 250h235v-250h-235v250z" />
    <glyph glyph-name="slash" unicode="/" horiz-adv-x="913" 
d="M684 1559h176l-678 -1881h-174z" />
    <glyph glyph-name="zero" unicode="0" horiz-adv-x="1413" 
d="M707 1395q276 0 431.5 -169.5t155.5 -457.5v-172q0 -288 -155.5 -457.5t-431.5 -169.5q-275 0 -430.5 169.5t-155.5 457.5v172q0 288 155.5 457.5t430.5 169.5zM707 1217q-180 0 -276.5 -121t-96.5 -334v-160q0 -212 96 -332t277 -120t277.5 120t96.5 332v160
q0 213 -97 334t-277 121z" />
    <glyph glyph-name="one" unicode="1" horiz-adv-x="815" 
d="M53 1055v141h64q161 0 230 38.5t89 143.5h148v-1378h-215v1055h-316z" />
    <glyph glyph-name="two" unicode="2" horiz-adv-x="1294" 
d="M684 1393q249 0 378.5 -108t129.5 -284q0 -44 -6.5 -80.5t-23 -69t-35 -59t-52.5 -53.5t-65.5 -48t-83 -47.5t-96.5 -47t-115 -51.5q-110 -46 -173 -79.5t-107.5 -75.5t-60.5 -88.5t-16 -115.5h822v-186h-1057v76q0 104 16.5 181t50 138.5t96 114t141 97.5t198.5 98
q88 39 140 64.5t97 53t65.5 53t32 55t11.5 68.5q0 104 -80.5 157.5t-214.5 53.5q-149 0 -236.5 -66.5t-87.5 -187.5v-47h-209v54q0 196 141.5 313t399.5 117z" />
    <glyph glyph-name="three" unicode="3" horiz-adv-x="1310" 
d="M666 1395q127 0 227.5 -31.5t162.5 -85t94 -120t32 -140.5v-8q0 -110 -80 -198.5t-232 -119.5q162 -30 241 -114t79 -205v-6q0 -78 -33.5 -149t-97.5 -127t-166 -89t-229 -33q-122 0 -218.5 23.5t-157 61.5t-100 92t-55.5 111t-16 122v41h207v-33q0 -104 79 -169.5
t250 -65.5q152 0 235 63.5t83 167.5v4q0 102 -82.5 162.5t-261.5 60.5h-158v156h158q174 0 257 61t83 158v4q0 101 -84 162t-230 61q-163 0 -245 -68t-82 -167v-33h-207v41q0 50 12.5 98t38.5 95t70 85.5t102.5 68.5t141.5 46.5t182 16.5z" />
    <glyph glyph-name="four" unicode="4" horiz-adv-x="1345" 
d="M807 1364h258v-868h221v-174h-221v-322h-203v322h-788v157zM862 496v667l-561 -667h561z" />
    <glyph glyph-name="five" unicode="5" horiz-adv-x="1323" 
d="M758 872q227 0 344 -113.5t117 -305.5v-19q0 -205 -141.5 -335t-403.5 -130q-141 0 -247.5 33t-168.5 90.5t-92.5 129.5t-30.5 157v10h209v-4q0 -106 85.5 -169.5t242.5 -63.5q150 0 239.5 73t89.5 205v14q0 120 -72.5 190.5t-223.5 70.5q-205 0 -373 -132l-172 41
l53 750h965q-9 -115 -40.5 -149.5t-136.5 -34.5h-606l-35 -445q170 137 398 137z" />
    <glyph glyph-name="six" unicode="6" horiz-adv-x="1337" 
d="M674 -29q-275 0 -413 141t-138 398v274q0 286 148.5 448.5t439.5 162.5q109 0 197 -24.5t143.5 -63.5t93 -90t52.5 -100.5t15 -98.5v-31h-208v10q0 92 -76.5 156t-212.5 64q-199 0 -293 -105.5t-94 -314.5v-121q23 32 56 60t82.5 57t120 46t152.5 17q233 0 361.5 -114
t128.5 -293v-21q0 -94 -36 -176t-104 -145t-175 -99.5t-240 -36.5zM676 150q154 0 246 73.5t92 202.5v4q0 125 -86 196.5t-244 71.5q-152 0 -251 -71t-99 -189v-4q0 -133 94 -208.5t248 -75.5z" />
    <glyph glyph-name="seven" unicode="7" horiz-adv-x="1208" 
d="M571 0h-239q36 310 183 593.5t417 580.5h-856v190h1095v-129q-262 -302 -409 -595t-191 -640z" />
    <glyph glyph-name="eight" unicode="8" horiz-adv-x="1376" 
d="M688 1395q133 0 239 -31.5t171 -86t99 -124t34 -149.5v-5q0 -110 -66 -189t-194 -122q284 -89 284 -330v-4q0 -174 -148 -279.5t-419 -105.5t-420 105.5t-149 279.5v4q0 241 284 330q-127 43 -193.5 122t-66.5 189v5q0 167 141 279t404 112zM688 1223q-157 0 -245.5 -64
t-88.5 -170v-2q0 -105 90.5 -165t243.5 -60q152 0 242 60t90 165v2q0 106 -88 170t-244 64zM688 141q169 0 261.5 64t92.5 172v2q0 109 -94.5 172t-259.5 63q-166 0 -260 -63t-94 -172v-2q0 -108 92.5 -172t261.5 -64z" />
    <glyph glyph-name="nine" unicode="9" horiz-adv-x="1337" 
d="M664 1395q275 0 412.5 -142t137.5 -399v-274q0 -283 -148 -446t-439 -163q-110 0 -199.5 24.5t-145.5 62.5t-93.5 88t-52.5 98t-15 94v29h209v-11q0 -83 76 -144.5t221 -61.5q383 0 383 413v107q-25 -32 -57.5 -60t-82 -57.5t-120.5 -46.5t-154 -17q-231 0 -359 114.5
t-128 297.5v33q0 96 36.5 179.5t105 146.5t175 99t238.5 36zM662 1214q-151 0 -244.5 -71t-93.5 -211v-8q0 -134 87 -205.5t242 -71.5q151 0 251 71.5t100 192.5v9q0 142 -95 218t-247 76z" />
    <glyph glyph-name="colon" unicode=":" horiz-adv-x="501" 
d="M133 952h236v-247h-236v247zM133 250h236v-250h-236v250z" />
    <glyph glyph-name="semicolon" unicode=";" horiz-adv-x="501" 
d="M133 952h236v-247h-236v247zM133 250h236v-184q0 -174 -70.5 -264.5t-222.5 -131.5v66q98 53 131 107t33 157h-107v250z" />
    <glyph glyph-name="less" unicode="&#x3c;" horiz-adv-x="1140" 
d="M942 1161v-186l-602 -293l602 -293v-188l-807 401v160z" />
    <glyph glyph-name="equal" unicode="=" horiz-adv-x="1267" 
d="M176 981h916v-166h-916v166zM176 547h916v-164h-916v164z" />
    <glyph glyph-name="greater" unicode="&#x3e;" horiz-adv-x="1140" 
d="M199 203v186l602 293l-602 293v188l807 -401v-160z" />
    <glyph glyph-name="question" unicode="?" horiz-adv-x="1187" 
d="M1110 1032q0 -59 -12 -103.5t-44 -89.5t-91.5 -87t-151.5 -86q-66 -33 -101 -55.5t-55.5 -53t-25.5 -60t-6 -85.5h-179q0 158 48 232.5t210 164.5q114 58 152.5 104t38.5 111q0 186 -287 186q-98 0 -166 -20t-103 -57.5t-49 -81t-14 -101.5v-35h-202v54q0 63 14 119.5
t51 114t95 99t154 67.5t220 26q137 0 238.5 -30.5t157.5 -83.5t82 -115t26 -134zM422 0v233h225v-233h-225z" />
    <glyph glyph-name="at" unicode="@" horiz-adv-x="1675" 
d="M905 1378q140 0 256 -36t195 -96t134 -140.5t80 -168t25 -179.5q0 -146 -54.5 -270.5t-152 -198.5t-214.5 -74q-103 0 -162.5 51.5t-57.5 134.5q-99 -172 -249 -172q-107 0 -168.5 71t-61.5 198q0 79 26.5 164t73 158.5t120.5 121t159 47.5q73 0 123.5 -38t69.5 -103
l40 127h158l-127 -414q-76 -248 80 -248q108 0 196.5 127.5t88.5 317.5q0 236 -159 378t-419 142q-198 0 -355 -96.5t-245 -268.5t-88 -387q0 -276 170 -445t467 -169q142 0 272 44.5t222 113.5l57 -82q-99 -76 -247.5 -126t-305.5 -50q-171 0 -311 52t-236 145t-148.5 225
t-52.5 290q0 245 104 440.5t287 304.5t410 109zM883 870q-58 0 -107 -40t-78 -99t-45 -121t-16 -112q0 -74 32.5 -111t90.5 -37q61 0 114.5 54.5t79.5 144.5l60 201q-5 50 -39 85t-92 35z" />
    <glyph glyph-name="A" unicode="A" horiz-adv-x="1466" 
d="M1163 0l-121 313h-630l-121 -313h-219l540 1376h240l543 -1376h-232zM725 1128l-248 -647h502l-250 647h-4z" />
    <glyph glyph-name="B" unicode="B" horiz-adv-x="1388" 
d="M190 1364h629q206 0 315 -89t109 -243v-39q0 -231 -244 -299v-6q263 -64 263 -303v-49q0 -157 -110 -246.5t-312 -89.5h-650v1364zM406 1192v-426h374q120 0 184 53.5t64 147.5v41q0 87 -61 135.5t-174 48.5h-387zM406 608v-436h399q117 0 177 50t60 138v43
q0 96 -66 150.5t-194 54.5h-376z" />
    <glyph glyph-name="C" unicode="C" horiz-adv-x="1421" 
d="M748 1395q135 0 242 -37t172.5 -101t99.5 -144.5t34 -172.5v-61h-219v49q0 117 -87.5 199.5t-244.5 82.5q-185 0 -289 -120.5t-104 -311.5v-192q0 -188 104 -310t289 -122q157 0 244.5 82.5t87.5 199.5v49h219v-61q0 -91 -34.5 -172t-101 -144.5t-174.5 -101t-243 -37.5
q-190 0 -330 81.5t-212 223t-72 324.5v168q0 279 167 454t452 175z" />
    <glyph glyph-name="D" unicode="D" horiz-adv-x="1468" 
d="M190 1364h531q299 0 457.5 -165.5t158.5 -442.5v-156q0 -276 -159.5 -438t-458.5 -162h-529v1364zM412 1182v-1000h293q204 0 307.5 115.5t103.5 314.5v140q0 199 -104 314.5t-307 115.5h-293z" />
    <glyph glyph-name="E" unicode="E" horiz-adv-x="1296" 
d="M190 1364h998v-182h-780v-404h612v-174h-612v-422h782v-182h-1000v1364z" />
    <glyph glyph-name="F" unicode="F" horiz-adv-x="1220" 
d="M190 1364h971v-182h-753v-434h583v-181h-583v-567h-218v1364z" />
    <glyph glyph-name="G" unicode="G" horiz-adv-x="1468" 
d="M750 1395q135 0 242 -37t172.5 -101t99.5 -145t34 -174v-31h-217v19q0 122 -84.5 204t-248.5 82q-187 0 -291.5 -120.5t-104.5 -319.5l-2 -180q0 -203 104.5 -324t282.5 -121q165 0 264 94.5t99 241.5v58h-352v157h561v-698h-109l-33 227q-140 -256 -462 -256
q-260 0 -418 169t-158 454v172q0 183 73 324.5t214.5 223t333.5 81.5z" />
    <glyph glyph-name="H" unicode="H" horiz-adv-x="1509" 
d="M190 1364h222v-580h686v580h221v-1364h-221v598h-686v-598h-222v1364z" />
    <glyph glyph-name="I" unicode="I" horiz-adv-x="624" 
d="M203 1364h219v-1364h-219v1364z" />
    <glyph glyph-name="J" unicode="J" horiz-adv-x="1230" 
d="M836 1364h221v-870q0 -252 -126 -387.5t-372 -135.5q-237 0 -356 118.5t-119 328.5v114h207v-98q0 -274 270 -274q275 0 275 327v877z" />
    <glyph glyph-name="K" unicode="K" horiz-adv-x="1363" 
d="M1059 0q-318 446 -441 618l-206 -237v-381h-222v1364h222v-727l630 727h265l-535 -594l547 -770h-260z" />
    <glyph glyph-name="L" unicode="L" horiz-adv-x="1175" 
d="M190 1364h222v-1174h700v-190h-922v1364z" />
    <glyph glyph-name="M" unicode="M" horiz-adv-x="1898" 
d="M190 1364h316l442 -1067h4l441 1067h313v-1364h-211v1120h-4l-463 -1122h-170l-463 1122h-6v-1120h-199v1364z" />
    <glyph glyph-name="N" unicode="N" horiz-adv-x="1523" 
d="M190 1364h218l720 -1012h5l-3 1012h203v-1364h-211l-727 1024h-4l2 -1024h-203v1364z" />
    <glyph glyph-name="O" unicode="O" horiz-adv-x="1507" 
d="M754 1395q292 0 457 -168t165 -471v-148q0 -303 -165 -471t-457 -168t-457.5 168t-165.5 471v148q0 302 166 470.5t457 168.5zM754 1210q-190 0 -296 -115.5t-106 -326.5v-172q0 -211 106 -326.5t296 -115.5t296.5 115.5t106.5 326.5v172q0 211 -106.5 326.5
t-296.5 115.5z" />
    <glyph glyph-name="P" unicode="P" horiz-adv-x="1302" 
d="M190 1364h578q221 0 339 -104t118 -287v-76q0 -188 -119 -292.5t-342 -104.5h-354v-500h-220v1364zM410 1188v-510h319q146 0 211.5 58.5t65.5 168.5v58q0 225 -275 225h-321z" />
    <glyph glyph-name="Q" unicode="Q" horiz-adv-x="1517" 
d="M1466 -16q-66 -29 -147 -29q-126 0 -236 96q-142 -82 -329 -82q-289 0 -457 171t-168 464v154q0 295 168 466t457 171q290 0 456 -171t166 -466v-160q0 -269 -149 -434q70 -51 155 -51q40 0 84 8v-137zM350 588q0 -199 109.5 -317.5t294.5 -118.5q112 0 200 45l-198 217
l114 98l203 -213q84 114 84 285v192q0 200 -109.5 318t-293.5 118q-185 0 -294.5 -118.5t-109.5 -317.5v-188z" />
    <glyph glyph-name="R" unicode="R" horiz-adv-x="1392" 
d="M410 539v-539h-220v1364h623q224 0 338.5 -99t114.5 -276v-71q0 -137 -83 -233t-231 -130l365 -555h-244l-350 539h-313zM410 1190v-479h352q138 0 211.5 56.5t73.5 156.5v55q0 211 -271 211h-366z" />
    <glyph glyph-name="S" unicode="S" horiz-adv-x="1341" 
d="M680 1391q137 0 241.5 -32t168 -89.5t95.5 -131.5t32 -163v-37h-222v31q0 107 -78 175t-245 68q-138 0 -218.5 -56t-80.5 -148q0 -33 7.5 -58t27 -46t43.5 -36.5t69 -31.5t90.5 -29t118.5 -31q144 -32 235.5 -65t154 -80t88.5 -108t26 -148q0 -188 -149.5 -295
t-391.5 -107q-281 0 -423 116t-142 312v50h221v-35q0 -124 88 -194t264 -70q143 0 227.5 54t84.5 152q0 42 -12 72.5t-34.5 53.5t-70.5 43.5t-103.5 37t-148.5 39.5q-136 29 -224.5 60.5t-151.5 77t-90 106.5t-27 147q0 176 144.5 286t385.5 110z" />
    <glyph glyph-name="T" unicode="T" horiz-adv-x="1310" 
d="M72 1364h1165v-188h-471v-1176h-221v1176h-473v188z" />
    <glyph glyph-name="U" unicode="U" horiz-adv-x="1462" 
d="M172 1364h219v-850q0 -170 90 -261t254 -91t254 91t90 261v850h211v-848q0 -262 -145 -403.5t-416 -141.5q-269 0 -413 141.5t-144 403.5v848z" />
    <glyph glyph-name="V" unicode="V" horiz-adv-x="1445" 
d="M72 1364h239l416 -1094h4l412 1094h231l-545 -1376h-213z" />
    <glyph glyph-name="W" unicode="W" horiz-adv-x="2097" 
d="M86 1364h231l297 -1081h4l334 1085h201l336 -1085h4l295 1081h223l-414 -1376h-215l-333 1056h-5l-333 -1056h-215z" />
    <glyph glyph-name="X" unicode="X" horiz-adv-x="1404" 
d="M1081 0l-389 551l-379 -551h-247l501 690l-487 674h258l373 -530l364 530h250l-487 -670l501 -694h-258z" />
    <glyph glyph-name="Y" unicode="Y" horiz-adv-x="1361" 
d="M49 1364h248l389 -647l385 647h240l-520 -838v-526h-220v528z" />
    <glyph glyph-name="Z" unicode="Z" horiz-adv-x="1300" 
d="M131 1364h1077v-119l-807 -1055h793v-190h-1102v121l813 1059h-774v184z" />
    <glyph glyph-name="bracketleft" unicode="[" horiz-adv-x="784" 
d="M188 1559h586v-146h-401v-1587h401v-148h-586v1881z" />
    <glyph glyph-name="backslash" unicode="\" horiz-adv-x="913" 
d="M53 1559h176l676 -1881h-174z" />
    <glyph glyph-name="bracketright" unicode="]" horiz-adv-x="784" 
d="M594 -322h-584v148h402v1585h-402v148h584v-1881z" />
    <glyph glyph-name="asciicircum" unicode="^" horiz-adv-x="1265" 
d="M1130 602h-192l-303 563l-305 -563h-195l416 762h166z" />
    <glyph glyph-name="underscore" unicode="_" horiz-adv-x="958" 
d="M-4 -184h965v-138h-965v138z" />
    <glyph glyph-name="grave" unicode="`" horiz-adv-x="1021" 
d="M272 1563h248l238 -406h-137z" />
    <glyph glyph-name="a" unicode="a" horiz-adv-x="1112" 
d="M760 178q-134 -196 -369 -196q-138 0 -214.5 68t-76.5 192q0 83 36.5 142.5t119.5 100.5q150 75 496 97v59q0 197 -209 197q-103 0 -159 -45t-56 -127v-13h-187v19q0 144 104 238t304 94q201 0 302 -96.5t101 -272.5v-385q0 -75 22.5 -97.5t94.5 -25.5v-133h-76
q-109 0 -164 39.5t-69 144.5zM301 258q0 -63 39 -98t117 -35q115 0 205 75.5t90 168.5v100q-260 -20 -357 -68q-53 -26 -73.5 -60t-20.5 -83z" />
    <glyph glyph-name="b" unicode="b" horiz-adv-x="1200" 
d="M160 1417h207v-612q60 90 141 142t201 52q177 0 284 -124.5t107 -319.5v-133q0 -196 -108.5 -321.5t-286.5 -125.5q-54 0 -102 12t-83 30.5t-68 46t-55 53.5t-45 59l-18 -176h-174v1417zM641 842q-113 0 -194.5 -86t-81.5 -217v-101q0 -132 82 -218.5t194 -86.5
q118 0 186 82.5t68 212.5v119q0 131 -67.5 213t-186.5 82z" />
    <glyph glyph-name="c" unicode="c" horiz-adv-x="1067" 
d="M561 137q114 0 172 61t58 148v2h190v-20q0 -148 -111 -252.5t-307 -104.5q-223 0 -345 130.5t-122 357.5v55q0 225 125 357.5t344 132.5q100 0 180 -29t131 -78.5t78 -113.5t27 -136v-22h-190v4q0 88 -57 148.5t-171 60.5q-129 0 -196.5 -84t-67.5 -228v-80
q0 -143 67 -226t195 -83z" />
    <glyph glyph-name="d" unicode="d" horiz-adv-x="1200" 
d="M836 1417h206v-1417h-176l-14 190q-63 -100 -148 -157.5t-212 -57.5q-178 0 -284 125t-106 324v127q0 198 108 323t286 125q120 0 199.5 -49.5t140.5 -132.5v600zM559 842q-119 0 -186.5 -82t-67.5 -213v-119q0 -131 67.5 -213t186.5 -82q113 0 195 86t82 217v103
q0 131 -82 217t-195 86z" />
    <glyph glyph-name="e" unicode="e" horiz-adv-x="1093" 
d="M999 297q0 -141 -116 -233.5t-312 -92.5q-235 0 -355 130t-120 348v65q0 216 123 353t338 137q111 0 197.5 -36.5t139.5 -101.5t80 -151t27 -189v-84h-712v-14q0 -137 69.5 -214t214.5 -77q116 0 180 49t64 119v4h182v-12zM555 840q-121 0 -189.5 -73.5t-74.5 -203.5h516
q-10 277 -252 277z" />
    <glyph glyph-name="f" unicode="f" horiz-adv-x="768" 
d="M735 1417v-155h-86q-104 0 -148 -41.5t-44 -124.5v-121h270v-158h-270v-817h-205v817h-182v158h182v127q0 315 360 315h123z" />
    <glyph glyph-name="g" unicode="g" horiz-adv-x="1107" 
d="M1067 -76q0 -123 -131.5 -191.5t-376.5 -68.5q-250 0 -374 55.5t-124 159.5q0 134 228 174v4q-83 27 -126.5 62.5t-43.5 89.5q0 53 45 91t133 69q-80 41 -123 111.5t-43 160.5v27q0 148 115.5 236.5t304.5 88.5q91 0 162 -24q62 10 101 25t58.5 38.5t26 49t6.5 65.5h152
q16 -46 16 -80q0 -74 -57 -112t-178 -54q68 -45 101.5 -102.5t33.5 -141.5v-22q0 -147 -113 -234.5t-309 -87.5q-84 0 -158 19q-104 -32 -104 -78q0 -37 75 -57.5t199 -20.5h35q247 0 358 -65t111 -187zM553 451q107 0 165 49.5t58 132.5v39q0 84 -58.5 134t-164.5 50
q-108 0 -165.5 -49t-57.5 -133v-39q0 -85 57.5 -134.5t165.5 -49.5zM563 -213q324 0 324 115q0 54 -78 80t-244 26h-30q-143 0 -218 -30.5t-75 -81.5q0 -109 321 -109z" />
    <glyph glyph-name="h" unicode="h" horiz-adv-x="1191" 
d="M160 1417h207v-616q68 96 153 146t201 50q150 0 236.5 -90.5t86.5 -244.5v-662h-208v629q0 93 -50 146.5t-143 53.5q-115 0 -195.5 -79.5t-80.5 -176.5v-573h-207v1417z" />
    <glyph glyph-name="i" unicode="i" horiz-adv-x="536" 
d="M156 1362h225v-195h-225v195zM164 975h209v-975h-209v975z" />
    <glyph glyph-name="j" unicode="j" horiz-adv-x="542" 
d="M162 1362h227v-195h-227v195zM172 975h207v-965q0 -168 -88 -251t-281 -83h-51v154h16q114 0 155.5 46t41.5 140v959z" />
    <glyph glyph-name="k" unicode="k" horiz-adv-x="1089" 
d="M160 1417h207v-977l419 535h234l-324 -400l348 -575h-229l-264 436l-184 -225v-211h-207v1417z" />
    <glyph glyph-name="l" unicode="l" horiz-adv-x="536" 
d="M164 1417h209v-1417h-209v1417z" />
    <glyph glyph-name="m" unicode="m" horiz-adv-x="1830" 
d="M367 575v-575h-207v975h174l18 -193q72 105 156 160t203 55q112 0 187 -52t106 -148q70 96 156 148t204 52q148 0 232.5 -89t84.5 -242v-666h-206v633q0 91 -46.5 143.5t-136.5 52.5q-114 0 -191 -78.5t-77 -175.5v-575h-207v633q0 91 -46 143.5t-136 52.5
q-114 0 -191 -78.5t-77 -175.5z" />
    <glyph glyph-name="n" unicode="n" horiz-adv-x="1191" 
d="M160 975h174l18 -195q71 106 159 161.5t210 55.5q150 0 236.5 -90.5t86.5 -244.5v-662h-208v629q0 93 -50 146.5t-143 53.5q-115 0 -195.5 -79.5t-80.5 -176.5v-573h-207v975z" />
    <glyph glyph-name="o" unicode="o" horiz-adv-x="1134" 
d="M569 1006q216 0 343.5 -130.5t127.5 -349.5v-82q0 -216 -130 -345.5t-343 -129.5q-216 0 -345.5 128.5t-129.5 344.5v84q0 217 129.5 348.5t347.5 131.5zM567 842q-125 0 -197.5 -81.5t-72.5 -211.5v-125q0 -130 74 -209.5t196 -79.5q121 0 195 80t74 209v125
q0 130 -72 211.5t-197 81.5z" />
    <glyph glyph-name="p" unicode="p" horiz-adv-x="1200" 
d="M160 975h174l16 -191q64 101 148 158t211 57q178 0 284.5 -124.5t106.5 -321.5v-129q0 -198 -108.5 -323.5t-286.5 -125.5q-120 0 -199.5 50.5t-138.5 134.5v-482h-207v1297zM641 842q-113 0 -194.5 -86t-81.5 -217v-101q0 -132 82 -218.5t194 -86.5q118 0 186 82.5
t68 212.5v119q0 131 -67.5 213t-186.5 82z" />
    <glyph glyph-name="q" unicode="q" horiz-adv-x="1200" 
d="M496 999q67 0 123 -16.5t98.5 -47.5t72 -62.5t58.5 -73.5l18 176h174v-1297h-206v492q-39 -58 -81 -98t-110 -68.5t-151 -28.5q-179 0 -285.5 125t-106.5 322v131q0 196 109 321t287 125zM559 842q-118 0 -186 -82.5t-68 -212.5v-119q0 -131 67.5 -213t186.5 -82
q112 0 194.5 86.5t82.5 216.5v103q0 130 -82.5 216.5t-194.5 86.5z" />
    <glyph glyph-name="r" unicode="r" horiz-adv-x="808" 
d="M160 975h174l16 -240q106 254 336 254q42 0 82 -6v-201q-53 11 -92 11q-129 0 -219 -81.5t-90 -195.5v-516h-207v975z" />
    <glyph glyph-name="s" unicode="s" horiz-adv-x="1030" 
d="M522 -29q-214 0 -321 91.5t-107 240.5v31h178v-21q0 -85 64.5 -136.5t189.5 -51.5q104 0 161.5 38t57.5 103q0 59 -53 91t-203 61q-198 33 -286 98t-88 189q0 127 107.5 211.5t291.5 84.5q195 0 300.5 -86t105.5 -229v-22h-179v12q0 81 -59.5 127.5t-171.5 46.5
q-92 0 -149.5 -37t-57.5 -96q0 -57 56 -88.5t200 -59.5q203 -35 291 -100t88 -193q0 -134 -111 -219.5t-305 -85.5z" />
    <glyph glyph-name="t" unicode="t" horiz-adv-x="813" 
d="M59 975h177v209l206 53v-262h306v-158h-306v-471q0 -108 40 -149t145 -41h63v-156h-115q-175 0 -257 74.5t-82 236.5v506h-177v158z" />
    <glyph glyph-name="u" unicode="u" horiz-adv-x="1191" 
d="M150 975h206v-629q0 -92 50 -146.5t143 -54.5q116 0 197 80t81 178v572h207v-975h-176l-18 195q-71 -106 -159 -163t-208 -57q-150 0 -236.5 91.5t-86.5 246.5v662z" />
    <glyph glyph-name="v" unicode="v" horiz-adv-x="1083" 
d="M43 975h219l283 -754h4l280 754h211l-393 -981h-211z" />
    <glyph glyph-name="w" unicode="w" horiz-adv-x="1628" 
d="M49 975h213l223 -742h4l232 742h192l236 -742h4l223 742h201l-328 -981h-190l-244 735h-4l-242 -735h-190z" />
    <glyph glyph-name="x" unicode="x" horiz-adv-x="1044" 
d="M770 0l-256 371l-256 -371h-221l362 494l-354 481h238l247 -359l248 359h221l-354 -483l363 -492h-238z" />
    <glyph glyph-name="y" unicode="y" horiz-adv-x="1083" 
d="M51 975h217l287 -760h4l277 760h208l-376 -946q-42 -101 -77.5 -162t-85.5 -108t-114.5 -66t-157.5 -19h-83v158h38q99 0 153 31t83 104l18 43z" />
    <glyph glyph-name="z" unicode="z" horiz-adv-x="1021" 
d="M115 975h821v-109l-574 -700h562v-166h-832v111l576 704h-553v160z" />
    <glyph glyph-name="braceleft" unicode="{" horiz-adv-x="884" 
d="M709 1559h141v-142h-84q-174 0 -245.5 -44t-71.5 -132q0 -48 22.5 -103.5t49 -98t49 -96.5t22.5 -99q0 -82 -63 -138t-212 -85v-3q149 -29 212 -86t63 -139q0 -44 -22.5 -97.5t-49 -96.5t-49 -99t-22.5 -104q0 -88 71.5 -132t245.5 -44h84v-142h-141q-129 0 -222.5 25.5
t-143 69t-71.5 92.5t-22 106q0 62 26.5 129.5t58.5 115.5t58.5 104t26.5 98q0 60 -75 97.5t-200 37.5h-51v133h51q126 0 200.5 36.5t74.5 98.5q0 42 -26.5 97.5t-58.5 103.5t-58.5 115t-26.5 129q0 58 22 107t71.5 92.5t143 68.5t222.5 25z" />
    <glyph glyph-name="bar" unicode="|" horiz-adv-x="749" 
d="M289 1559h172v-1881h-172v1881z" />
    <glyph glyph-name="braceright" unicode="}" horiz-adv-x="884" 
d="M35 1559h141q129 0 222 -25t142.5 -68.5t71 -92.5t21.5 -107q0 -62 -26.5 -129t-57.5 -115t-57.5 -103.5t-26.5 -97.5q0 -62 73.5 -98.5t198.5 -36.5h51v-133h-51q-125 0 -198.5 -37t-73.5 -98q0 -42 26.5 -98t57.5 -104t57.5 -115.5t26.5 -129.5q0 -45 -12.5 -85
t-45 -79t-82.5 -67t-131.5 -45t-185.5 -17h-141v142h84q174 0 245.5 44t71.5 132q0 48 -22.5 104t-49 99t-49 96.5t-22.5 97.5q0 82 62.5 139t211.5 86v3q-149 29 -211.5 85t-62.5 138q0 45 22.5 99t49 96.5t49 98t22.5 103.5q0 88 -71.5 132t-245.5 44h-84v142z" />
    <glyph glyph-name="asciitilde" unicode="~" horiz-adv-x="1363" 
d="M422 940q84 0 152.5 -46t144.5 -128q5 -6 22 -24t23 -24.5t21 -22t21.5 -21.5t20.5 -18.5t22 -17.5t20.5 -12.5t22.5 -11t21.5 -6t22.5 -2.5q48 0 75 38.5t27 109.5q0 89 -32 182h145q45 -102 45 -219q0 -126 -63.5 -210.5t-190.5 -84.5q-84 0 -151.5 45t-141.5 125
q-5 6 -22.5 24.5t-23.5 25t-21.5 22.5t-22.5 22.5t-21 19t-22 17.5t-21 13t-22.5 11.5t-21.5 6t-23 2.5q-48 0 -76 -37.5t-28 -108.5q0 -85 32 -184h-145q-43 103 -43 221q0 125 63 209t191 84z" />
    <glyph glyph-name="asciitilde" unicode="&#x223c;" horiz-adv-x="1363" 
d="M422 940q84 0 152.5 -46t144.5 -128q5 -6 22 -24t23 -24.5t21 -22t21.5 -21.5t20.5 -18.5t22 -17.5t20.5 -12.5t22.5 -11t21.5 -6t22.5 -2.5q48 0 75 38.5t27 109.5q0 89 -32 182h145q45 -102 45 -219q0 -126 -63.5 -210.5t-190.5 -84.5q-84 0 -151.5 45t-141.5 125
q-5 6 -22.5 24.5t-23.5 25t-21.5 22.5t-22.5 22.5t-21 19t-22 17.5t-21 13t-22.5 11.5t-21.5 6t-23 2.5q-48 0 -76 -37.5t-28 -108.5q0 -85 32 -184h-145q-43 103 -43 221q0 125 63 209t191 84z" />
    <glyph glyph-name="uni00A0" unicode="&#xa0;" horiz-adv-x="446" 
 />
    <glyph glyph-name="exclamdown" unicode="&#xa1;" horiz-adv-x="555" 
d="M391 1128h-225v236h225v-236zM383 0h-211v418l74 538h63l74 -538v-418z" />
    <glyph glyph-name="cent" unicode="&#xa2;" horiz-adv-x="1124" 
d="M1016 528q0 -132 -91.5 -230.5t-254.5 -119.5v-196h-174v196q-184 26 -282.5 153t-98.5 326v50q0 197 100 324t281 155v196h174v-194q164 -21 255 -119t91 -233v-21h-199v2q0 81 -58 142t-171 61q-130 0 -198 -83.5t-68 -217.5v-74q0 -133 67.5 -216t196.5 -83
q113 0 172 60t59 141v4h199v-23z" />
    <glyph glyph-name="sterling" unicode="&#xa3;" horiz-adv-x="1558" 
d="M1448 346q0 -191 -83.5 -284t-262.5 -93q-72 0 -139 14t-130 43t-104.5 53t-103.5 64q-123 -174 -322 -174q-114 0 -175.5 58t-61.5 149q0 92 64.5 155.5t184.5 63.5q109 0 240 -59q14 41 14 88q0 86 -57 184h-324v131h246q-74 137 -74 254q0 83 34 155t98 127.5
t166.5 87.5t230.5 32q257 0 386.5 -110t129.5 -302v-47h-205v31q0 118 -79.5 180.5t-229.5 62.5q-135 0 -223 -58t-88 -175q0 -44 12 -89t25 -73t38 -76h453v-131h-393q26 -73 26 -157q0 -99 -47 -185q80 -40 122 -59.5t112 -39.5t131 -20q100 0 149 47t49 171v69h191v-88z
M193 178q0 -40 30 -68t84 -28q127 0 209 129q-113 65 -205 65q-56 0 -87 -27.5t-31 -70.5z" />
    <glyph glyph-name="yen" unicode="&#xa5;" horiz-adv-x="1368" 
d="M1202 250h-414v-250h-204v250h-420v121h420v170l-6 10h-414v121h338l-428 692h233l385 -647l383 647h221l-428 -692h334v-121h-407l-7 -10v-170h414v-121z" />
    <glyph glyph-name="section" unicode="&#xa7;" horiz-adv-x="1376" 
d="M1206 -25q0 -143 -127.5 -235t-388.5 -92q-272 0 -407.5 103.5t-135.5 273.5v26h199v-16q0 -98 86 -156.5t273 -58.5q143 0 219.5 40t76.5 109q0 64 -69.5 100.5t-296.5 98.5q-135 35 -219.5 65t-147.5 69.5t-89.5 88.5t-26.5 115q0 193 278 282q-126 50 -180.5 116
t-54.5 163q0 68 29 126t87.5 104t156 72t224.5 26q258 0 390 -103t132 -270v-14h-196v4q0 93 -83.5 152t-256.5 59q-131 0 -206 -41t-75 -109q0 -64 67.5 -100.5t283.5 -95.5q270 -71 377.5 -141.5t107.5 -198.5q0 -192 -277 -281q133 -52 191.5 -118t58.5 -163zM776 311
q6 -2 17.5 -5t17.5 -5q109 27 172.5 78t63.5 117q0 76 -89.5 122t-349.5 113q-5 2 -17.5 5t-17.5 5q-110 -27 -173.5 -77.5t-63.5 -116.5q0 -75 91 -122.5t349 -113.5z" />
    <glyph glyph-name="dieresis" unicode="&#xa8;" horiz-adv-x="1024" 
d="M221 1374h199v-207h-199v207zM604 1374h199v-207h-199v207z" />
    <glyph glyph-name="copyright" unicode="&#xa9;" horiz-adv-x="1810" 
d="M145 682q0 156 57 293t156.5 236t241.5 156.5t305 57.5t305 -57.5t241.5 -156.5t156.5 -236t57 -293t-57 -293t-156.5 -236t-241.5 -156.5t-305 -57.5t-305 57.5t-241.5 156.5t-156.5 236t-57 293zM1561 682q0 183 -82 331.5t-232.5 234t-341.5 85.5t-340.5 -85.5
t-231 -234t-81.5 -331.5q0 -136 48 -256t132.5 -207t207 -137.5t265.5 -50.5q191 0 341.5 86t232.5 234.5t82 330.5zM918 1047q143 0 217.5 -66.5t74.5 -173.5v-25h-137v15q0 54 -41 90.5t-117 36.5q-90 0 -136 -55t-46 -144v-84q0 -87 47 -143t135 -56q76 0 117 36.5
t41 90.5v17h137v-27q0 -105 -76 -173.5t-219 -68.5q-153 0 -238 88.5t-85 235.5v84q0 146 86 234t240 88z" />
    <glyph glyph-name="ordfeminine" unicode="&#xaa;" horiz-adv-x="976" 
d="M655 729q-103 -162 -317 -162q-119 0 -182.5 55t-63.5 154q0 129 127 191q118 61 430 82v34q0 75 -42 110.5t-134 35.5q-85 0 -131.5 -37.5t-46.5 -99.5v-11h-162v17q0 120 89 197t259 77q176 0 259 -77.5t83 -219.5v-289q0 -53 20 -71t83 -19v-116h-76q-98 0 -140.5 30
t-54.5 119zM270 799q0 -47 33.5 -75t99.5 -28q102 0 174 55t72 134v69q-260 -22 -325 -69q-54 -30 -54 -86z" />
    <glyph glyph-name="guillemotleft" unicode="&#xab;" horiz-adv-x="1335" 
d="M541 969h116q-62 -288 -315 -482q253 -194 315 -481h-116q-112 283 -437 424v115q325 141 437 424zM1087 969h117q-62 -288 -315 -482q253 -194 315 -481h-117q-108 282 -434 424v115q326 142 434 424z" />
    <glyph glyph-name="registered" unicode="&#xae;" horiz-adv-x="1112" 
d="M555 1395q198 0 326.5 -127.5t128.5 -315.5q0 -187 -128.5 -312.5t-326.5 -125.5q-196 0 -323.5 125.5t-127.5 312.5q0 188 127.5 315.5t323.5 127.5zM555 1323q-169 0 -272 -104.5t-103 -266.5q0 -161 103 -265.5t272 -104.5q172 0 274.5 104.5t102.5 265.5
q0 163 -102.5 267t-274.5 104zM477 893v-152h-98v435h219q79 0 120.5 -36t41.5 -104q0 -50 -24 -83.5t-66 -47.5l100 -164h-108l-93 152h-92zM477 1098v-129h101q42 0 61.5 15t19.5 50q0 33 -18.5 48.5t-60.5 15.5h-103z" />
    <glyph glyph-name="macron" unicode="&#xaf;" horiz-adv-x="1024" 
d="M174 1331h676v-133h-676v133z" />
    <glyph glyph-name="degree" unicode="&#xb0;" horiz-adv-x="968" 
d="M483 1397q178 0 282.5 -103.5t104.5 -265.5q0 -160 -106 -263t-281 -103q-176 0 -281.5 102t-105.5 264t104.5 265.5t282.5 103.5zM483 1253q-105 0 -164 -61.5t-59 -163.5t60.5 -163.5t162.5 -61.5t163 61.5t61 163.5q0 101 -60 163t-164 62z" />
    <glyph glyph-name="plusminus" unicode="&#xb1;" horiz-adv-x="1239" 
d="M537 1264h165v-336h357v-156h-357v-338h-165v338h-357v156h357v336zM180 266h881v-160h-881v160z" />
    <glyph glyph-name="two.sup" unicode="&#xb2;" 
d="M743 598h-663v45q0 103 28.5 169t93 115t189.5 103q126 54 164.5 85t38.5 83q0 56 -46.5 84.5t-119.5 28.5q-89 0 -140.5 -39t-51.5 -109v-22h-152v30q0 122 91 194.5t259 72.5q157 0 239.5 -64t82.5 -170q0 -50 -15.5 -86t-55.5 -69t-89 -59.5t-137 -65.5
q-122 -52 -163 -89t-44 -102h491v-135z" />
    <glyph glyph-name="three.sup" unicode="&#xb3;" 
d="M424 1438q156 0 244 -66.5t88 -163.5v-4q0 -68 -49 -119t-142 -69q100 -18 148.5 -69t48.5 -126v-2q0 -102 -90 -170.5t-250 -68.5q-94 0 -164 20.5t-110 56.5t-59 80t-19 97v26h149v-18q0 -62 48.5 -99.5t148.5 -37.5q84 0 134 33.5t50 90.5v7q0 120 -203 120h-94v111
h94q101 0 151 34.5t50 84.5v6q0 55 -50 88t-132 33q-96 0 -145.5 -38t-49.5 -95v-21h-151v29q0 49 20 92t60.5 79.5t111 57.5t162.5 21z" />
    <glyph glyph-name="acute" unicode="&#xb4;" horiz-adv-x="1021" 
d="M754 1563l-348 -406h-136l236 406h248z" />
    <glyph glyph-name="paragraph" unicode="&#xb6;" horiz-adv-x="1566" 
d="M1384 1364v-1686h-157v1510h-215v-1510h-158v658h-121q-159 1 -284 41t-203.5 109.5t-119 160.5t-40.5 197v10q0 105 41.5 196.5t120 162t203.5 111t282 40.5h651zM854 1188h-94q-326 0 -326 -338v-23q0 -158 77 -243.5t249 -85.5h94v690z" />
    <glyph glyph-name="periodcentered" unicode="&#xb7;" horiz-adv-x="481" 
d="M123 807h235v-248h-235v248z" />
    <glyph glyph-name="cedilla" unicode="&#xb8;" horiz-adv-x="1024" 
d="M791 -344q0 -99 -73.5 -153t-203.5 -54q-147 0 -274 55l30 78q112 -41 209 -41q152 0 152 113q0 46 -31 73t-94 27q-47 0 -123 -26l-41 63l182 232h107l-164 -197q61 18 106 18q99 0 158.5 -51t59.5 -137z" />
    <glyph glyph-name="one.sup" unicode="&#xb9;" horiz-adv-x="653" 
d="M336 1430h115v-832h-166v598h-199v119h55q95 0 138.5 25.5t56.5 89.5z" />
    <glyph glyph-name="ordmasculine" unicode="&#xba;" horiz-adv-x="989" 
d="M494 1376q183 0 289 -104t106 -281v-51q0 -176 -107 -279.5t-288 -103.5q-180 0 -287 103t-107 278v51q0 178 106 282.5t288 104.5zM494 1225q-96 0 -149.5 -58t-53.5 -153v-96q0 -95 54.5 -152t148.5 -57q93 0 148.5 57.5t55.5 151.5v96q0 94 -54.5 152.5t-149.5 58.5z
" />
    <glyph glyph-name="guillemotright" unicode="&#xbb;" horiz-adv-x="1331" 
d="M791 6h-117q62 287 315 481q-253 194 -315 482h117q108 -282 436 -424v-115q-328 -142 -436 -424zM248 6h-117q62 287 315 481q-253 194 -315 482h117q108 -282 436 -424v-115q-328 -142 -436 -424z" />
    <glyph glyph-name="onequarter" unicode="&#xbc;" horiz-adv-x="1722" 
d="M336 1376h115v-831h-166v598h-199v119h55q96 0 139 25t56 89zM1368 1364l-967 -1364h-135l967 1364h135zM1354 823h194v-522h129v-121h-129v-180h-147v180h-488v123zM1401 301v397l-336 -397h336z" />
    <glyph glyph-name="onehalf" unicode="&#xbd;" horiz-adv-x="1835" 
d="M336 1376h115v-831h-166v598h-199v119h55q96 0 139 25t56 89zM1368 1364l-967 -1364h-135l967 1364h135zM1745 0h-666v45q0 103 28.5 169t93.5 115t190 103q126 54 164 85t38 83q0 56 -46.5 84.5t-119.5 28.5q-89 0 -140.5 -39t-51.5 -109v-22h-152v30q0 122 91.5 194.5
t259.5 72.5q157 0 239 -64t82 -170q0 -50 -15.5 -86t-55.5 -69t-89 -59.5t-137 -65.5q-122 -52 -163 -89t-44 -102h494v-135z" />
    <glyph glyph-name="threequarters" unicode="&#xbe;" horiz-adv-x="1918" 
d="M424 1384q156 0 244 -66t88 -163v-4q0 -68 -49 -119t-142 -69q100 -18 148.5 -69t48.5 -126v-2q0 -102 -90 -171t-250 -69q-94 0 -164 20.5t-110 56.5t-59 80t-19 97v27h149v-19q0 -62 48.5 -99.5t148.5 -37.5q83 0 133.5 34t50.5 91v6q0 121 -203 121h-94v111h94
q101 0 151 34.5t50 84.5v6q0 55 -50 88t-132 33q-96 0 -145.5 -38.5t-49.5 -95.5v-20h-151v29q0 49 20 92t60.5 79t111 57t162.5 21zM1565 1364l-967 -1364h-135l967 1364h135zM1550 823h197v-522h127v-121h-127v-180h-150v180h-487v123zM1597 301v397l-333 -397h333z" />
    <glyph glyph-name="questiondown" unicode="&#xbf;" horiz-adv-x="1187" 
d="M766 1364v-234h-223v234h223zM78 332q0 59 12 103.5t44 89.5t91.5 87t151.5 86q66 33 101 55.5t55.5 53t25.5 60t6 85.5h180q0 -109 -20.5 -171.5t-74 -112.5t-165.5 -113q-112 -58 -151 -104t-39 -111q0 -186 289 -186q98 0 165.5 20t102.5 57.5t49 81t14 101.5v35h201
v-54q0 -63 -14 -119.5t-51 -114t-95 -99t-154 -67.5t-220 -26q-137 0 -238.5 30.5t-157.5 83.5t-82 115t-26 134z" />
    <glyph glyph-name="Agrave" unicode="&#xc0;" horiz-adv-x="1466" 
d="M317 1929h250l238 -356h-146zM1163 0l-121 313h-630l-121 -313h-219l540 1376h240l543 -1376h-232zM725 1128l-248 -647h502l-250 647h-4z" />
    <glyph glyph-name="Aacute" unicode="&#xc1;" horiz-adv-x="1466" 
d="M1147 1929l-340 -356h-148l238 356h250zM1163 0l-121 313h-630l-121 -313h-219l540 1376h240l543 -1376h-232zM725 1128l-248 -647h502l-250 647h-4z" />
    <glyph glyph-name="Acircumflex" unicode="&#xc2;" horiz-adv-x="1466" 
d="M625 1915h217q60 -204 258 -281v-86q-121 22 -218.5 85t-148.5 139q-51 -76 -148 -139t-218 -85v86q198 77 258 281zM1163 0l-121 313h-630l-121 -313h-219l540 1376h240l543 -1376h-232zM725 1128l-248 -647h502l-250 647h-4z" />
    <glyph glyph-name="Atilde" unicode="&#xc3;" horiz-adv-x="1466" 
d="M551 1898q65 0 113.5 -27.5t97.5 -76.5q37 -35 53 -49.5t47.5 -31.5t59.5 -17q77 0 77 100q0 34 -14 92h92q25 -72 25 -135q0 -93 -50 -149t-137 -56q-65 0 -112.5 27.5t-97.5 77.5q-3 3 -19 18t-20.5 18.5t-18 15.5t-20 16t-18.5 11.5t-21 10.5t-20.5 5.5t-22.5 2.5
q-37 0 -57.5 -25.5t-20.5 -74.5q0 -34 14 -92h-94q-22 64 -22 135q0 93 49.5 148.5t136.5 55.5zM1163 0l-121 313h-630l-121 -313h-219l540 1376h240l543 -1376h-232zM725 1128l-248 -647h502l-250 647h-4z" />
    <glyph glyph-name="Adieresis" unicode="&#xc4;" horiz-adv-x="1466" 
d="M430 1790h199v-205h-199v205zM838 1790h198v-205h-198v205zM1163 0l-121 313h-630l-121 -313h-219l540 1376h240l543 -1376h-232zM725 1128l-248 -647h502l-250 647h-4z" />
    <glyph glyph-name="Aring" unicode="&#xc5;" horiz-adv-x="1466" 
d="M1163 0l-121 313h-628l-121 -313h-221l518 1317q-53 29 -82 79t-29 109q0 93 69.5 158.5t182.5 65.5q115 0 184.5 -65.5t69.5 -158.5q0 -59 -28 -109t-80 -79l518 -1317h-232zM731 1636q-68 0 -108.5 -37.5t-40.5 -93.5q0 -57 40 -95t109 -38q70 0 111 38t41 95
q0 56 -41 93.5t-111 37.5zM727 1130l-250 -649h500z" />
    <glyph glyph-name="AE" unicode="&#xc6;" horiz-adv-x="2093" 
d="M-27 0l895 1364h1117v-182h-781v-404h613v-174h-613v-422h783v-182h-1000v322h-565l-209 -322h-240zM983 1192l-459 -711h463v711h-4z" />
    <glyph glyph-name="Ccedilla" unicode="&#xc7;" horiz-adv-x="1421" 
d="M993 -344q0 -99 -73 -153t-203 -54q-148 0 -275 55l31 78q112 -41 209 -41q152 0 152 113q0 46 -31.5 73t-93.5 27q-47 0 -123 -26l-41 63l141 180q-173 12 -300 96t-192 221t-65 310v168q0 279 167 454t452 175q135 0 242 -37t172.5 -101t99.5 -144.5t34 -172.5v-61
h-219v49q0 117 -87.5 199.5t-244.5 82.5q-185 0 -289 -120.5t-104 -311.5v-192q0 -188 104 -310t289 -122q157 0 244.5 82.5t87.5 199.5v49h219v-61q0 -87 -31.5 -164.5t-92 -140.5t-159 -102.5t-222.5 -45.5l-121 -145q61 18 106 18q99 0 158 -51t59 -137z" />
    <glyph glyph-name="Egrave" unicode="&#xc8;" horiz-adv-x="1296" 
d="M328 1917h250l237 -356h-145zM190 1364h998v-182h-780v-404h612v-174h-612v-422h782v-182h-1000v1364z" />
    <glyph glyph-name="Eacute" unicode="&#xc9;" horiz-adv-x="1296" 
d="M1065 1917l-340 -356h-145l237 356h248zM190 1364h998v-182h-780v-404h612v-174h-612v-422h782v-182h-1000v1364z" />
    <glyph glyph-name="Ecircumflex" unicode="&#xca;" horiz-adv-x="1296" 
d="M580 1903h217q58 -205 256 -279v-88q-121 22 -217.5 84.5t-147.5 138.5q-54 -77 -150 -139t-216 -84v88q196 74 258 279zM190 1364h998v-182h-780v-404h612v-174h-612v-422h782v-182h-1000v1364z" />
    <glyph glyph-name="Edieresis" unicode="&#xcb;" horiz-adv-x="1296" 
d="M385 1778h199v-205h-199v205zM791 1778h198v-205h-198v205zM190 1364h998v-182h-780v-404h612v-174h-612v-422h782v-182h-1000v1364z" />
    <glyph glyph-name="Igrave" unicode="&#xcc;" horiz-adv-x="624" 
d="M-102 1917h249l238 -356h-145zM203 1364h219v-1364h-219v1364z" />
    <glyph glyph-name="Iacute" unicode="&#xcd;" horiz-adv-x="624" 
d="M727 1917l-340 -356h-147l237 356h250zM203 1364h219v-1364h-219v1364z" />
    <glyph glyph-name="Icircumflex" unicode="&#xce;" horiz-adv-x="624" 
d="M205 1903h215q62 -205 258 -279v-88q-121 22 -217.5 84.5t-147.5 138.5q-54 -77 -150 -139t-216 -84v88q196 74 258 279zM203 1364h219v-1364h-219v1364z" />
    <glyph glyph-name="Idieresis" unicode="&#xcf;" horiz-adv-x="624" 
d="M10 1778h199v-205h-199v205zM416 1778h198v-205h-198v205zM203 1364h219v-1364h-219v1364z" />
    <glyph glyph-name="Eth" unicode="&#xd0;" horiz-adv-x="1476" 
d="M1346 600q0 -276 -158 -438t-457 -162h-530v623h-174v127h174v614h530q152 0 269.5 -44.5t193 -125.5t114 -192t38.5 -246v-156zM422 182h293q203 0 307 115.5t104 312.5v144q0 199 -104 313.5t-309 114.5h-291v-432h385v-127h-385v-441z" />
    <glyph glyph-name="Ntilde" unicode="&#xd1;" horiz-adv-x="1523" 
d="M578 1888q45 0 86.5 -17t66 -36t57.5 -51q37 -36 53.5 -50.5t47.5 -31t59 -16.5q37 0 57.5 25.5t20.5 72.5q0 34 -14 92h92q24 -70 24 -133q0 -95 -49.5 -151t-136.5 -56q-64 0 -112 27.5t-99 76.5q-3 3 -21.5 20t-23.5 21.5t-20.5 17.5t-23.5 17t-21.5 11t-25 9.5
t-24.5 2.5q-37 0 -57 -26t-20 -73q0 -33 14 -94h-92q-25 78 -25 135q0 95 50 151t137 56zM190 1364h218l720 -1012h5l-3 1012h203v-1364h-211l-727 1024h-4l2 -1024h-203v1364z" />
    <glyph glyph-name="Ograve" unicode="&#xd2;" horiz-adv-x="1507" 
d="M395 1927h250l238 -356h-148zM754 1395q292 0 457 -168t165 -471v-148q0 -303 -165 -471t-457 -168t-457.5 168t-165.5 471v148q0 302 166 470.5t457 168.5zM754 1210q-190 0 -296 -115.5t-106 -326.5v-172q0 -211 106 -326.5t296 -115.5t296.5 115.5t106.5 326.5v172
q0 211 -106.5 326.5t-296.5 115.5z" />
    <glyph glyph-name="Oacute" unicode="&#xd3;" horiz-adv-x="1507" 
d="M1133 1927l-342 -356h-146l238 356h250zM754 1395q292 0 457 -168t165 -471v-148q0 -303 -165 -471t-457 -168t-457.5 168t-165.5 471v148q0 302 166 470.5t457 168.5zM754 1210q-190 0 -296 -115.5t-106 -326.5v-172q0 -211 106 -326.5t296 -115.5t296.5 115.5
t106.5 326.5v172q0 211 -106.5 326.5t-296.5 115.5z" />
    <glyph glyph-name="Ocircumflex" unicode="&#xd4;" horiz-adv-x="1507" 
d="M645 1913h217q62 -205 258 -279v-88q-121 22 -218 85.5t-148 140.5q-51 -77 -148 -140.5t-217 -85.5v88q194 73 256 279zM754 1395q292 0 457 -168t165 -471v-148q0 -303 -165 -471t-457 -168t-457.5 168t-165.5 471v148q0 302 166 470.5t457 168.5zM754 1210
q-190 0 -296 -115.5t-106 -326.5v-172q0 -211 106 -326.5t296 -115.5t296.5 115.5t106.5 326.5v172q0 211 -106.5 326.5t-296.5 115.5z" />
    <glyph glyph-name="Otilde" unicode="&#xd5;" horiz-adv-x="1507" 
d="M571 1898q64 0 112 -27.5t99 -76.5q3 -3 19 -18t20.5 -18.5t18 -15.5t20 -16t18.5 -11.5t21 -10.5t20.5 -5.5t22.5 -2.5q37 0 57.5 25.5t20.5 72.5q0 34 -14 92h92q24 -70 24 -133q0 -95 -49.5 -151t-136.5 -56q-45 0 -86.5 17.5t-66.5 36.5t-58 51q-37 36 -53.5 50.5
t-47.5 31t-59 16.5q-37 0 -57.5 -25.5t-20.5 -72.5q0 -29 15 -95h-92q-25 78 -25 136q0 95 49.5 150.5t136.5 55.5zM754 1395q292 0 457 -168t165 -471v-148q0 -303 -165 -471t-457 -168t-457.5 168t-165.5 471v148q0 302 166 470.5t457 168.5zM754 1210q-190 0 -296 -115.5
t-106 -326.5v-172q0 -211 106 -326.5t296 -115.5t296.5 115.5t106.5 326.5v172q0 211 -106.5 326.5t-296.5 115.5z" />
    <glyph glyph-name="Odieresis" unicode="&#xd6;" horiz-adv-x="1507" 
d="M451 1790h198v-207h-198v207zM858 1790h199v-207h-199v207zM754 1395q292 0 457 -168t165 -471v-148q0 -303 -165 -471t-457 -168t-457.5 168t-165.5 471v148q0 302 166 470.5t457 168.5zM754 1210q-190 0 -296 -115.5t-106 -326.5v-172q0 -211 106 -326.5t296 -115.5
t296.5 115.5t106.5 326.5v172q0 211 -106.5 326.5t-296.5 115.5z" />
    <glyph glyph-name="multiply" unicode="&#xd7;" horiz-adv-x="1216" 
d="M922 262l-314 303l-313 -303l-119 119l311 301l-311 301l119 119l313 -303l314 303l120 -119l-313 -301l313 -301z" />
    <glyph glyph-name="Oslash" unicode="&#xd8;" horiz-adv-x="1507" 
d="M754 -31q-233 0 -387 109l-142 -174l-98 78l143 184q-139 168 -139 442v148q0 302 166 470.5t457 168.5q233 0 387 -109l141 174l98 -78l-143 -184q139 -164 139 -442v-148q0 -303 -165 -471t-457 -168zM348 596q0 -153 62 -264l604 798q-100 80 -260 80
q-191 0 -298.5 -115t-107.5 -327v-172zM1159 768q0 160 -61 264l-604 -799q98 -79 260 -79q191 0 298 115t107 327v172z" />
    <glyph glyph-name="Ugrave" unicode="&#xd9;" horiz-adv-x="1462" 
d="M373 1907h250l237 -357h-147zM172 1364h219v-850q0 -170 90 -261t254 -91t254 91t90 261v850h211v-848q0 -262 -145 -403.5t-416 -141.5q-269 0 -413 141.5t-144 403.5v848z" />
    <glyph glyph-name="Uacute" unicode="&#xda;" horiz-adv-x="1462" 
d="M1110 1907l-342 -357h-145l237 357h250zM172 1364h219v-850q0 -170 90 -261t254 -91t254 91t90 261v850h211v-848q0 -262 -145 -403.5t-416 -141.5q-269 0 -413 141.5t-144 403.5v848z" />
    <glyph glyph-name="Ucircumflex" unicode="&#xdb;" horiz-adv-x="1462" 
d="M623 1892h217q61 -204 258 -278v-88q-121 22 -218.5 85t-148.5 140q-51 -77 -147.5 -140t-216.5 -85v88q194 73 256 278zM172 1364h219v-850q0 -170 90 -261t254 -91t254 91t90 261v850h211v-848q0 -262 -145 -403.5t-416 -141.5q-269 0 -413 141.5t-144 403.5v848z" />
    <glyph glyph-name="Udieresis" unicode="&#xdc;" horiz-adv-x="1462" 
d="M428 1767h199v-204h-199v204zM836 1767h198v-204h-198v204zM172 1364h219v-850q0 -170 90 -261t254 -91t254 91t90 261v850h211v-848q0 -262 -145 -403.5t-416 -141.5q-269 0 -413 141.5t-144 403.5v848z" />
    <glyph glyph-name="Yacute" unicode="&#xdd;" horiz-adv-x="1361" 
d="M1067 1907l-342 -357h-145l237 357h250zM49 1364h248l389 -647l385 647h240l-520 -838v-526h-220v528z" />
    <glyph glyph-name="Thorn" unicode="&#xde;" horiz-adv-x="1339" 
d="M190 1364h222v-256h379q234 0 352.5 -102.5t118.5 -284.5v-74q0 -186 -120 -287.5t-354 -101.5h-378v-258h-220v1364zM410 936v-508h350q148 0 215 56.5t67 172.5v52q0 227 -280 227h-352z" />
    <glyph glyph-name="germandbls" unicode="&#xdf;" horiz-adv-x="1198" 
d="M608 1430q195 0 304.5 -94t109.5 -253v-26q0 -221 -213 -279v-4q146 -36 220.5 -132t74.5 -228v-49q0 -174 -106.5 -274.5t-303.5 -100.5q-106 0 -184 20v133q55 -14 123 -14q124 0 189 63t65 179v47q0 121 -83 193.5t-253 76.5v127q147 6 211.5 61t64.5 164v31
q0 97 -56 152t-163 55q-118 0 -180.5 -72t-62.5 -211v-995h-205v971q0 222 116.5 340.5t331.5 118.5z" />
    <glyph glyph-name="agrave" unicode="&#xe0;" horiz-adv-x="1112" 
d="M213 1569h248l235 -406h-135zM760 178q-134 -196 -369 -196q-138 0 -214.5 68t-76.5 192q0 83 36.5 142.5t119.5 100.5q150 75 496 97v59q0 197 -209 197q-103 0 -159 -45t-56 -127v-13h-187v19q0 144 104 238t304 94q201 0 302 -96.5t101 -272.5v-385q0 -75 22.5 -97.5
t94.5 -25.5v-133h-76q-109 0 -164 39.5t-69 144.5zM301 258q0 -63 39 -98t117 -35q115 0 205 75.5t90 168.5v100q-260 -20 -357 -68q-53 -26 -73.5 -60t-20.5 -83z" />
    <glyph glyph-name="aacute" unicode="&#xe1;" horiz-adv-x="1112" 
d="M918 1569l-349 -406h-135l236 406h248zM760 178q-134 -196 -369 -196q-138 0 -214.5 68t-76.5 192q0 83 36.5 142.5t119.5 100.5q150 75 496 97v59q0 197 -209 197q-103 0 -159 -45t-56 -127v-13h-187v19q0 144 104 238t304 94q201 0 302 -96.5t101 -272.5v-385
q0 -75 22.5 -97.5t94.5 -25.5v-133h-76q-109 0 -164 39.5t-69 144.5zM301 258q0 -63 39 -98t117 -35q115 0 205 75.5t90 168.5v100q-260 -20 -357 -68q-53 -26 -73.5 -60t-20.5 -83z" />
    <glyph glyph-name="acircumflex" unicode="&#xe2;" horiz-adv-x="1112" 
d="M455 1556h188q33 -129 93 -210.5t155 -120.5v-86q-112 20 -204.5 92t-137.5 170q-45 -98 -137.5 -170t-204.5 -92v86q95 39 155 120.5t93 210.5zM760 178q-134 -196 -369 -196q-138 0 -214.5 68t-76.5 192q0 83 36.5 142.5t119.5 100.5q150 75 496 97v59q0 197 -209 197
q-103 0 -159 -45t-56 -127v-13h-187v19q0 144 104 238t304 94q201 0 302 -96.5t101 -272.5v-385q0 -75 22.5 -97.5t94.5 -25.5v-133h-76q-109 0 -164 39.5t-69 144.5zM301 258q0 -63 39 -98t117 -35q115 0 205 75.5t90 168.5v100q-260 -20 -357 -68q-53 -26 -73.5 -60
t-20.5 -83z" />
    <glyph glyph-name="atilde" unicode="&#xe3;" horiz-adv-x="1112" 
d="M381 1507q35 0 65.5 -10t61 -34.5t43.5 -37t45 -47.5q36 -44 64 -66t61 -22q35 0 57.5 25t22.5 76q0 46 -13 106h93q24 -78 24 -147q0 -96 -52.5 -152.5t-133.5 -56.5q-42 0 -81 18.5t-60.5 37.5t-55.5 54q-5 5 -18 19.5t-18 19.5t-16.5 17t-18 17t-17 12.5t-18.5 11
t-18.5 6t-20.5 2.5q-34 0 -57 -24.5t-23 -74.5q0 -53 14 -108h-94q-22 86 -22 147q0 98 51.5 154.5t134.5 56.5zM760 178q-134 -196 -369 -196q-138 0 -214.5 68t-76.5 192q0 83 36.5 142.5t119.5 100.5q150 75 496 97v59q0 197 -209 197q-103 0 -159 -45t-56 -127v-13h-187
v19q0 144 104 238t304 94q201 0 302 -96.5t101 -272.5v-385q0 -75 22.5 -97.5t94.5 -25.5v-133h-76q-109 0 -164 39.5t-69 144.5zM301 258q0 -63 39 -98t117 -35q115 0 205 75.5t90 168.5v100q-260 -20 -357 -68q-53 -26 -73.5 -60t-20.5 -83z" />
    <glyph glyph-name="adieresis" unicode="&#xe4;" horiz-adv-x="1112" 
d="M258 1380h199v-204h-199v204zM641 1380h199v-204h-199v204zM760 178q-134 -196 -369 -196q-138 0 -214.5 68t-76.5 192q0 83 36.5 142.5t119.5 100.5q150 75 496 97v59q0 197 -209 197q-103 0 -159 -45t-56 -127v-13h-187v19q0 144 104 238t304 94q201 0 302 -96.5
t101 -272.5v-385q0 -75 22.5 -97.5t94.5 -25.5v-133h-76q-109 0 -164 39.5t-69 144.5zM301 258q0 -63 39 -98t117 -35q115 0 205 75.5t90 168.5v100q-260 -20 -357 -68q-53 -26 -73.5 -60t-20.5 -83z" />
    <glyph glyph-name="aring" unicode="&#xe5;" horiz-adv-x="1112" 
d="M549 1577q111 0 180.5 -65t69.5 -158q0 -95 -69.5 -160.5t-180.5 -65.5t-180.5 65.5t-69.5 160.5q0 93 69.5 158t180.5 65zM549 1485q-66 0 -107 -38t-41 -93q0 -57 41 -95t107 -38t106.5 38t40.5 95q0 55 -40.5 93t-106.5 38zM760 178q-134 -196 -369 -196
q-138 0 -214.5 68t-76.5 192q0 83 36.5 142.5t119.5 100.5q150 75 496 97v59q0 197 -209 197q-103 0 -159 -45t-56 -127v-13h-187v19q0 144 104 238t304 94q201 0 302 -96.5t101 -272.5v-385q0 -75 22.5 -97.5t94.5 -25.5v-133h-76q-109 0 -164 39.5t-69 144.5zM301 258
q0 -63 39 -98t117 -35q115 0 205 75.5t90 168.5v100q-260 -20 -357 -68q-53 -26 -73.5 -60t-20.5 -83z" />
    <glyph glyph-name="ae" unicode="&#xe6;" horiz-adv-x="1761" 
d="M1667 299q0 -142 -115.5 -235t-312.5 -93q-161 0 -264.5 62.5t-149.5 175.5q-64 -118 -171.5 -176t-245.5 -58q-148 0 -228 69t-80 194q0 83 35.5 142.5t118.5 100.5q151 74 498 99v63q0 97 -50 144t-157 47q-102 0 -158.5 -45t-56.5 -125v-13h-189v21q0 143 103 236
t299 93q257 0 336 -176q120 179 352 179q111 0 196 -36.5t137 -101.5t78.5 -151t26.5 -189v-84h-711v-14q0 -137 70 -214t215 -77q113 0 177.5 50t64.5 120v2h182v-10zM1225 840q-123 0 -192 -73t-75 -204h517q-5 131 -66 204t-184 73zM301 254q0 -63 40 -99t118 -36
q122 0 207.5 75t85.5 183v88q-255 -17 -357 -68q-53 -26 -73.5 -60.5t-20.5 -82.5z" />
    <glyph glyph-name="ccedilla" unicode="&#xe7;" horiz-adv-x="1067" 
d="M813 -344q0 -99 -72 -153t-202 -54q-148 0 -275 55l31 78q109 -41 209 -41q149 0 149 113q0 46 -31 73t-94 27q-46 0 -122 -26l-41 63l143 182q-198 17 -305 145t-107 341v55q0 225 125 357.5t344 132.5q100 0 180 -29t131 -78.5t78 -113.5t27 -136v-22h-190v4
q0 88 -57 148.5t-171 60.5q-129 0 -196.5 -84t-67.5 -228v-80q0 -143 67 -226t195 -83q114 0 172 61t58 148v2h190v-20q0 -66 -24 -126t-68.5 -109t-115.5 -81t-159 -39l-122 -147q56 18 106 18q98 0 156.5 -51t58.5 -137z" />
    <glyph glyph-name="egrave" unicode="&#xe8;" horiz-adv-x="1093" 
d="M223 1571h248l236 -408h-138zM999 297q0 -141 -116 -233.5t-312 -92.5q-235 0 -355 130t-120 348v65q0 216 123 353t338 137q111 0 197.5 -36.5t139.5 -101.5t80 -151t27 -189v-84h-712v-14q0 -137 69.5 -214t214.5 -77q116 0 180 49t64 119v4h182v-12zM555 840
q-121 0 -189.5 -73.5t-74.5 -203.5h516q-10 277 -252 277z" />
    <glyph glyph-name="eacute" unicode="&#xe9;" horiz-adv-x="1093" 
d="M928 1571l-348 -408h-136l236 408h248zM999 297q0 -141 -116 -233.5t-312 -92.5q-235 0 -355 130t-120 348v65q0 216 123 353t338 137q111 0 197.5 -36.5t139.5 -101.5t80 -151t27 -189v-84h-712v-14q0 -137 69.5 -214t214.5 -77q116 0 180 49t64 119v4h182v-12zM555 840
q-121 0 -189.5 -73.5t-74.5 -203.5h516q-10 277 -252 277z" />
    <glyph glyph-name="ecircumflex" unicode="&#xea;" horiz-adv-x="1093" 
d="M465 1556h188q33 -128 93 -209t155 -120v-88q-112 20 -204.5 92.5t-137.5 169.5q-45 -97 -138 -169.5t-204 -92.5v88q95 39 155 120t93 209zM999 297q0 -141 -116 -233.5t-312 -92.5q-235 0 -355 130t-120 348v65q0 216 123 353t338 137q111 0 197.5 -36.5t139.5 -101.5
t80 -151t27 -189v-84h-712v-14q0 -137 69.5 -214t214.5 -77q116 0 180 49t64 119v4h182v-12zM555 840q-121 0 -189.5 -73.5t-74.5 -203.5h516q-10 277 -252 277z" />
    <glyph glyph-name="edieresis" unicode="&#xeb;" horiz-adv-x="1093" 
d="M268 1382h199v-206h-199v206zM651 1382h197v-206h-197v206zM999 297q0 -141 -116 -233.5t-312 -92.5q-235 0 -355 130t-120 348v65q0 216 123 353t338 137q111 0 197.5 -36.5t139.5 -101.5t80 -151t27 -189v-84h-712v-14q0 -137 69.5 -214t214.5 -77q116 0 180 49t64 119
v4h182v-12zM555 840q-121 0 -189.5 -73.5t-74.5 -203.5h516q-10 277 -252 277z" />
    <glyph glyph-name="igrave" unicode="&#xec;" horiz-adv-x="536" 
d="M-147 1563h247l236 -406h-135zM164 975h209v-975h-209v975z" />
    <glyph glyph-name="iacute" unicode="&#xed;" horiz-adv-x="536" 
d="M684 1563l-348 -406h-135l235 406h248zM164 975h209v-975h-209v975z" />
    <glyph glyph-name="icircumflex" unicode="&#xee;" horiz-adv-x="536" 
d="M174 1548h188q33 -128 93 -209t155 -120v-86q-112 18 -204.5 90t-137.5 170q-45 -97 -138.5 -169.5t-203.5 -90.5v86q95 39 155 120t93 209zM164 975h209v-975h-209v975z" />
    <glyph glyph-name="idieresis" unicode="&#xef;" horiz-adv-x="536" 
d="M-23 1374h199v-207h-199v207zM360 1374h199v-207h-199v207zM164 975h209v-975h-209v975z" />
    <glyph glyph-name="eth" unicode="&#xf0;" horiz-adv-x="1132" 
d="M1036 473q0 -234 -123.5 -369t-349.5 -135q-216 0 -342.5 120.5t-126.5 338.5v92q0 215 113 336t305 121q206 0 328 -162q-45 191 -181 352l-251 -94l-35 90l217 80q-93 93 -211 164v10h217q80 -53 147 -117l250 95l35 -90l-213 -78q221 -261 221 -619v-135zM565 834
q-123 0 -194.5 -75.5t-71.5 -209.5v-137q0 -134 71.5 -208.5t194.5 -74.5q120 0 193 75t73 204v143q0 131 -73 207t-193 76z" />
    <glyph glyph-name="ntilde" unicode="&#xf1;" horiz-adv-x="1191" 
d="M426 1522q35 0 65.5 -10t61 -34.5t43.5 -37t45 -47.5q26 -30 41 -44.5t38 -28t46 -13.5q35 0 57.5 23.5t22.5 74.5q0 49 -12 108h94q22 -86 22 -147q0 -98 -51.5 -154.5t-134.5 -56.5q-42 0 -81 19t-61 38.5t-55 55.5q-6 6 -23.5 25t-24 25.5t-22 20t-25 18.5t-23.5 10
t-27 5q-34 0 -57 -24.5t-23 -75.5q0 -42 14 -107h-94q-22 86 -22 148q0 97 51.5 153t134.5 56zM160 975h174l18 -195q71 106 159 161.5t210 55.5q150 0 236.5 -90.5t86.5 -244.5v-662h-208v629q0 93 -50 146.5t-143 53.5q-115 0 -195.5 -79.5t-80.5 -176.5v-573h-207v975z
" />
    <glyph glyph-name="ograve" unicode="&#xf2;" horiz-adv-x="1134" 
d="M231 1573h248l236 -406h-135zM569 1006q216 0 343.5 -130.5t127.5 -349.5v-82q0 -216 -130 -345.5t-343 -129.5q-216 0 -345.5 128.5t-129.5 344.5v84q0 217 129.5 348.5t347.5 131.5zM567 842q-125 0 -197.5 -81.5t-72.5 -211.5v-125q0 -130 74 -209.5t196 -79.5
q121 0 195 80t74 209v125q0 130 -72 211.5t-197 81.5z" />
    <glyph glyph-name="oacute" unicode="&#xf3;" horiz-adv-x="1134" 
d="M936 1573l-346 -406h-137l235 406h248zM569 1006q216 0 343.5 -130.5t127.5 -349.5v-82q0 -216 -130 -345.5t-343 -129.5q-216 0 -345.5 128.5t-129.5 344.5v84q0 217 129.5 348.5t347.5 131.5zM567 842q-125 0 -197.5 -81.5t-72.5 -211.5v-125q0 -130 74 -209.5
t196 -79.5q121 0 195 80t74 209v125q0 130 -72 211.5t-197 81.5z" />
    <glyph glyph-name="ocircumflex" unicode="&#xf4;" horiz-adv-x="1134" 
d="M473 1559h191q62 -255 245 -330v-86q-110 18 -203.5 90.5t-138.5 169.5q-45 -98 -137.5 -170t-204.5 -90v86q183 75 248 330zM569 1006q216 0 343.5 -130.5t127.5 -349.5v-82q0 -216 -130 -345.5t-343 -129.5q-216 0 -345.5 128.5t-129.5 344.5v84q0 217 129.5 348.5
t347.5 131.5zM567 842q-125 0 -197.5 -81.5t-72.5 -211.5v-125q0 -130 74 -209.5t196 -79.5q121 0 195 80t74 209v125q0 130 -72 211.5t-197 81.5z" />
    <glyph glyph-name="otilde" unicode="&#xf5;" horiz-adv-x="1134" 
d="M399 1509q35 0 65.5 -10t61 -34.5t43.5 -37t45 -47.5q26 -30 41.5 -45t39 -29t46.5 -14q34 0 57 25t23 76q0 41 -14 106h94q23 -85 23 -145q0 -98 -52 -154.5t-135 -56.5q-42 0 -81 18.5t-60.5 38t-54.5 55.5q-5 6 -23 25t-25 25.5t-22 20.5t-25 19t-24 10t-27 5
q-34 0 -57 -24.5t-23 -75.5q0 -38 15 -107h-94q-23 90 -23 147q0 97 51.5 153t134.5 56zM569 1006q216 0 343.5 -130.5t127.5 -349.5v-82q0 -216 -130 -345.5t-343 -129.5q-216 0 -345.5 128.5t-129.5 344.5v84q0 217 129.5 348.5t347.5 131.5zM567 842q-125 0 -197.5 -81.5
t-72.5 -211.5v-125q0 -130 74 -209.5t196 -79.5q121 0 195 80t74 209v125q0 130 -72 211.5t-197 81.5z" />
    <glyph glyph-name="odieresis" unicode="&#xf6;" horiz-adv-x="1134" 
d="M279 1384h198v-206h-198v206zM659 1384h199v-206h-199v206zM569 1006q216 0 343.5 -130.5t127.5 -349.5v-82q0 -216 -130 -345.5t-343 -129.5q-216 0 -345.5 128.5t-129.5 344.5v84q0 217 129.5 348.5t347.5 131.5zM567 842q-125 0 -197.5 -81.5t-72.5 -211.5v-125
q0 -130 74 -209.5t196 -79.5q121 0 195 80t74 209v125q0 130 -72 211.5t-197 81.5z" />
    <glyph glyph-name="divide" unicode="&#xf7;" horiz-adv-x="1234" 
d="M510 1126h215v-188h-215v188zM147 762h940v-160h-940v160zM510 426h215v-188h-215v188z" />
    <glyph glyph-name="oslash" unicode="&#xf8;" horiz-adv-x="1134" 
d="M567 -31q-165 0 -284 80l-117 -139l-84 65l119 146q-109 128 -109 321v84q0 217 129.5 348.5t347.5 131.5q164 0 283 -80l117 139l84 -66l-119 -147q106 -124 106 -326v-82q0 -216 -130 -345.5t-343 -129.5zM289 424q0 -92 39 -162l417 529q-72 57 -178 57
q-130 0 -204 -82.5t-74 -216.5v-125zM846 549q0 94 -39 164l-416 -527q68 -59 176 -59q126 0 202.5 81.5t76.5 215.5v125z" />
    <glyph glyph-name="ugrave" unicode="&#xf9;" horiz-adv-x="1191" 
d="M256 1552h248l235 -405h-137zM150 975h206v-629q0 -92 50 -146.5t143 -54.5q116 0 197 80t81 178v572h207v-975h-176l-18 195q-71 -106 -159 -163t-208 -57q-150 0 -236.5 91.5t-86.5 246.5v662z" />
    <glyph glyph-name="uacute" unicode="&#xfa;" horiz-adv-x="1191" 
d="M961 1552l-349 -405h-135l236 405h248zM150 975h206v-629q0 -92 50 -146.5t143 -54.5q116 0 197 80t81 178v572h207v-975h-176l-18 195q-71 -106 -159 -163t-208 -57q-150 0 -236.5 91.5t-86.5 246.5v662z" />
    <glyph glyph-name="ucircumflex" unicode="&#xfb;" horiz-adv-x="1191" 
d="M496 1538h190q31 -128 91 -209.5t155 -120.5v-86q-110 18 -202.5 90.5t-137.5 169.5q-45 -97 -138.5 -169.5t-203.5 -90.5v86q95 39 155 120.5t91 209.5zM150 975h206v-629q0 -92 50 -146.5t143 -54.5q116 0 197 80t81 178v572h207v-975h-176l-18 195q-71 -106 -159 -163
t-208 -57q-150 0 -236.5 91.5t-86.5 246.5v662z" />
    <glyph glyph-name="udieresis" unicode="&#xfc;" horiz-adv-x="1191" 
d="M301 1364h199v-207h-199v207zM682 1364h199v-207h-199v207zM150 975h206v-629q0 -92 50 -146.5t143 -54.5q116 0 197 80t81 178v572h207v-975h-176l-18 195q-71 -106 -159 -163t-208 -57q-150 0 -236.5 91.5t-86.5 246.5v662z" />
    <glyph glyph-name="yacute" unicode="&#xfd;" horiz-adv-x="1083" 
d="M922 1552l-349 -405h-135l236 405h248zM51 975h217l287 -760h4l277 760h208l-376 -946q-42 -101 -77.5 -162t-85.5 -108t-114.5 -66t-157.5 -19h-83v158h38q99 0 153 31t83 104l18 43z" />
    <glyph glyph-name="thorn" unicode="&#xfe;" horiz-adv-x="1200" 
d="M160 1417h202v-616q60 92 141.5 145t203.5 53q179 0 286 -124t107 -322v-129q0 -198 -109.5 -323.5t-288.5 -125.5q-82 0 -149.5 28.5t-107 65.5t-78.5 91v-482h-207v1739zM641 842q-113 0 -194.5 -86t-81.5 -217v-101q0 -132 82 -218.5t194 -86.5q118 0 186 82.5
t68 212.5v119q0 131 -67.5 213t-186.5 82z" />
    <glyph glyph-name="ydieresis" unicode="&#xff;" horiz-adv-x="1083" 
d="M262 1364h199v-207h-199v207zM645 1364h199v-207h-199v207zM51 975h217l287 -760h4l277 760h208l-376 -946q-42 -101 -77.5 -162t-85.5 -108t-114.5 -66t-157.5 -19h-83v158h38q99 0 153 31t83 104l18 43z" />
    <glyph glyph-name="Amacron" unicode="&#x100;" horiz-adv-x="1466" 
d="M391 1749h684v-135h-684v135zM1163 0l-121 313h-630l-121 -313h-219l540 1376h240l543 -1376h-232zM725 1128l-248 -647h502l-250 647h-4z" />
    <glyph glyph-name="amacron" unicode="&#x101;" horiz-adv-x="1112" 
d="M211 1339h676v-133h-676v133zM760 178q-134 -196 -369 -196q-138 0 -214.5 68t-76.5 192q0 83 36.5 142.5t119.5 100.5q150 75 496 97v59q0 197 -209 197q-103 0 -159 -45t-56 -127v-13h-187v19q0 144 104 238t304 94q201 0 302 -96.5t101 -272.5v-385q0 -75 22.5 -97.5
t94.5 -25.5v-133h-76q-109 0 -164 39.5t-69 144.5zM301 258q0 -63 39 -98t117 -35q115 0 205 75.5t90 168.5v100q-260 -20 -357 -68q-53 -26 -73.5 -60t-20.5 -83z" />
    <glyph glyph-name="Abreve" unicode="&#x102;" horiz-adv-x="1466" 
d="M733 1710q225 0 225 129q0 41 -10 90h86q29 -71 29 -141q0 -112 -90.5 -173t-239.5 -61t-239.5 61t-90.5 173q0 66 27 141h86q-10 -49 -10 -90q0 -129 227 -129zM1163 0l-121 313h-630l-121 -313h-219l540 1376h240l543 -1376h-232zM725 1128l-248 -647h502l-250 647h-4z
" />
    <glyph glyph-name="abreve" unicode="&#x103;" horiz-adv-x="1112" 
d="M549 1307q104 0 153.5 36t49.5 113q0 40 -9 105h88q25 -94 25 -154q0 -127 -84 -194.5t-223 -67.5t-223 67.5t-84 194.5q0 64 24 154h88q-8 -60 -8 -105q0 -77 49.5 -113t153.5 -36zM760 178q-134 -196 -369 -196q-138 0 -214.5 68t-76.5 192q0 83 36.5 142.5
t119.5 100.5q150 75 496 97v59q0 197 -209 197q-103 0 -159 -45t-56 -127v-13h-187v19q0 144 104 238t304 94q201 0 302 -96.5t101 -272.5v-385q0 -75 22.5 -97.5t94.5 -25.5v-133h-76q-109 0 -164 39.5t-69 144.5zM301 258q0 -63 39 -98t117 -35q115 0 205 75.5t90 168.5
v100q-260 -20 -357 -68q-53 -26 -73.5 -60t-20.5 -83z" />
    <glyph glyph-name="Aogonek" unicode="&#x104;" horiz-adv-x="1466" 
d="M1487 -485q-90 -66 -211 -66q-108 0 -171 52.5t-63 140.5q0 54 27 110q25 50 75 106t146 142h-127l-121 313h-630l-121 -313h-219l540 1376h240l543 -1376q-80 -92 -113.5 -135t-52.5 -80q-27 -59 -27 -111q0 -57 32.5 -86.5t90.5 -29.5q65 0 121 34zM725 1128l-248 -647
h502l-250 647h-4z" />
    <glyph glyph-name="aogonek" unicode="&#x105;" horiz-adv-x="1112" 
d="M1163 -485q-90 -66 -211 -66q-107 0 -170 52.5t-63 140.5q0 57 26 110q46 91 218 244q-94 5 -142 45t-61 137q-134 -196 -369 -196q-138 0 -214.5 68t-76.5 192q0 83 36.5 142.5t119.5 100.5q150 75 496 97v59q0 197 -209 197q-103 0 -159 -45t-56 -127v-13h-187v19
q0 144 104 238t304 94q201 0 302 -96.5t101 -272.5v-385q0 -75 22.5 -97.5t94.5 -25.5v-133q-75 -83 -109.5 -127t-52.5 -82q-28 -55 -28 -111q0 -57 32 -86.5t90 -29.5q65 0 121 34zM301 258q0 -63 39 -98t117 -35q115 0 205 75.5t90 168.5v100q-260 -20 -357 -68
q-53 -26 -73.5 -60t-20.5 -83z" />
    <glyph glyph-name="Cacute" unicode="&#x106;" horiz-adv-x="1421" 
d="M1108 1927l-340 -356h-145l237 356h248zM748 1395q135 0 242 -37t172.5 -101t99.5 -144.5t34 -172.5v-61h-219v49q0 117 -87.5 199.5t-244.5 82.5q-185 0 -289 -120.5t-104 -311.5v-192q0 -188 104 -310t289 -122q157 0 244.5 82.5t87.5 199.5v49h219v-61
q0 -91 -34.5 -172t-101 -144.5t-174.5 -101t-243 -37.5q-190 0 -330 81.5t-212 223t-72 324.5v168q0 279 167 454t452 175z" />
    <glyph glyph-name="cacute" unicode="&#x107;" horiz-adv-x="1067" 
d="M922 1571l-349 -408h-137l236 408h250zM561 137q114 0 172 61t58 148v2h190v-20q0 -148 -111 -252.5t-307 -104.5q-223 0 -345 130.5t-122 357.5v55q0 225 125 357.5t344 132.5q100 0 180 -29t131 -78.5t78 -113.5t27 -136v-22h-190v4q0 88 -57 148.5t-171 60.5
q-129 0 -196.5 -84t-67.5 -228v-80q0 -143 67 -226t195 -83z" />
    <glyph glyph-name="Cdotaccent" unicode="&#x10a;" horiz-adv-x="1421" 
d="M616 1776h230v-193h-230v193zM748 1395q135 0 242 -37t172.5 -101t99.5 -144.5t34 -172.5v-61h-219v49q0 117 -87.5 199.5t-244.5 82.5q-185 0 -289 -120.5t-104 -311.5v-192q0 -188 104 -310t289 -122q157 0 244.5 82.5t87.5 199.5v49h219v-61q0 -91 -34.5 -172
t-101 -144.5t-174.5 -101t-243 -37.5q-190 0 -330 81.5t-212 223t-72 324.5v168q0 279 167 454t452 175z" />
    <glyph glyph-name="cdotaccent" unicode="&#x10b;" horiz-adv-x="1067" 
d="M438 1368h228v-192h-228v192zM561 137q114 0 172 61t58 148v2h190v-20q0 -148 -111 -252.5t-307 -104.5q-223 0 -345 130.5t-122 357.5v55q0 225 125 357.5t344 132.5q100 0 180 -29t131 -78.5t78 -113.5t27 -136v-22h-190v4q0 88 -57 148.5t-171 60.5q-129 0 -196.5 -84
t-67.5 -228v-80q0 -143 67 -226t195 -83z" />
    <glyph glyph-name="Ccaron" unicode="&#x10c;" horiz-adv-x="1421" 
d="M365 1946q121 -22 218 -85.5t148 -140.5q51 77 148 140.5t217 85.5v-88q-194 -73 -256 -279h-217q-62 205 -258 279v88zM748 1395q135 0 242 -37t172.5 -101t99.5 -144.5t34 -172.5v-61h-219v49q0 117 -87.5 199.5t-244.5 82.5q-185 0 -289 -120.5t-104 -311.5v-192
q0 -188 104 -310t289 -122q157 0 244.5 82.5t87.5 199.5v49h219v-61q0 -91 -34.5 -172t-101 -144.5t-174.5 -101t-243 -37.5q-190 0 -330 81.5t-212 223t-72 324.5v168q0 279 167 454t452 175z" />
    <glyph glyph-name="ccaron" unicode="&#x10d;" horiz-adv-x="1067" 
d="M211 1585q110 -18 202.5 -90.5t137.5 -169.5q45 97 138.5 169.5t203.5 90.5v-86q-95 -39 -155 -120.5t-91 -209.5h-190q-31 128 -91 209.5t-155 120.5v86zM561 137q114 0 172 61t58 148v2h190v-20q0 -148 -111 -252.5t-307 -104.5q-223 0 -345 130.5t-122 357.5v55
q0 225 125 357.5t344 132.5q100 0 180 -29t131 -78.5t78 -113.5t27 -136v-22h-190v4q0 88 -57 148.5t-171 60.5q-129 0 -196.5 -84t-67.5 -228v-80q0 -143 67 -226t195 -83z" />
    <glyph glyph-name="Dcaron" unicode="&#x10e;" horiz-adv-x="1468" 
d="M334 1935q121 -22 218 -84.5t148 -138.5q51 76 148 138.5t217 84.5v-88q-195 -74 -256 -278h-217q-61 204 -258 278v88zM190 1364h531q299 0 457.5 -165.5t158.5 -442.5v-156q0 -276 -159.5 -438t-458.5 -162h-529v1364zM412 1182v-1000h293q204 0 307.5 115.5
t103.5 314.5v140q0 199 -104 314.5t-307 115.5h-293z" />
    <glyph glyph-name="dcaron" unicode="&#x10f;" horiz-adv-x="1200" 
d="M1212 1417h187l-99 -362h-106zM836 1417h206v-1417h-176l-14 190q-63 -100 -148 -157.5t-212 -57.5q-178 0 -284 125t-106 324v127q0 198 108 323t286 125q120 0 199.5 -49.5t140.5 -132.5v600zM559 842q-119 0 -186.5 -82t-67.5 -213v-119q0 -131 67.5 -213t186.5 -82
q113 0 195 86t82 217v103q0 131 -82 217t-195 86z" />
    <glyph glyph-name="Dcroat" unicode="&#x110;" horiz-adv-x="1476" 
d="M1346 600q0 -276 -158 -438t-457 -162h-530v623h-174v127h174v614h530q152 0 269.5 -44.5t193 -125.5t114 -192t38.5 -246v-156zM422 182h293q203 0 307 115.5t104 312.5v144q0 199 -104 313.5t-309 114.5h-291v-432h385v-127h-385v-441z" />
    <glyph glyph-name="dcroat" unicode="&#x111;" horiz-adv-x="1200" 
d="M852 190q-63 -100 -148 -157.5t-212 -57.5q-178 0 -284 124.5t-106 320.5v127q0 197 108 320.5t286 123.5q120 0 200 -49.5t140 -132.5v328h-310v102h310v178h206v-178h152v-102h-152v-1137h-176zM559 834q-119 0 -186.5 -82t-67.5 -213v-111q0 -129 67.5 -211t186.5 -82
q113 0 195 85t82 214v96q0 131 -82 217.5t-195 86.5z" />
    <glyph glyph-name="Emacron" unicode="&#x112;" horiz-adv-x="1296" 
d="M344 1737h686v-133h-686v133zM190 1364h998v-182h-780v-404h612v-174h-612v-422h782v-182h-1000v1364z" />
    <glyph glyph-name="emacron" unicode="&#x113;" horiz-adv-x="1093" 
d="M221 1339h676v-133h-676v133zM999 297q0 -141 -116 -233.5t-312 -92.5q-235 0 -355 130t-120 348v65q0 216 123 353t338 137q111 0 197.5 -36.5t139.5 -101.5t80 -151t27 -189v-84h-712v-14q0 -137 69.5 -214t214.5 -77q116 0 180 49t64 119v4h182v-12zM555 840
q-121 0 -189.5 -73.5t-74.5 -203.5h516q-10 277 -252 277z" />
    <glyph glyph-name="Ebreve" unicode="&#x114;" horiz-adv-x="1296" 
d="M686 1700q227 0 227 129q0 42 -10 88h86q27 -75 27 -139q0 -113 -90.5 -174.5t-239.5 -61.5t-239.5 61.5t-90.5 174.5q0 68 29 139h86q-10 -46 -10 -88q0 -129 225 -129zM190 1364h998v-182h-780v-404h612v-174h-612v-422h782v-182h-1000v1364z" />
    <glyph glyph-name="ebreve" unicode="&#x115;" horiz-adv-x="1093" 
d="M559 1307q104 0 153.5 36.5t49.5 114.5q0 46 -8 103h88q24 -90 24 -154q0 -127 -84 -194.5t-223 -67.5t-223 67.5t-84 194.5q0 77 24 154h89q-11 -83 -11 -103q0 -78 50 -114.5t155 -36.5zM999 297q0 -141 -116 -233.5t-312 -92.5q-235 0 -355 130t-120 348v65
q0 216 123 353t338 137q111 0 197.5 -36.5t139.5 -101.5t80 -151t27 -189v-84h-712v-14q0 -137 69.5 -214t214.5 -77q116 0 180 49t64 119v4h182v-12zM555 840q-121 0 -189.5 -73.5t-74.5 -203.5h516q-10 277 -252 277z" />
    <glyph glyph-name="Edotaccent" unicode="&#x116;" horiz-adv-x="1296" 
d="M573 1765h230v-192h-230v192zM190 1364h998v-182h-780v-404h612v-174h-612v-422h782v-182h-1000v1364z" />
    <glyph glyph-name="edotaccent" unicode="&#x117;" horiz-adv-x="1093" 
d="M444 1368h230v-192h-230v192zM999 297q0 -141 -116 -233.5t-312 -92.5q-235 0 -355 130t-120 348v65q0 216 123 353t338 137q111 0 197.5 -36.5t139.5 -101.5t80 -151t27 -189v-84h-712v-14q0 -137 69.5 -214t214.5 -77q116 0 180 49t64 119v4h182v-12zM555 840
q-121 0 -189.5 -73.5t-74.5 -203.5h516q-10 277 -252 277z" />
    <glyph glyph-name="Eogonek" unicode="&#x118;" horiz-adv-x="1296" 
d="M1282 -485q-90 -66 -213 -66q-107 0 -170 52.5t-63 140.5q0 58 28 110q25 50 75 106t146 142h-895v1364h998v-182h-780v-404h612v-174h-612v-422h782v-182q-134 -151 -166 -215q-29 -63 -29 -111q0 -57 33 -86.5t90 -29.5q65 0 123 34z" />
    <glyph glyph-name="eogonek" unicode="&#x119;" horiz-adv-x="1093" 
d="M1030 -485q-90 -66 -211 -66q-107 0 -170 54.5t-63 146.5q0 71 32 131q40 79 158 225q-90 -35 -207 -35q-233 0 -353 130t-120 348v65q0 216 123 353t338 137q111 0 197.5 -36.5t139.5 -101.5t80 -151t27 -189v-84h-712v-14q0 -137 69.5 -214t214.5 -77q116 0 180 49
t64 119v4h182v-8q0 -85 -45 -158q-105 -166 -143 -243q-66 -129 -66 -213q0 -64 33 -96.5t90 -32.5q63 0 123 32zM555 840q-121 0 -189.5 -73.5t-74.5 -203.5h516q-10 277 -252 277z" />
    <glyph glyph-name="Ecaron" unicode="&#x11a;" horiz-adv-x="1296" 
d="M322 1935q120 -22 216 -84t150 -139q51 76 147.5 138.5t217.5 84.5v-88q-198 -74 -256 -278h-217q-61 204 -258 278v88zM190 1364h998v-182h-780v-404h612v-174h-612v-422h782v-182h-1000v1364z" />
    <glyph glyph-name="ecaron" unicode="&#x11b;" horiz-adv-x="1093" 
d="M217 1585q110 -18 203.5 -90.5t138.5 -169.5q45 98 137.5 170t204.5 90v-86q-183 -75 -248 -330h-188q-65 255 -248 330v86zM999 297q0 -141 -116 -233.5t-312 -92.5q-235 0 -355 130t-120 348v65q0 216 123 353t338 137q111 0 197.5 -36.5t139.5 -101.5t80 -151t27 -189
v-84h-712v-14q0 -137 69.5 -214t214.5 -77q116 0 180 49t64 119v4h182v-12zM555 840q-121 0 -189.5 -73.5t-74.5 -203.5h516q-10 277 -252 277z" />
    <glyph glyph-name="Gbreve" unicode="&#x11e;" horiz-adv-x="1468" 
d="M735 1708q228 0 228 129q0 27 -13 90h86q29 -71 29 -141q0 -112 -90.5 -173t-239.5 -61t-239 60.5t-90 173.5q0 69 26 141h86q-10 -65 -10 -90q0 -129 227 -129zM750 1395q135 0 242 -37t172.5 -101t99.5 -145t34 -174v-31h-217v19q0 122 -84.5 204t-248.5 82
q-187 0 -291.5 -120.5t-104.5 -319.5l-2 -180q0 -203 104.5 -324t282.5 -121q165 0 264 94.5t99 241.5v58h-352v157h561v-698h-109l-33 227q-140 -256 -462 -256q-260 0 -418 169t-158 454v172q0 183 73 324.5t214.5 223t333.5 81.5z" />
    <glyph glyph-name="gbreve" unicode="&#x11f;" horiz-adv-x="1107" 
d="M547 1317q105 0 155 36.5t50 112.5q0 22 -11 105h88q25 -84 25 -156q0 -127 -83.5 -193.5t-223.5 -66.5t-223.5 66.5t-83.5 193.5q0 62 24 156h88q-8 -60 -8 -105q0 -76 50 -112.5t153 -36.5zM1067 -76q0 -123 -131.5 -191.5t-376.5 -68.5q-250 0 -374 55.5t-124 159.5
q0 134 228 174v4q-83 27 -126.5 62.5t-43.5 89.5q0 53 45 91t133 69q-80 41 -123 111.5t-43 160.5v27q0 148 115.5 236.5t304.5 88.5q91 0 162 -24q62 10 101 25t58.5 38.5t26 49t6.5 65.5h152q16 -46 16 -80q0 -74 -57 -112t-178 -54q68 -45 101.5 -102.5t33.5 -141.5v-22
q0 -147 -113 -234.5t-309 -87.5q-84 0 -158 19q-104 -32 -104 -78q0 -37 75 -57.5t199 -20.5h35q247 0 358 -65t111 -187zM553 451q107 0 165 49.5t58 132.5v39q0 84 -58.5 134t-164.5 50q-108 0 -165.5 -49t-57.5 -133v-39q0 -85 57.5 -134.5t165.5 -49.5zM563 -213
q324 0 324 115q0 54 -78 80t-244 26h-30q-143 0 -218 -30.5t-75 -81.5q0 -109 321 -109z" />
    <glyph glyph-name="Gdotaccent" unicode="&#x120;" horiz-adv-x="1468" 
d="M621 1776h229v-193h-229v193zM750 1395q135 0 242 -37t172.5 -101t99.5 -145t34 -174v-31h-217v19q0 122 -84.5 204t-248.5 82q-187 0 -291.5 -120.5t-104.5 -319.5l-2 -180q0 -203 104.5 -324t282.5 -121q165 0 264 94.5t99 241.5v58h-352v157h561v-698h-109l-33 227
q-140 -256 -462 -256q-260 0 -418 169t-158 454v172q0 183 73 324.5t214.5 223t333.5 81.5z" />
    <glyph glyph-name="gdotaccent" unicode="&#x121;" horiz-adv-x="1107" 
d="M432 1378h230v-192h-230v192zM1067 -76q0 -123 -131.5 -191.5t-376.5 -68.5q-250 0 -374 55.5t-124 159.5q0 134 228 174v4q-83 27 -126.5 62.5t-43.5 89.5q0 53 45 91t133 69q-80 41 -123 111.5t-43 160.5v27q0 148 115.5 236.5t304.5 88.5q91 0 162 -24q62 10 101 25
t58.5 38.5t26 49t6.5 65.5h152q16 -46 16 -80q0 -74 -57 -112t-178 -54q68 -45 101.5 -102.5t33.5 -141.5v-22q0 -147 -113 -234.5t-309 -87.5q-84 0 -158 19q-104 -32 -104 -78q0 -37 75 -57.5t199 -20.5h35q247 0 358 -65t111 -187zM553 451q107 0 165 49.5t58 132.5v39
q0 84 -58.5 134t-164.5 50q-108 0 -165.5 -49t-57.5 -133v-39q0 -85 57.5 -134.5t165.5 -49.5zM563 -213q324 0 324 115q0 54 -78 80t-244 26h-30q-143 0 -218 -30.5t-75 -81.5q0 -109 321 -109z" />
    <glyph glyph-name="Gcommaaccent" unicode="&#x122;" horiz-adv-x="1468" 
d="M750 1395q135 0 242 -37t172.5 -101t99.5 -145t34 -174v-31h-217v19q0 122 -84.5 204t-248.5 82q-187 0 -291.5 -120.5t-104.5 -319.5l-2 -180q0 -203 104.5 -324t282.5 -121q165 0 264 94.5t99 241.5v58h-352v157h561v-698h-109l-33 227q-140 -256 -462 -256
q-260 0 -418 169t-158 454v172q0 183 73 324.5t214.5 223t333.5 81.5zM627 -207h219v-190q0 -115 -69.5 -188t-201.5 -99v59q80 24 125 77.5t45 131.5h-118v209z" />
    <glyph glyph-name="gcommaaccent" unicode="&#x123;" horiz-adv-x="1107" 
d="M440 1184v190q0 231 271 289v-61q-81 -22 -126 -75.5t-44 -131.5h116v-211h-217zM1067 -76q0 -123 -131.5 -191.5t-376.5 -68.5q-250 0 -374 55.5t-124 159.5q0 134 228 174v4q-83 27 -126.5 62.5t-43.5 89.5q0 53 45 91t133 69q-80 41 -123 111.5t-43 160.5v27
q0 148 115.5 236.5t304.5 88.5q91 0 162 -24q62 10 101 25t58.5 38.5t26 49t6.5 65.5h152q16 -46 16 -80q0 -74 -57 -112t-178 -54q68 -45 101.5 -102.5t33.5 -141.5v-22q0 -147 -113 -234.5t-309 -87.5q-84 0 -158 19q-104 -32 -104 -78q0 -37 75 -57.5t199 -20.5h35
q247 0 358 -65t111 -187zM553 451q107 0 165 49.5t58 132.5v39q0 84 -58.5 134t-164.5 50q-108 0 -165.5 -49t-57.5 -133v-39q0 -85 57.5 -134.5t165.5 -49.5zM563 -213q324 0 324 115q0 54 -78 80t-244 26h-30q-143 0 -218 -30.5t-75 -81.5q0 -109 321 -109z" />
    <glyph glyph-name="Hbar" unicode="&#x126;" horiz-adv-x="1529" 
d="M422 594v-594h-221v1012h-174v127h174v225h221v-231h688v231h219v-225h176v-127h-176v-1012h-219v594h-688zM422 780h688v238h-688v-238z" />
    <glyph glyph-name="hbar" unicode="&#x127;" horiz-adv-x="1189" 
d="M367 567v-567h-207v1137h-154v102h154v178h207v-178h307v-102h-307v-344q137 198 352 198q149 0 235 -91t86 -247v-653h-206v627q0 91 -50 144.5t-143 53.5q-114 0 -194 -81t-80 -177z" />
    <glyph glyph-name="Imacron" unicode="&#x12a;" horiz-adv-x="624" 
d="M-31 1737h686v-133h-686v133zM203 1364h219v-1364h-219v1364z" />
    <glyph glyph-name="imacron" unicode="&#x12b;" horiz-adv-x="536" 
d="M-70 1331h676v-133h-676v133zM164 975h209v-975h-209v975z" />
    <glyph glyph-name="Ibreve" unicode="&#x12c;" horiz-adv-x="624" 
d="M311 1700q228 0 228 129q0 37 -11 88h86q27 -75 27 -139q0 -113 -90.5 -174.5t-239.5 -61.5t-239 61.5t-90 174.5q0 71 28 139h86q-12 -55 -12 -88q0 -129 227 -129zM203 1364h219v-1364h-219v1364z" />
    <glyph glyph-name="ibreve" unicode="&#x12d;" horiz-adv-x="536" 
d="M268 1300q105 0 154 36t49 114q0 44 -8 104h88q24 -94 24 -155q0 -127 -83.5 -193.5t-223.5 -66.5t-223.5 66.5t-83.5 193.5q0 57 25 155h88q-8 -60 -8 -104q0 -78 49 -114t153 -36zM164 975h209v-975h-209v975z" />
    <glyph glyph-name="Iogonek" unicode="&#x12e;" horiz-adv-x="624" 
d="M113 -242q22 43 67 94.5t144 147.5h-121v1364h219v-1364q-118 -147 -148 -207q-32 -58 -32 -119q0 -57 32 -86.5t88 -29.5q67 0 125 34l39 -77q-90 -66 -211 -66q-107 0 -170 52t-63 141q0 52 31 116z" />
    <glyph glyph-name="iogonek" unicode="&#x12f;" horiz-adv-x="536" 
d="M156 1362h225v-195h-225v195zM479 -485q-90 -66 -211 -66q-107 0 -171 52.5t-64 140.5q0 54 30 116q22 44 63 92.5t142 149.5h-104v975h209v-975q-121 -150 -150 -209q-28 -57 -28 -117q0 -57 32 -86.5t90 -29.5q65 0 121 34z" />
    <glyph glyph-name="Idotaccent" unicode="&#x130;" horiz-adv-x="624" 
d="M199 1765h229v-192h-229v192zM203 1364h219v-1364h-219v1364z" />
    <glyph glyph-name="dotlessi" unicode="&#x131;" horiz-adv-x="536" 
d="M164 975h209v-975h-209v975z" />
    <glyph glyph-name="Kcommaaccent" unicode="&#x136;" horiz-adv-x="1363" 
d="M1059 0q-318 446 -441 618l-206 -237v-381h-222v1364h222v-727l630 727h265l-535 -594l547 -770h-260zM600 -188h219v-189q0 -116 -69 -189.5t-201 -99.5v60q81 24 126 77.5t44 131.5h-119v209z" />
    <glyph glyph-name="kcommaaccent" unicode="&#x137;" horiz-adv-x="1089" 
d="M160 1417h207v-977l419 535h234l-324 -400l348 -575h-229l-264 436l-184 -225v-211h-207v1417zM461 -188h219v-189q0 -116 -69 -189.5t-201 -99.5v60q80 24 125 77.5t45 131.5h-119v209z" />
    <glyph glyph-name="Lacute" unicode="&#x139;" horiz-adv-x="1175" 
d="M717 1917l-342 -356h-146l238 356h250zM190 1364h222v-1174h700v-190h-922v1364z" />
    <glyph glyph-name="lacute" unicode="&#x13a;" horiz-adv-x="536" 
d="M684 1929l-348 -405h-135l235 405h248zM164 1417h209v-1417h-209v1417z" />
    <glyph glyph-name="Lcommaaccent" unicode="&#x13b;" horiz-adv-x="1175" 
d="M190 1364h222v-1174h700v-190h-922v1364zM528 -197h220v-190q0 -116 -69.5 -189.5t-201.5 -99.5v60q81 24 126 77t44 131h-119v211z" />
    <glyph glyph-name="lcommaaccent" unicode="&#x13c;" horiz-adv-x="536" 
d="M164 1417h209v-1417h-209v1417zM158 -197h219v-190q0 -116 -69.5 -189.5t-201.5 -99.5v60q81 24 126 77t44 131h-118v211z" />
    <glyph glyph-name="Lcaron" unicode="&#x13d;" horiz-adv-x="1175" 
d="M614 1364h189l-98 -363h-107zM190 1364h222v-1174h700v-190h-922v1364z" />
    <glyph glyph-name="lcaron" unicode="&#x13e;" horiz-adv-x="536" 
d="M547 1417h186l-96 -362h-107zM164 1417h209v-1417h-209v1417z" />
    <glyph glyph-name="Ldot" unicode="&#x13f;" horiz-adv-x="1175" 
d="M190 1364h222v-1174h700v-190h-922v1364zM797 836h198v-205h-198v205z" />
    <glyph glyph-name="ldot" unicode="&#x140;" horiz-adv-x="724" 
d="M164 1417h209v-1417h-209v1417zM532 797h197v-205h-197v205z" />
    <glyph glyph-name="Lslash" unicode="&#x141;" horiz-adv-x="1187" 
d="M1122 190v-190h-921v520l-150 -78l-57 109l207 106v707h221v-592l373 195l57 -107l-430 -225v-445h700z" />
    <glyph glyph-name="lslash" unicode="&#x142;" horiz-adv-x="577" 
d="M610 848l-219 -137v-711h-207v582l-157 -99l-58 88l215 136v710h207v-581l162 102z" />
    <glyph glyph-name="Nacute" unicode="&#x143;" horiz-adv-x="1523" 
d="M1139 1907l-342 -357h-146l238 357h250zM190 1364h218l720 -1012h5l-3 1012h203v-1364h-211l-727 1024h-4l2 -1024h-203v1364z" />
    <glyph glyph-name="nacute" unicode="&#x144;" horiz-adv-x="1191" 
d="M963 1585l-349 -405h-135l236 405h248zM160 975h174l18 -195q71 106 159 161.5t210 55.5q150 0 236.5 -90.5t86.5 -244.5v-662h-208v629q0 93 -50 146.5t-143 53.5q-115 0 -195.5 -79.5t-80.5 -176.5v-573h-207v975z" />
    <glyph glyph-name="Ncommaaccent" unicode="&#x145;" horiz-adv-x="1523" 
d="M190 1364h218l720 -1012h5l-3 1012h203v-1364h-211l-727 1024h-4l2 -1024h-203v1364zM649 -188h219v-189q0 -116 -70 -189t-202 -100v60q81 24 126 77.5t44 131.5h-117v209z" />
    <glyph glyph-name="ncommaaccent" unicode="&#x146;" horiz-adv-x="1191" 
d="M160 975h174l18 -195q71 106 159 161.5t210 55.5q150 0 236.5 -90.5t86.5 -244.5v-662h-208v629q0 93 -50 146.5t-143 53.5q-115 0 -195.5 -79.5t-80.5 -176.5v-573h-207v975zM485 -188h220v-189q0 -116 -70 -189t-201 -100v60q80 24 124.5 77.5t43.5 131.5h-117v209z
" />
    <glyph glyph-name="Ncaron" unicode="&#x147;" horiz-adv-x="1523" 
d="M395 1925q120 -22 217 -84.5t148 -138.5q51 76 148 138.5t218 84.5v-88q-197 -74 -258 -278h-217q-61 204 -256 278v88zM190 1364h218l720 -1012h5l-3 1012h203v-1364h-211l-727 1024h-4l2 -1024h-203v1364z" />
    <glyph glyph-name="ncaron" unicode="&#x148;" horiz-adv-x="1191" 
d="M252 1602q112 -20 204.5 -92.5t137.5 -170.5q45 97 138.5 170t203.5 93v-89q-95 -39 -155 -120t-93 -209h-188q-33 128 -93 209t-155 120v89zM160 975h174l18 -195q71 106 159 161.5t210 55.5q150 0 236.5 -90.5t86.5 -244.5v-662h-208v629q0 93 -50 146.5t-143 53.5
q-115 0 -195.5 -79.5t-80.5 -176.5v-573h-207v975z" />
    <glyph glyph-name="Omacron" unicode="&#x14c;" horiz-adv-x="1507" 
d="M412 1747h684v-133h-684v133zM754 1395q292 0 457 -168t165 -471v-148q0 -303 -165 -471t-457 -168t-457.5 168t-165.5 471v148q0 302 166 470.5t457 168.5zM754 1210q-190 0 -296 -115.5t-106 -326.5v-172q0 -211 106 -326.5t296 -115.5t296.5 115.5t106.5 326.5v172
q0 211 -106.5 326.5t-296.5 115.5z" />
    <glyph glyph-name="omacron" unicode="&#x14d;" horiz-adv-x="1134" 
d="M231 1343h674v-135h-674v135zM569 1006q216 0 343.5 -130.5t127.5 -349.5v-82q0 -216 -130 -345.5t-343 -129.5q-216 0 -345.5 128.5t-129.5 344.5v84q0 217 129.5 348.5t347.5 131.5zM567 842q-125 0 -197.5 -81.5t-72.5 -211.5v-125q0 -130 74 -209.5t196 -79.5
q121 0 195 80t74 209v125q0 130 -72 211.5t-197 81.5z" />
    <glyph glyph-name="Obreve" unicode="&#x14e;" horiz-adv-x="1507" 
d="M754 1710q227 0 227 129q0 32 -12 88h86q28 -68 28 -139q0 -113 -90 -174.5t-239 -61.5t-239.5 61.5t-90.5 174.5q0 64 27 139h86q-11 -68 -11 -88q0 -129 228 -129zM754 1395q292 0 457 -168t165 -471v-148q0 -303 -165 -471t-457 -168t-457.5 168t-165.5 471v148
q0 302 166 470.5t457 168.5zM754 1210q-190 0 -296 -115.5t-106 -326.5v-172q0 -211 106 -326.5t296 -115.5t296.5 115.5t106.5 326.5v172q0 211 -106.5 326.5t-296.5 115.5z" />
    <glyph glyph-name="obreve" unicode="&#x14f;" horiz-adv-x="1134" 
d="M567 1311q105 0 155 36t50 113q0 30 -10 105h88q24 -81 24 -156q0 -127 -83.5 -193.5t-223.5 -66.5t-223.5 66.5t-83.5 193.5q0 58 25 156h90q-10 -56 -10 -105q0 -77 49 -113t153 -36zM569 1006q216 0 343.5 -130.5t127.5 -349.5v-82q0 -216 -130 -345.5t-343 -129.5
q-216 0 -345.5 128.5t-129.5 344.5v84q0 217 129.5 348.5t347.5 131.5zM567 842q-125 0 -197.5 -81.5t-72.5 -211.5v-125q0 -130 74 -209.5t196 -79.5q121 0 195 80t74 209v125q0 130 -72 211.5t-197 81.5z" />
    <glyph glyph-name="Ohungarumlaut" unicode="&#x150;" horiz-adv-x="1507" 
d="M926 1927l-308 -356h-129l224 356h213zM1290 1927l-309 -356h-127l221 356h215zM754 1395q292 0 457 -168t165 -471v-148q0 -303 -165 -471t-457 -168t-457.5 168t-165.5 471v148q0 302 166 470.5t457 168.5zM754 1210q-190 0 -296 -115.5t-106 -326.5v-172
q0 -211 106 -326.5t296 -115.5t296.5 115.5t106.5 326.5v172q0 211 -106.5 326.5t-296.5 115.5z" />
    <glyph glyph-name="ohungarumlaut" unicode="&#x151;" horiz-adv-x="1134" 
d="M756 1573l-314 -406h-120l221 406h213zM1114 1573l-313 -406h-123l221 406h215zM569 1006q216 0 343.5 -130.5t127.5 -349.5v-82q0 -216 -130 -345.5t-343 -129.5q-216 0 -345.5 128.5t-129.5 344.5v84q0 217 129.5 348.5t347.5 131.5zM567 842q-125 0 -197.5 -81.5
t-72.5 -211.5v-125q0 -130 74 -209.5t196 -79.5q121 0 195 80t74 209v125q0 130 -72 211.5t-197 81.5z" />
    <glyph glyph-name="OE" unicode="&#x152;" horiz-adv-x="2160" 
d="M2054 0h-1309q-200 0 -340 78t-207 213t-67 317v156q0 276 159 438t458 162h1304v-182h-780v-404h612v-174h-612v-422h782v-182zM764 1182q-204 0 -309 -115.5t-105 -312.5v-144q0 -197 105.5 -312.5t308.5 -115.5h293v1000h-293z" />
    <glyph glyph-name="oe" unicode="&#x153;" horiz-adv-x="1837" 
d="M1313 -29q-270 0 -381 187q-58 -89 -153 -138t-216 -49q-213 0 -342 128t-129 343v84q0 216 128.5 348t344.5 132q126 0 221.5 -52t151.5 -147q57 93 151.5 145t215.5 52q111 0 196 -36.5t138 -101.5t79.5 -151t26.5 -189v-84h-713v-14q0 -137 70 -214t215 -77
q114 0 179 50t65 120v2h182v-10q0 -141 -116.5 -234.5t-313.5 -93.5zM1298 840q-121 0 -190.5 -74t-75.5 -203h516q-3 131 -64 204t-186 73zM563 840q-123 0 -194.5 -81t-71.5 -210v-125q0 -129 72.5 -209t193.5 -80t193.5 80t72.5 209v125q0 129 -70.5 210t-195.5 81z" />
    <glyph glyph-name="Racute" unicode="&#x154;" horiz-adv-x="1392" 
d="M1069 1917l-342 -356h-145l237 356h250zM410 539v-539h-220v1364h623q224 0 338.5 -99t114.5 -276v-71q0 -137 -83 -233t-231 -130l365 -555h-244l-350 539h-313zM410 1190v-479h352q138 0 211.5 56.5t73.5 156.5v55q0 211 -271 211h-366z" />
    <glyph glyph-name="racute" unicode="&#x155;" horiz-adv-x="808" 
d="M821 1567l-348 -406h-135l235 406h248zM160 975h174l16 -240q106 254 336 254q42 0 82 -6v-201q-53 11 -92 11q-129 0 -219 -81.5t-90 -195.5v-516h-207v975z" />
    <glyph glyph-name="Rcommaaccent" unicode="&#x156;" horiz-adv-x="1392" 
d="M410 539v-539h-220v1364h623q224 0 338.5 -99t114.5 -276v-71q0 -137 -83 -233t-231 -130l365 -555h-244l-350 539h-313zM410 1190v-479h352q138 0 211.5 56.5t73.5 156.5v55q0 211 -271 211h-366zM614 -188h220v-189q0 -116 -70.5 -189t-202.5 -100v60q81 24 126 77.5
t44 131.5h-117v209z" />
    <glyph glyph-name="rcommaaccent" unicode="&#x157;" horiz-adv-x="808" 
d="M160 975h174l16 -240q106 254 336 254q42 0 82 -6v-201q-53 11 -92 11q-129 0 -219 -81.5t-90 -195.5v-516h-207v975zM154 -197h219v-190q0 -116 -69.5 -189.5t-201.5 -99.5v60q80 24 125 77t45 131h-118v211z" />
    <glyph glyph-name="Rcaron" unicode="&#x158;" horiz-adv-x="1392" 
d="M324 1935q121 -22 218 -84.5t148 -138.5q51 76 148.5 138.5t218.5 84.5v-88q-197 -74 -258 -278h-217q-61 204 -258 278v88zM410 539v-539h-220v1364h623q224 0 338.5 -99t114.5 -276v-71q0 -137 -83 -233t-231 -130l365 -555h-244l-350 539h-313zM410 1190v-479h352
q138 0 211.5 56.5t73.5 156.5v55q0 211 -271 211h-366z" />
    <glyph glyph-name="rcaron" unicode="&#x159;" horiz-adv-x="808" 
d="M111 1583q112 -20 204.5 -92t137.5 -170q45 98 137.5 170t204.5 92v-86q-95 -39 -155 -121t-93 -211h-189q-66 258 -247 332v86zM160 975h174l16 -240q106 254 336 254q42 0 82 -6v-201q-53 11 -92 11q-129 0 -219 -81.5t-90 -195.5v-516h-207v975z" />
    <glyph glyph-name="Sacute" unicode="&#x15a;" horiz-adv-x="1341" 
d="M1059 1923l-342 -356h-146l238 356h250zM680 1391q137 0 241.5 -32t168 -89.5t95.5 -131.5t32 -163v-37h-222v31q0 107 -78 175t-245 68q-138 0 -218.5 -56t-80.5 -148q0 -33 7.5 -58t27 -46t43.5 -36.5t69 -31.5t90.5 -29t118.5 -31q144 -32 235.5 -65t154 -80
t88.5 -108t26 -148q0 -188 -149.5 -295t-391.5 -107q-281 0 -423 116t-142 312v50h221v-35q0 -124 88 -194t264 -70q143 0 227.5 54t84.5 152q0 42 -12 72.5t-34.5 53.5t-70.5 43.5t-103.5 37t-148.5 39.5q-136 29 -224.5 60.5t-151.5 77t-90 106.5t-27 147q0 176 144.5 286
t385.5 110z" />
    <glyph glyph-name="sacute" unicode="&#x15b;" horiz-adv-x="1030" 
d="M879 1569l-347 -406h-137l236 406h248zM522 -29q-214 0 -321 91.5t-107 240.5v31h178v-21q0 -85 64.5 -136.5t189.5 -51.5q104 0 161.5 38t57.5 103q0 59 -53 91t-203 61q-198 33 -286 98t-88 189q0 127 107.5 211.5t291.5 84.5q195 0 300.5 -86t105.5 -229v-22h-179v12
q0 81 -59.5 127.5t-171.5 46.5q-92 0 -149.5 -37t-57.5 -96q0 -57 56 -88.5t200 -59.5q203 -35 291 -100t88 -193q0 -134 -111 -219.5t-305 -85.5z" />
    <glyph glyph-name="Scedilla" unicode="&#x15e;" horiz-adv-x="1341" 
d="M942 -344q0 -99 -73 -153t-203 -54q-148 0 -275 55l31 78q112 -41 209 -41q151 0 151 113q0 46 -31 73t-94 27q-46 0 -122 -26l-41 63l143 184q-254 12 -382 126t-128 300v50h221v-35q0 -124 88 -194t264 -70q143 0 227.5 54t84.5 152q0 42 -12 72.5t-34.5 53.5
t-70.5 43.5t-103.5 37t-148.5 39.5q-136 29 -224.5 60.5t-151.5 77t-90 106.5t-27 147q0 176 144.5 286t385.5 110q137 0 241.5 -32t168 -89.5t95.5 -131.5t32 -163v-37h-222v31q0 107 -78 175t-245 68q-138 0 -218.5 -56t-80.5 -148q0 -33 7.5 -58t27 -46t43.5 -36.5
t69 -31.5t90.5 -29t118.5 -31q144 -32 235.5 -65t154 -80t88.5 -108t26 -148q0 -178 -134.5 -283.5t-357.5 -116.5l-123 -149q61 18 107 18q99 0 158 -51t59 -137z" />
    <glyph glyph-name="scedilla" unicode="&#x15f;" horiz-adv-x="1030" 
d="M772 -344q0 -99 -72.5 -153t-203.5 -54q-145 0 -275 55l33 78q109 -41 209 -41q149 0 149 113q0 46 -31 73t-94 27q-46 0 -122 -26l-41 63l143 182q-187 12 -280 101.5t-93 228.5v31h178v-21q0 -85 64.5 -136.5t189.5 -51.5q104 0 161.5 38t57.5 103q0 59 -53 91t-203 61
q-198 33 -286 98t-88 189q0 127 107.5 211.5t291.5 84.5q195 0 300.5 -86t105.5 -229v-22h-179v12q0 81 -59.5 127.5t-171.5 46.5q-92 0 -149.5 -37t-57.5 -96q0 -57 56 -88.5t200 -59.5q203 -35 291 -100t88 -193q0 -126 -96.5 -208.5t-270.5 -94.5l-120 -147q56 18 106 18
q98 0 156.5 -51t58.5 -137z" />
    <glyph glyph-name="Scaron" unicode="&#x160;" horiz-adv-x="1341" 
d="M313 1942q121 -22 218.5 -85t148.5 -139q51 76 148.5 139t218.5 85v-89q-198 -74 -259 -278h-217q-61 204 -258 278v89zM680 1391q137 0 241.5 -32t168 -89.5t95.5 -131.5t32 -163v-37h-222v31q0 107 -78 175t-245 68q-138 0 -218.5 -56t-80.5 -148q0 -33 7.5 -58t27 -46
t43.5 -36.5t69 -31.5t90.5 -29t118.5 -31q144 -32 235.5 -65t154 -80t88.5 -108t26 -148q0 -188 -149.5 -295t-391.5 -107q-281 0 -423 116t-142 312v50h221v-35q0 -124 88 -194t264 -70q143 0 227.5 54t84.5 152q0 42 -12 72.5t-34.5 53.5t-70.5 43.5t-103.5 37
t-148.5 39.5q-136 29 -224.5 60.5t-151.5 77t-90 106.5t-27 147q0 176 144.5 286t385.5 110z" />
    <glyph glyph-name="scaron" unicode="&#x161;" horiz-adv-x="1030" 
d="M168 1585q112 -20 204.5 -92t137.5 -170q45 98 138 170t204 92v-86q-183 -75 -246 -332h-190q-33 129 -93 211t-155 121v86zM522 -29q-214 0 -321 91.5t-107 240.5v31h178v-21q0 -85 64.5 -136.5t189.5 -51.5q104 0 161.5 38t57.5 103q0 59 -53 91t-203 61
q-198 33 -286 98t-88 189q0 127 107.5 211.5t291.5 84.5q195 0 300.5 -86t105.5 -229v-22h-179v12q0 81 -59.5 127.5t-171.5 46.5q-92 0 -149.5 -37t-57.5 -96q0 -57 56 -88.5t200 -59.5q203 -35 291 -100t88 -193q0 -134 -111 -219.5t-305 -85.5z" />
    <glyph glyph-name="Tcommaaccent" unicode="&#x162;" horiz-adv-x="1310" 
d="M72 1364h1165v-188h-471v-1176h-221v1176h-473v188zM547 -197h219v-190q0 -116 -69 -189.5t-201 -99.5v60q80 24 125.5 77.5t44.5 130.5h-119v211z" />
    <glyph glyph-name="Tcommaaccent" unicode="&#x21a;" horiz-adv-x="1310" 
d="M72 1364h1165v-188h-471v-1176h-221v1176h-473v188zM547 -197h219v-190q0 -116 -69 -189.5t-201 -99.5v60q80 24 125.5 77.5t44.5 130.5h-119v211z" />
    <glyph glyph-name="tcommaaccent" unicode="&#x163;" horiz-adv-x="813" 
d="M59 975h177v209l206 53v-262h306v-158h-306v-471q0 -108 40 -149t145 -41h63v-156h-115q-175 0 -257 74.5t-82 236.5v506h-177v158zM338 -199h219v-190q0 -116 -69 -188t-201 -99v60q80 24 125 77t45 131h-119v209z" />
    <glyph glyph-name="tcommaaccent" unicode="&#x21b;" horiz-adv-x="813" 
d="M59 975h177v209l206 53v-262h306v-158h-306v-471q0 -108 40 -149t145 -41h63v-156h-115q-175 0 -257 74.5t-82 236.5v506h-177v158zM338 -199h219v-190q0 -116 -69 -188t-201 -99v60q80 24 125 77t45 131h-119v209z" />
    <glyph glyph-name="Tcaron" unicode="&#x164;" horiz-adv-x="1310" 
d="M291 1935q121 -22 217 -84.5t147 -138.5q54 77 150.5 139t216.5 84v-88q-197 -74 -258 -278h-217q-58 204 -256 278v88zM72 1364h1165v-188h-471v-1176h-221v1176h-473v188z" />
    <glyph glyph-name="tcaron" unicode="&#x165;" horiz-adv-x="813" 
d="M614 1477h187l-99 -363h-106zM59 975h177v209l206 53v-262h306v-158h-306v-471q0 -108 40 -149t145 -41h63v-156h-115q-175 0 -257 74.5t-82 236.5v506h-177v158z" />
    <glyph glyph-name="Umacron" unicode="&#x16a;" horiz-adv-x="1462" 
d="M389 1726h684v-133h-684v133zM172 1364h219v-850q0 -170 90 -261t254 -91t254 91t90 261v850h211v-848q0 -262 -145 -403.5t-416 -141.5q-269 0 -413 141.5t-144 403.5v848z" />
    <glyph glyph-name="umacron" unicode="&#x16b;" horiz-adv-x="1191" 
d="M254 1323h674v-135h-674v135zM150 975h206v-629q0 -92 50 -146.5t143 -54.5q116 0 197 80t81 178v572h207v-975h-176l-18 195q-71 -106 -159 -163t-208 -57q-150 0 -236.5 91.5t-86.5 246.5v662z" />
    <glyph glyph-name="Ubreve" unicode="&#x16c;" horiz-adv-x="1462" 
d="M731 1690q227 0 227 129q0 33 -12 88h86q29 -71 29 -140q0 -113 -90.5 -174t-239.5 -61t-239.5 61t-90.5 174q0 65 27 140h86q-10 -62 -10 -88q0 -129 227 -129zM172 1364h219v-850q0 -170 90 -261t254 -91t254 91t90 261v850h211v-848q0 -262 -145 -403.5t-416 -141.5
q-269 0 -413 141.5t-144 403.5v848z" />
    <glyph glyph-name="ubreve" unicode="&#x16d;" horiz-adv-x="1191" 
d="M592 1290q103 0 153 36.5t50 113.5q0 42 -11 104h90q23 -90 23 -155q0 -127 -83.5 -194t-221.5 -67q-140 0 -223.5 67t-83.5 194q0 69 22 155h90q-10 -75 -10 -104q0 -78 50 -114t155 -36zM150 975h206v-629q0 -92 50 -146.5t143 -54.5q116 0 197 80t81 178v572h207v-975
h-176l-18 195q-71 -106 -159 -163t-208 -57q-150 0 -236.5 91.5t-86.5 246.5v662z" />
    <glyph glyph-name="Uring" unicode="&#x16e;" horiz-adv-x="1462" 
d="M731 1964q115 0 184.5 -65t69.5 -158q0 -94 -69.5 -158.5t-184.5 -64.5q-114 0 -184 64.5t-70 158.5q0 92 70 157.5t184 65.5zM731 1872q-69 0 -110 -37.5t-41 -93.5q0 -57 41 -95t110 -38q70 0 111 38t41 95q0 56 -41 93.5t-111 37.5zM172 1364h219v-850q0 -170 90 -261
t254 -91t254 91t90 261v850h211v-848q0 -262 -145 -403.5t-416 -141.5q-269 0 -413 141.5t-144 403.5v848z" />
    <glyph glyph-name="uring" unicode="&#x16f;" horiz-adv-x="1191" 
d="M592 1559q110 0 180 -65.5t70 -158.5q0 -94 -70 -158.5t-180 -64.5q-112 0 -181 64t-69 159q0 93 69.5 158.5t180.5 65.5zM592 1468q-67 0 -107.5 -38.5t-40.5 -94.5q0 -57 40.5 -95t107.5 -38q66 0 106.5 38t40.5 95q0 56 -40.5 94.5t-106.5 38.5zM150 975h206v-629
q0 -92 50 -146.5t143 -54.5q116 0 197 80t81 178v572h207v-975h-176l-18 195q-71 -106 -159 -163t-208 -57q-150 0 -236.5 91.5t-86.5 246.5v662z" />
    <glyph glyph-name="Uhungarumlaut" unicode="&#x170;" horiz-adv-x="1462" 
d="M903 1907l-307 -357h-129l223 357h213zM1266 1907l-308 -357h-127l222 357h213zM172 1364h219v-850q0 -170 90 -261t254 -91t254 91t90 261v850h211v-848q0 -262 -145 -403.5t-416 -141.5q-269 0 -413 141.5t-144 403.5v848z" />
    <glyph glyph-name="uhungarumlaut" unicode="&#x171;" horiz-adv-x="1191" 
d="M778 1552l-311 -405h-123l221 405h213zM1137 1552l-314 -405h-121l222 405h213zM150 975h206v-629q0 -92 50 -146.5t143 -54.5q116 0 197 80t81 178v572h207v-975h-176l-18 195q-71 -106 -159 -163t-208 -57q-150 0 -236.5 91.5t-86.5 246.5v662z" />
    <glyph glyph-name="Uogonek" unicode="&#x172;" horiz-adv-x="1462" 
d="M997 -485q-90 -66 -211 -66q-108 0 -170.5 52.5t-62.5 140.5q0 63 29 122q34 65 168 207h-21q-269 0 -413 141.5t-144 403.5v848h219v-850q0 -170 90 -261t254 -91t254 91t90 261v850h211v-848q0 -229 -111.5 -366.5t-322.5 -169.5q-77 -106 -108 -170q-35 -69 -35 -134
q0 -59 32.5 -88.5t90.5 -29.5q64 0 120 34z" />
    <glyph glyph-name="uogonek" unicode="&#x173;" horiz-adv-x="1191" 
d="M1141 -485q-90 -66 -211 -66q-107 0 -171.5 52.5t-64.5 140.5q0 52 31 116q22 45 63.5 94.5t141.5 147.5h-72l-18 195q-71 -106 -159 -163t-208 -57q-150 0 -236.5 91.5t-86.5 246.5v662h206v-629q0 -92 50 -146.5t143 -54.5q116 0 197 80t81 178v572h207v-975h-2
q-113 -140 -147 -209q-31 -64 -31 -117q0 -57 33 -86.5t92 -29.5q65 0 121 34z" />
    <glyph glyph-name="Wcircumflex" unicode="&#x174;" horiz-adv-x="2097" 
d="M948 1907h217q58 -205 256 -279v-88q-121 22 -217 85t-147 140q-54 -78 -150 -140.5t-217 -84.5v88q196 74 258 279zM86 1364h231l297 -1081h4l334 1085h201l336 -1085h4l295 1081h223l-414 -1376h-215l-333 1056h-5l-333 -1056h-215z" />
    <glyph glyph-name="wcircumflex" unicode="&#x175;" horiz-adv-x="1628" 
d="M727 1548h191q66 -255 247 -329v-86q-112 20 -204.5 91.5t-137.5 168.5q-45 -97 -138 -168.5t-204 -91.5v86q183 75 246 329zM49 975h213l223 -742h4l232 742h192l236 -742h4l223 742h201l-328 -981h-190l-244 735h-4l-242 -735h-190z" />
    <glyph glyph-name="Ycircumflex" unicode="&#x176;" horiz-adv-x="1361" 
d="M580 1892h217q61 -204 256 -278v-88q-120 22 -217.5 85t-147.5 140q-51 -77 -148 -140t-218 -85v88q197 74 258 278zM49 1364h248l389 -647l385 647h240l-520 -838v-526h-220v528z" />
    <glyph glyph-name="ycircumflex" unicode="&#x177;" horiz-adv-x="1083" 
d="M459 1538h188q65 -255 248 -330v-86q-112 18 -204.5 90t-137.5 170q-45 -98 -137.5 -170t-204.5 -90v86q183 75 248 330zM51 975h217l287 -760h4l277 760h208l-376 -946q-42 -101 -77.5 -162t-85.5 -108t-114.5 -66t-157.5 -19h-83v158h38q99 0 153 31t83 104l18 43z" />
    <glyph glyph-name="Ydieresis" unicode="&#x178;" horiz-adv-x="1361" 
d="M385 1767h199v-204h-199v204zM793 1767h198v-204h-198v204zM49 1364h248l389 -647l385 647h240l-520 -838v-526h-220v528z" />
    <glyph glyph-name="Zacute" unicode="&#x179;" horiz-adv-x="1300" 
d="M1036 1917l-342 -356h-145l237 356h250zM131 1364h1077v-119l-807 -1055h793v-190h-1102v121l813 1059h-774v184z" />
    <glyph glyph-name="zacute" unicode="&#x17a;" horiz-adv-x="1021" 
d="M889 1563l-346 -406h-137l235 406h248zM115 975h821v-109l-574 -700h562v-166h-832v111l576 704h-553v160z" />
    <glyph glyph-name="Zdotaccent" unicode="&#x17b;" horiz-adv-x="1300" 
d="M543 1765h229v-192h-229v192zM131 1364h1077v-119l-807 -1055h793v-190h-1102v121l813 1059h-774v184z" />
    <glyph glyph-name="zdotaccent" unicode="&#x17c;" horiz-adv-x="1021" 
d="M406 1360h229v-193h-229v193zM115 975h821v-109l-574 -700h562v-166h-832v111l576 704h-553v160z" />
    <glyph glyph-name="Zcaron" unicode="&#x17d;" horiz-adv-x="1300" 
d="M293 1935q119 -22 216 -84.5t148 -138.5q51 76 148.5 138.5t218.5 84.5v-88q-197 -74 -258 -278h-217q-61 204 -256 278v88zM131 1364h1077v-119l-807 -1055h793v-190h-1102v121l813 1059h-774v184z" />
    <glyph glyph-name="zcaron" unicode="&#x17e;" horiz-adv-x="1021" 
d="M178 1577q112 -18 204.5 -90t137.5 -170q45 97 138.5 169.5t203.5 90.5v-86q-95 -39 -155 -120.5t-91 -209.5h-190q-65 255 -248 330v86zM115 975h821v-109l-574 -700h562v-166h-832v111l576 704h-553v160z" />
    <glyph glyph-name="Aringacute" unicode="&#x1fa;" horiz-adv-x="1466" 
d="M1147 2177l-342 -356h-146l238 356h250zM1163 0l-121 313h-628l-121 -313h-221l518 1317q-53 29 -82 79t-29 109q0 93 69.5 158.5t182.5 65.5q115 0 184.5 -65.5t69.5 -158.5q0 -59 -28 -109t-80 -79l518 -1317h-232zM731 1636q-68 0 -108.5 -37.5t-40.5 -93.5
q0 -57 40 -95t109 -38q70 0 111 38t41 95q0 56 -41 93.5t-111 37.5zM727 1130l-250 -649h500z" />
    <glyph glyph-name="aringacute" unicode="&#x1fb;" horiz-adv-x="1112" 
d="M965 2091l-349 -408h-137l238 408h248zM549 1577q111 0 180.5 -65t69.5 -158q0 -95 -69.5 -160.5t-180.5 -65.5t-180.5 65.5t-69.5 160.5q0 93 69.5 158t180.5 65zM549 1485q-66 0 -107 -38t-41 -93q0 -57 41 -95t107 -38t106.5 38t40.5 95q0 55 -40.5 93t-106.5 38z
M760 178q-134 -196 -369 -196q-138 0 -214.5 68t-76.5 192q0 83 36.5 142.5t119.5 100.5q150 75 496 97v59q0 197 -209 197q-103 0 -159 -45t-56 -127v-13h-187v19q0 144 104 238t304 94q201 0 302 -96.5t101 -272.5v-385q0 -75 22.5 -97.5t94.5 -25.5v-133h-76
q-109 0 -164 39.5t-69 144.5zM301 258q0 -63 39 -98t117 -35q115 0 205 75.5t90 168.5v100q-260 -20 -357 -68q-53 -26 -73.5 -60t-20.5 -83z" />
    <glyph glyph-name="AEacute" unicode="&#x1fc;" horiz-adv-x="2093" 
d="M1513 1917l-342 -356h-145l238 356h249zM-27 0l895 1364h1117v-182h-781v-404h613v-174h-613v-422h783v-182h-1000v322h-565l-209 -322h-240zM983 1192l-459 -711h463v711h-4z" />
    <glyph glyph-name="aeacute" unicode="&#x1fd;" horiz-adv-x="1761" 
d="M1253 1563l-348 -406h-135l236 406h247zM1667 299q0 -142 -115.5 -235t-312.5 -93q-161 0 -264.5 62.5t-149.5 175.5q-64 -118 -171.5 -176t-245.5 -58q-148 0 -228 69t-80 194q0 83 35.5 142.5t118.5 100.5q151 74 498 99v63q0 97 -50 144t-157 47q-102 0 -158.5 -45
t-56.5 -125v-13h-189v21q0 143 103 236t299 93q257 0 336 -176q120 179 352 179q111 0 196 -36.5t137 -101.5t78.5 -151t26.5 -189v-84h-711v-14q0 -137 70 -214t215 -77q113 0 177.5 50t64.5 120v2h182v-10zM1225 840q-123 0 -192 -73t-75 -204h517q-5 131 -66 204t-184 73
zM301 254q0 -63 40 -99t118 -36q122 0 207.5 75t85.5 183v88q-255 -17 -357 -68q-53 -26 -73.5 -60.5t-20.5 -82.5z" />
    <glyph glyph-name="Oslashacute" unicode="&#x1fe;" horiz-adv-x="1507" 
d="M1130 1927l-339 -356h-146l236 356h249zM754 -31q-233 0 -387 109l-142 -174l-98 78l143 184q-139 168 -139 442v148q0 302 166 470.5t457 168.5q233 0 387 -109l141 174l98 -78l-143 -184q139 -164 139 -442v-148q0 -303 -165 -471t-457 -168zM348 596q0 -153 62 -264
l604 798q-100 80 -260 80q-191 0 -298.5 -115t-107.5 -327v-172zM1159 768q0 160 -61 264l-604 -799q98 -79 260 -79q191 0 298 115t107 327v172z" />
    <glyph glyph-name="oslashacute" unicode="&#x1ff;" horiz-adv-x="1134" 
d="M936 1571l-348 -406h-135l235 406h248zM567 -31q-165 0 -284 80l-117 -139l-84 65l119 146q-109 128 -109 321v84q0 217 129.5 348.5t347.5 131.5q164 0 283 -80l117 139l84 -66l-119 -147q106 -124 106 -326v-82q0 -216 -130 -345.5t-343 -129.5zM289 424q0 -92 39 -162
l417 529q-72 57 -178 57q-130 0 -204 -82.5t-74 -216.5v-125zM846 549q0 94 -39 164l-416 -527q68 -59 176 -59q126 0 202.5 81.5t76.5 215.5v125z" />
    <glyph glyph-name="Scommaaccent" unicode="&#x218;" horiz-adv-x="1341" 
d="M680 1391q137 0 241.5 -32t168 -89.5t95.5 -131.5t32 -163v-37h-222v31q0 107 -78 175t-245 68q-138 0 -218.5 -56t-80.5 -148q0 -33 7.5 -58t27 -46t43.5 -36.5t69 -31.5t90.5 -29t118.5 -31q144 -32 235.5 -65t154 -80t88.5 -108t26 -148q0 -188 -149.5 -295
t-391.5 -107q-281 0 -423 116t-142 312v50h221v-35q0 -124 88 -194t264 -70q143 0 227.5 54t84.5 152q0 42 -12 72.5t-34.5 53.5t-70.5 43.5t-103.5 37t-148.5 39.5q-136 29 -224.5 60.5t-151.5 77t-90 106.5t-27 147q0 176 144.5 286t385.5 110zM571 -203h220v-190
q0 -116 -70.5 -189t-202.5 -100v59q82 24 126.5 77.5t43.5 133.5h-117v209z" />
    <glyph glyph-name="scommaaccent" unicode="&#x219;" horiz-adv-x="1030" 
d="M522 -29q-214 0 -321 91.5t-107 240.5v31h178v-21q0 -85 64.5 -136.5t189.5 -51.5q104 0 161.5 38t57.5 103q0 59 -53 91t-203 61q-198 33 -286 98t-88 189q0 127 107.5 211.5t291.5 84.5q195 0 300.5 -86t105.5 -229v-22h-179v12q0 81 -59.5 127.5t-171.5 46.5
q-92 0 -149.5 -37t-57.5 -96q0 -57 56 -88.5t200 -59.5q203 -35 291 -100t88 -193q0 -134 -111 -219.5t-305 -85.5zM401 -205h220v-190q0 -232 -271 -287v59q170 51 170 209h-119v209z" />
    <glyph glyph-name="schwa" unicode="&#x259;" horiz-adv-x="1093" 
d="M997 461q0 -215 -123 -352.5t-337 -137.5q-147 0 -249 64.5t-149 170t-47 243.5v86h713v14q0 135 -70 212t-215 77q-116 0 -180 -49t-64 -119v-4h-182v10q0 142 116 235t312 93q235 0 355 -129t120 -347v-67zM539 135q122 0 190.5 74.5t73.5 204.5h-516
q5 -132 66.5 -205.5t185.5 -73.5z" />
    <glyph glyph-name="circumflex" unicode="&#x2c6;" horiz-adv-x="1024" 
d="M418 1548h188q33 -128 93 -209t155 -120v-86q-112 18 -204.5 90t-137.5 170q-45 -98 -137.5 -170t-204.5 -90v86q95 39 155 120t93 209z" />
    <glyph glyph-name="caron" unicode="&#x2c7;" horiz-adv-x="1024" 
d="M170 1577q112 -18 204.5 -90t137.5 -170q45 98 137.5 170t204.5 90v-86q-183 -75 -248 -330h-188q-65 255 -248 330v86z" />
    <glyph glyph-name="breve" unicode="&#x2d8;" horiz-adv-x="1024" 
d="M512 1298q104 0 153.5 37t49.5 115q0 45 -8 102h88q24 -90 24 -153q0 -127 -84 -194.5t-223 -67.5t-223 67.5t-84 194.5q0 63 24 153h88q-8 -60 -8 -102q0 -78 49.5 -115t153.5 -37z" />
    <glyph glyph-name="dotaccent" unicode="&#x2d9;" horiz-adv-x="1024" 
d="M397 1360h230v-193h-230v193z" />
    <glyph glyph-name="ring" unicode="&#x2da;" horiz-adv-x="1024" 
d="M512 1569q111 0 180.5 -65t69.5 -158q0 -95 -69.5 -159.5t-180.5 -64.5t-180.5 64.5t-69.5 159.5q0 93 69.5 158t180.5 65zM512 1479q-66 0 -106.5 -38.5t-40.5 -94.5q0 -57 40.5 -95.5t106.5 -38.5t106.5 38.5t40.5 95.5q0 56 -40.5 94.5t-106.5 38.5z" />
    <glyph glyph-name="ogonek" unicode="&#x2db;" horiz-adv-x="1021" 
d="M709 -408l39 -77q-90 -66 -211 -66q-107 0 -170.5 52.5t-63.5 140.5q0 56 29 110q23 49 74 105.5t153 148.5l96 -6q-130 -150 -163 -215q-29 -57 -29 -111q0 -57 33 -86.5t90 -29.5q65 0 123 34z" />
    <glyph glyph-name="tilde" unicode="&#x2dc;" horiz-adv-x="1024" 
d="M342 1499q36 0 67 -10.5t60 -33.5t44.5 -38.5t43.5 -46.5q26 -30 41.5 -45t39 -29t46.5 -14q34 0 57 24.5t23 75.5t-12 107h92q24 -78 24 -148q0 -96 -52 -152t-134 -56q-60 0 -104.5 29t-92.5 81q-5 5 -18 19.5t-18 19.5t-16.5 17t-18 17t-17 12.5t-18.5 11t-18.5 6
t-20.5 2.5q-34 0 -57 -24.5t-23 -74.5q0 -51 12 -106h-92q-24 74 -24 145q0 98 52 154.5t134 56.5z" />
    <glyph glyph-name="hungarumlaut" unicode="&#x2dd;" horiz-adv-x="1024" 
d="M551 1563l-313 -406h-123l221 406h215zM907 1563l-311 -406h-123l221 406h213z" />
    <glyph glyph-name="commaaccent" unicode="&#x326;" horiz-adv-x="1024" 
d="M430 -197h219v-190q0 -116 -70 -189t-202 -100v60q81 24 126 77t44 131h-117v211z" />
    <glyph glyph-name="baht" unicode="&#xe3f;" horiz-adv-x="1419" 
d="M834 0h-33v-233h-170v233h-410v1364h414v233h172v-233h22q225 0 334 -90t109 -244v-41q0 -228 -248 -295v-6q268 -66 268 -303v-49q0 -156 -113 -246t-345 -90zM430 1200v-440h369q128 0 197 56t69 153v41q0 89 -65.5 139.5t-188.5 50.5h-381zM430 616v-452h395
q126 0 190 52t64 144v43q0 98 -70.5 155.5t-207.5 57.5h-371z" />
    <glyph glyph-name="Wgrave" unicode="&#x1e80;" horiz-adv-x="2097" 
d="M639 1921h250l235 -356h-145zM86 1364h231l297 -1081h4l334 1085h201l336 -1085h4l295 1081h223l-414 -1376h-215l-333 1056h-5l-333 -1056h-215z" />
    <glyph glyph-name="wgrave" unicode="&#x1e81;" horiz-adv-x="1628" 
d="M401 1563h248l236 -406h-137zM49 975h213l223 -742h4l232 742h192l236 -742h4l223 742h201l-328 -981h-190l-244 735h-4l-242 -735h-190z" />
    <glyph glyph-name="Wacute" unicode="&#x1e82;" horiz-adv-x="2097" 
d="M1468 1921l-342 -356h-145l238 356h249zM86 1364h231l297 -1081h4l334 1085h201l336 -1085h4l295 1081h223l-414 -1376h-215l-333 1056h-5l-333 -1056h-215z" />
    <glyph glyph-name="wacute" unicode="&#x1e83;" horiz-adv-x="1628" 
d="M1233 1563l-348 -406h-135l235 406h248zM49 975h213l223 -742h4l232 742h192l236 -742h4l223 742h201l-328 -981h-190l-244 735h-4l-242 -735h-190z" />
    <glyph glyph-name="Wdieresis" unicode="&#x1e84;" horiz-adv-x="2097" 
d="M754 1782h198v-205h-198v205zM1159 1782h199v-205h-199v205zM86 1364h231l297 -1081h4l334 1085h201l336 -1085h4l295 1081h223l-414 -1376h-215l-333 1056h-5l-333 -1056h-215z" />
    <glyph glyph-name="wdieresis" unicode="&#x1e85;" horiz-adv-x="1628" 
d="M532 1374h199v-205h-199v205zM913 1374h199v-205h-199v205zM49 975h213l223 -742h4l232 742h192l236 -742h4l223 742h201l-328 -981h-190l-244 735h-4l-242 -735h-190z" />
    <glyph glyph-name="Ygrave" unicode="&#x1ef2;" horiz-adv-x="1361" 
d="M330 1907h248l237 -357h-145zM49 1364h248l389 -647l385 647h240l-520 -838v-526h-220v528z" />
    <glyph glyph-name="ygrave" unicode="&#x1ef3;" horiz-adv-x="1083" 
d="M217 1552h248l235 -405h-135zM51 975h217l287 -760h4l277 760h208l-376 -946q-42 -101 -77.5 -162t-85.5 -108t-114.5 -66t-157.5 -19h-83v158h38q99 0 153 31t83 104l18 43z" />
    <glyph glyph-name="enspace" unicode="&#x2002;" horiz-adv-x="1024" 
 />
    <glyph glyph-name="emspace" unicode="&#x2003;" horiz-adv-x="2048" 
 />
    <glyph glyph-name="threeperemspace" unicode="&#x2004;" horiz-adv-x="681" 
 />
    <glyph glyph-name="fourperemspace" unicode="&#x2005;" horiz-adv-x="512" 
 />
    <glyph glyph-name="thinspace" unicode="&#x2009;" horiz-adv-x="272" 
 />
    <glyph glyph-name="hairspace" unicode="&#x200a;" horiz-adv-x="153" 
 />
    <glyph glyph-name="endash" unicode="&#x2013;" horiz-adv-x="1277" 
d="M156 698h966v-161h-966v161z" />
    <glyph glyph-name="emdash" unicode="&#x2014;" horiz-adv-x="1869" 
d="M160 698h1550v-161h-1550v161z" />
    <glyph glyph-name="quoteleft" unicode="&#x2018;" horiz-adv-x="489" 
d="M358 793h-235v182q0 175 70.5 265.5t222.5 131.5v-67q-98 -53 -131 -107.5t-33 -155.5h106v-249z" />
    <glyph glyph-name="quoteright" unicode="&#x2019;" horiz-adv-x="489" 
d="M131 1364h236v-182q0 -176 -70.5 -266.5t-222.5 -131.5v68q98 53 131 107t33 155h-107v250z" />
    <glyph glyph-name="quotesinglbase" unicode="&#x201a;" horiz-adv-x="481" 
d="M125 250h235v-184q0 -174 -70 -264.5t-220 -131.5v66q97 53 129 107t32 157h-106v250z" />
    <glyph glyph-name="quotedblleft" unicode="&#x201c;" horiz-adv-x="894" 
d="M766 793h-238v182q0 175 70.5 265.5t222.5 131.5v-67q-98 -53 -131 -107.5t-33 -155.5h109v-249zM358 793h-235v182q0 175 70.5 265.5t222.5 131.5v-67q-98 -53 -131 -107.5t-33 -155.5h106v-249z" />
    <glyph glyph-name="quotedblright" unicode="&#x201d;" horiz-adv-x="894" 
d="M131 1364h236v-182q0 -176 -70.5 -266.5t-222.5 -131.5v68q98 53 131 107t33 155h-107v250zM537 1364h235v-182q0 -176 -70.5 -266.5t-222.5 -131.5v68q98 53 131 107t33 155h-106v250z" />
    <glyph glyph-name="quotedblbase" unicode="&#x201e;" horiz-adv-x="888" 
d="M125 250h237v-182q0 -176 -70 -266.5t-222 -131.5v66q97 55 129 108.5t34 155.5h-108v250zM530 250h238v-182q0 -176 -70.5 -266.5t-222.5 -131.5v66q98 55 131 109t33 155h-109v250z" />
    <glyph glyph-name="dagger" unicode="&#x2020;" horiz-adv-x="972" 
d="M408 690q0 134 41 275q-109 -35 -312 -35q-33 0 -33 28v84q0 14 10.5 21.5t22.5 7.5q198 0 312 -35q-39 159 -39 297q0 12 8 21.5t24 9.5h88q16 0 23.5 -9.5t7.5 -21.5q0 -150 -39 -297q114 35 314 35q12 0 21 -7.5t9 -21.5v-84q0 -28 -30 -28q-203 0 -314 35
q41 -141 41 -275q0 -177 -31 -454q-3 -31 -26 -31h-41q-20 0 -27 31q-30 268 -30 454z" />
    <glyph glyph-name="daggerdbl" unicode="&#x2021;" horiz-adv-x="972" 
d="M420 784q0 65 29 181q-109 -35 -312 -35q-33 0 -33 28v84q0 14 10.5 21.5t22.5 7.5q198 0 312 -35q-39 159 -39 297q0 12 8 21.5t24 9.5h88q16 0 23.5 -9.5t7.5 -21.5q0 -150 -39 -297q114 35 314 35q12 0 21 -7.5t9 -21.5v-84q0 -28 -30 -28q-203 0 -314 35
q31 -124 31 -181q0 -56 -31 -180q111 35 314 35q30 0 30 -29v-84q0 -14 -9 -21t-21 -7q-203 0 -314 34q39 -147 39 -296q0 -12 -7.5 -21.5t-23.5 -9.5h-88q-16 0 -24 9.5t-8 21.5q0 137 39 296q-111 -34 -312 -34q-12 0 -22.5 7t-10.5 21v84q0 29 33 29q203 0 312 -35
q-29 116 -29 180z" />
    <glyph glyph-name="bullet" unicode="&#x2022;" horiz-adv-x="759" 
d="M651 682q0 -120 -76 -197t-194 -77q-120 0 -196 77t-76 197t76 197t196 77q118 0 194 -77t76 -197z" />
    <glyph glyph-name="ellipsis" unicode="&#x2026;" horiz-adv-x="1454" 
d="M125 250h231v-250h-231v250zM1100 250h229v-250h-229v250zM612 250h230v-250h-230v250z" />
    <glyph glyph-name="guilsinglleft" unicode="&#x2039;" horiz-adv-x="788" 
d="M543 969h116q-62 -288 -315 -482q253 -194 315 -481h-116q-112 283 -437 424v115q325 141 437 424z" />
    <glyph glyph-name="guilsinglright" unicode="&#x203a;" horiz-adv-x="788" 
d="M246 6h-117q62 287 315 481q-253 194 -315 482h117q108 -282 436 -424v-115q-328 -142 -436 -424z" />
    <glyph glyph-name="fraction" unicode="&#x2044;" horiz-adv-x="344" 
d="M721 1364l-967 -1364h-135l967 1364h135z" />
    <glyph glyph-name="zero.sup" unicode="&#x2070;" 
d="M418 1442q172 0 268 -105t96 -288v-78q0 -183 -96 -288t-268 -105t-269.5 105.5t-97.5 287.5v78q0 182 97.5 287.5t269.5 105.5zM418 1305q-100 0 -153.5 -68.5t-53.5 -192.5v-71q0 -124 53 -191t154 -67q100 0 152.5 67t52.5 191v71q0 124 -52.5 192.5t-152.5 68.5z" />
    <glyph glyph-name="four.sup" unicode="&#x2074;" 
d="M467 1421h195v-522h129v-121h-129v-180h-148v180h-487v123zM514 899v397l-336 -397h336z" />
    <glyph glyph-name="five.sup" unicode="&#x2075;" 
d="M133 1421h606q-6 -82 -29.5 -109.5t-93.5 -27.5h-348l-20 -240q107 76 239 76q131 0 202 -67t71 -183v-8q0 -124 -87.5 -203t-250.5 -79q-175 0 -255.5 70.5t-80.5 180.5v11h154v-4q0 -58 46.5 -94.5t133.5 -36.5q83 0 131.5 43t48.5 112v6q0 62 -41.5 103t-124.5 41
q-120 0 -205 -74l-129 27z" />
    <glyph glyph-name="six.sup" unicode="&#x2076;" 
d="M418 578q-169 0 -258.5 88t-89.5 260v131q0 177 92.5 278t275.5 101q87 0 152 -22.5t99.5 -59.5t50.5 -76t16 -80v-8h-156v2q0 47 -39.5 82t-120.5 35q-219 0 -219 -240v-53q86 92 246 92q143 0 221 -68t78 -174v-6q0 -122 -91 -202t-257 -80zM418 709q87 0 137.5 40.5
t50.5 104.5v6q0 59 -47.5 99t-136.5 40q-88 0 -141.5 -37.5t-53.5 -99.5v-2q0 -71 52.5 -111t138.5 -40z" />
    <glyph glyph-name="seven.sup" unicode="&#x2077;" 
d="M72 1421h706v-94q-169 -172 -256 -346t-112 -383h-183q23 189 113 354t260 326h-528v143z" />
    <glyph glyph-name="eight.sup" unicode="&#x2078;" 
d="M418 1442q164 0 254 -68.5t90 -173.5v-2q0 -129 -160 -184q86 -27 129 -78t43 -119v-6q0 -107 -94 -171.5t-262 -64.5q-170 0 -263.5 64.5t-93.5 171.5v6q0 68 43 119t129 78q-159 54 -159 184v2q0 105 89.5 173.5t254.5 68.5zM418 1315q-86 0 -136.5 -35.5t-50.5 -91.5
v-4q0 -54 52.5 -87.5t134.5 -33.5t133 33.5t51 87.5v4q0 56 -49.5 91.5t-134.5 35.5zM418 705q93 0 144.5 36t51.5 93v4q0 56 -53 90.5t-143 34.5t-143.5 -34.5t-53.5 -90.5v-4q0 -58 52 -93.5t145 -35.5z" />
    <glyph glyph-name="nine.sup" unicode="&#x2079;" 
d="M418 1440q170 0 260 -88.5t90 -257.5v-131q0 -179 -93.5 -280t-279.5 -101q-88 0 -153.5 22t-100 57.5t-51 74t-16.5 79.5v8h155v-2q0 -43 37.5 -77.5t126.5 -34.5q119 0 170 62t51 179v47q-30 -36 -90.5 -64t-158.5 -28q-141 0 -219 68t-78 172v12q0 123 91 203t259 80z
M418 1309q-88 0 -139.5 -42t-51.5 -104v-12q0 -58 48.5 -97.5t138.5 -39.5q85 0 140.5 37t55.5 98v6q0 71 -52.5 112.5t-139.5 41.5z" />
    <glyph glyph-name="zero.inf" unicode="&#x2080;" 
d="M418 522q172 0 268 -105t96 -288v-78q0 -183 -96 -288t-268 -105t-269.5 105.5t-97.5 287.5v78q0 182 97.5 287.5t269.5 105.5zM418 385q-101 0 -154 -67t-53 -191v-74q0 -124 53 -191t154 -67q100 0 152.5 67t52.5 191v74q0 124 -52.5 191t-152.5 67z" />
    <glyph glyph-name="one.inf" unicode="&#x2081;" horiz-adv-x="653" 
d="M336 510h115v-832h-166v598h-199v119h55q95 0 138.5 25.5t56.5 89.5z" />
    <glyph glyph-name="two.inf" unicode="&#x2082;" 
d="M743 -322h-663v46q0 103 28.5 169t93 115t189.5 103q126 54 164.5 85t38.5 83q0 56 -46 84t-120 28q-89 0 -140.5 -38.5t-51.5 -108.5v-23h-152v31q0 121 91 193.5t259 72.5q157 0 239.5 -64t82.5 -169q0 -94 -63 -149.5t-234 -131.5q-122 -52 -163 -88.5t-44 -101.5h491
v-136z" />
    <glyph glyph-name="three.inf" unicode="&#x2083;" 
d="M424 518q156 0 244 -66t88 -163v-4q0 -68 -49 -119.5t-142 -69.5q99 -17 148 -68t49 -126v-2q0 -102 -89.5 -170t-250.5 -68q-183 0 -267.5 70.5t-84.5 181.5v27h149v-19q0 -62 48.5 -98.5t148.5 -36.5q84 0 134 33.5t50 91.5v4q0 121 -203 121h-94v110h94
q101 0 151 34.5t50 84.5v6q0 55 -50 88t-132 33q-96 0 -145.5 -38t-49.5 -95v-20h-151v28q0 49 20 92t60.5 79.5t111 57.5t162.5 21z" />
    <glyph glyph-name="four.inf" unicode="&#x2084;" 
d="M467 502h195v-522h129v-121h-129v-181h-148v181h-487v123zM514 -20v397l-336 -397h336z" />
    <glyph glyph-name="five.inf" unicode="&#x2085;" 
d="M133 502h606q-6 -82 -29.5 -109.5t-93.5 -27.5h-348l-20 -240q107 76 239 76q131 0 202 -67t71 -183v-8q0 -124 -87.5 -202.5t-250.5 -78.5q-175 0 -255.5 70t-80.5 180v10h154v-4q0 -58 46.5 -94.5t133.5 -36.5q83 0 131.5 43.5t48.5 112.5v6q0 62 -41.5 103.5
t-124.5 41.5q-118 0 -205 -76l-129 27z" />
    <glyph glyph-name="six.inf" unicode="&#x2086;" 
d="M418 -342q-169 0 -258.5 88t-89.5 260v131q0 177 93 279t275 102q70 0 126.5 -15.5t91.5 -40t58 -56.5t32.5 -63.5t9.5 -63.5v-9h-156v2q0 47 -39.5 82t-120.5 35q-116 0 -167.5 -62t-51.5 -177v-54q86 92 246 92q143 0 221 -67.5t78 -173.5v-6q0 -122 -91 -202.5
t-257 -80.5zM418 -211q87 0 137.5 40.5t50.5 104.5v7q0 60 -47.5 100.5t-136.5 40.5q-87 0 -141 -38.5t-54 -100.5v-2q0 -71 52.5 -111.5t138.5 -40.5z" />
    <glyph glyph-name="seven.inf" unicode="&#x2087;" 
d="M72 502h706v-94q-169 -172 -256 -346.5t-112 -383.5h-183q23 189 113 354t260 326h-528v144z" />
    <glyph glyph-name="eight.inf" unicode="&#x2088;" 
d="M418 522q164 0 254 -68t90 -173v-2q0 -130 -160 -185q86 -27 129 -77.5t43 -118.5v-4q0 -108 -93.5 -173t-262.5 -65q-170 0 -263.5 65t-93.5 173v4q0 68 43 118.5t129 77.5q-159 54 -159 185v2q0 105 89.5 173t254.5 68zM418 395q-86 0 -136.5 -35.5t-50.5 -91.5v-4
q0 -54 52.5 -87.5t134.5 -33.5t133 33.5t51 87.5v4q0 56 -49.5 91.5t-134.5 35.5zM418 -215q93 0 144.5 36t51.5 93v4q0 56 -53 90.5t-143 34.5t-143.5 -34.5t-53.5 -90.5v-4q0 -58 52 -93.5t145 -35.5z" />
    <glyph glyph-name="nine.inf" unicode="&#x2089;" 
d="M418 520q170 0 260 -87.5t90 -258.5v-131q0 -179 -93.5 -280t-279.5 -101q-88 0 -153.5 22t-100 58t-51 74.5t-16.5 79.5v8h155v-2q0 -44 37.5 -78.5t126.5 -34.5q119 0 170 62.5t51 179.5v47q-30 -36 -90.5 -64t-158.5 -28q-141 0 -219 67.5t-78 171.5v13
q0 123 91 202.5t259 79.5zM418 389q-88 0 -139.5 -41.5t-51.5 -103.5v-13q0 -57 48.5 -97t138.5 -40q84 0 140 38t56 97v7q0 71 -52.5 112t-139.5 41z" />
    <glyph glyph-name="colonmonetary" unicode="&#x20a1;" horiz-adv-x="1423" 
d="M748 -31q-91 0 -185 23l-45 -234h-123l56 277q-150 73 -233 221t-83 342v168q0 177 68.5 316t200.5 221.5t309 89.5l41 204h118l-38 -206q112 -12 190 -48l49 254h119l-62 -315q83 -63 124.5 -152t41.5 -192v-59h-211v51q0 118 -88 202.5t-247 84.5q-188 0 -294 -123.5
t-106 -315.5v-192q0 -190 107 -314.5t293 -124.5q158 0 246.5 85t88.5 202v51h211v-59q0 -164 -106.5 -288t-308.5 -158l-45 -222h-119l41 211h-10z" />
    <glyph glyph-name="naira" unicode="&#x20a6;" horiz-adv-x="1775" 
d="M528 1061l2 -1061h-190v446h-264v119h264v203h-264v119h264v477h223l676 -1059h4l-2 1059h193v-477h264v-119h-264v-203h264v-119h-264v-446h-224l-678 1061h-4z" />
    <glyph glyph-name="rupee" unicode="&#x20a8;" horiz-adv-x="2392" 
d="M430 539v-539h-209v1364h606q223 0 338 -98.5t115 -276.5v-69q0 -139 -85.5 -236t-236.5 -131l365 -553h-236l-346 539h-311zM430 709h352q139 0 213 58t74 159v53q0 107 -65.5 160t-206.5 53h-367v-483zM1853 -29q-214 0 -321 91.5t-107 240.5v31h179v-21q0 -86 64 -137
t190 -51q104 0 161.5 38t57.5 103q0 59 -53 91t-203 61q-198 33 -286.5 98.5t-88.5 188.5q0 127 107.5 211.5t291.5 84.5q193 0 298.5 -86t105.5 -229v-22h-178v12q0 81 -59.5 127.5t-170.5 46.5q-92 0 -149.5 -37t-57.5 -96q0 -57 55.5 -88.5t200.5 -59.5
q202 -35 289.5 -99.5t87.5 -193.5q0 -135 -110 -220t-304 -85z" />
    <glyph glyph-name="won" unicode="&#x20a9;" horiz-adv-x="2056" 
d="M1024 1094l-268 -1102h-226l-102 440h-350v119h321l-45 197h-276v118h248l-117 498h203l245 -1114h5l266 1120h213l266 -1120h4l248 1114h188l-118 -498h249v-118h-278l-45 -197h323v-119h-352l-104 -440h-228l-266 1102h-4z" />
    <glyph glyph-name="sheqel" unicode="&#x20aa;" horiz-adv-x="1572" 
d="M147 1057h510q202 0 297 -80t95 -248v-377h-131v328q0 100 -53.5 151.5t-180.5 51.5h-356v-883h-181v1057zM1442 1057v-723q0 -334 -389 -334h-500v707h131v-531h344q126 0 179 50.5t53 156.5v674h182z" />
    <glyph glyph-name="Euro" unicode="&#x20ac;" horiz-adv-x="1505" 
d="M1376 410q0 -83 -34 -160.5t-99 -141t-171 -101.5t-238 -38q-257 0 -413.5 132.5t-187.5 379.5h-161v111h155v4v172v2h-155v111h161q31 248 188 381t415 133q133 0 238.5 -38t170 -101t98 -140.5t33.5 -161.5v-12h-205v2q0 49 -20 96t-59.5 87t-105.5 65t-150 25
q-170 0 -270.5 -85t-123.5 -251h566v-111h-572v-178h572v-111h-566q25 -163 126 -248.5t268 -85.5q83 0 149 25t105.5 65t60 87t20.5 96h205v-10z" />
    <glyph glyph-name="peso" unicode="&#x20b1;" horiz-adv-x="1595" 
d="M508 492v-492h-213v858h-258v141h258v365h563q221 0 339.5 -97.5t129.5 -267.5h250v-141h-250q-9 -172 -129 -269t-344 -97h-346zM508 1198v-543h326q280 0 280 242v61q0 114 -69 177t-211 63h-326z" />
    <glyph glyph-name="rupeeindia" unicode="&#x20b9;" horiz-adv-x="1421" 
d="M563 510h-127l764 -510h-317l-727 500v143h352q170 0 256 55t104 166h-714v129h714q-14 112 -94 166.5t-250 54.5h-370v150h1187v-150h-401q119 -81 137 -215h266v-145h-264q-19 -166 -150 -255t-366 -89z" />
    <glyph glyph-name="ruble" unicode="&#x20bd;" horiz-adv-x="1458" 
d="M1206 262h-653v-262h-213v262h-264v121h264v195h-264v122h264v664h563q221 0 336 -96t115 -267v-63q0 -360 -455 -360h-346v-195h653v-121zM551 1196v-496h323q143 0 207 56t64 168v55q0 217 -268 217h-326z" />
    <glyph glyph-name="published" unicode="&#x2117;" horiz-adv-x="1810" 
d="M145 682q0 156 57 293t156.5 236t241.5 156.5t305 57.5t305 -57.5t241.5 -156.5t156.5 -236t57 -293t-57 -293t-156.5 -236t-241.5 -156.5t-305 -57.5t-305 57.5t-241.5 156.5t-156.5 236t-57 293zM1561 682q0 137 -48 257t-133 207t-208 137t-267 50
q-191 0 -340.5 -85.5t-231 -234t-81.5 -331.5q0 -136 48 -256t132.5 -207t207 -137.5t265.5 -50.5q144 0 267 50.5t208 137.5t133 207t48 256zM653 1036h322q134 0 199 -59t65 -178q0 -242 -270 -242h-174v-229h-142v708zM795 920v-244h151q85 0 118.5 28.5t33.5 92.5
t-32 93.5t-114 29.5h-157z" />
    <glyph glyph-name="servicemark" unicode="&#x2120;" horiz-adv-x="1533" 
d="M342 1380q258 0 258 -211h-121q0 109 -139 109q-60 0 -94.5 -22.5t-34.5 -55.5q0 -34 31.5 -50.5t128.5 -41.5q134 -32 184.5 -70t50.5 -116q0 -90 -69 -139.5t-189 -49.5q-272 0 -272 219h123q2 -60 38.5 -89t112.5 -29q62 0 97.5 20.5t35.5 56.5q0 38 -33 57t-128 42
q-130 28 -183 67.5t-53 114.5q0 83 69 135.5t187 52.5zM745 1364h195l152 -444h4l149 444h189v-616h-117v481h-14l-168 -481h-99l-168 481h-12v-481h-111v616z" />
    <glyph glyph-name="trademark" unicode="&#x2122;" horiz-adv-x="1515" 
d="M57 1364h555v-111h-217v-505h-119v505h-219v111zM727 1364h195l151 -444h4l152 444h186v-616h-117v481h-14l-168 -481h-98l-166 481h-14v-481h-111v616z" />
    <glyph glyph-name="onethird" unicode="&#x2153;" horiz-adv-x="1843" 
d="M336 1376h115v-831h-166v598h-199v119h55q96 0 139 25t56 89zM1368 1364l-967 -1364h-135l967 1364h135zM1432 840q156 0 243.5 -66.5t87.5 -163.5v-4q0 -68 -48.5 -119t-141.5 -69q100 -18 148 -69t48 -126v-2q0 -102 -89.5 -170.5t-249.5 -68.5q-182 0 -267.5 71.5
t-85.5 182.5v26h150v-18q0 -62 49 -100t147 -38q85 0 136 34t51 91v7q0 120 -205 120h-94v111h94q102 0 152.5 34.5t50.5 84.5v6q0 55 -51.5 88t-133.5 33q-95 0 -144.5 -38t-49.5 -95v-21h-150v29q0 104 87.5 177t265.5 73z" />
    <glyph glyph-name="twothirds" unicode="&#x2154;" horiz-adv-x="2080" 
d="M743 545h-663v45q0 103 28.5 169t93 115t189.5 103q126 54 164.5 85t38.5 83q0 56 -46 84t-120 28q-89 0 -140.5 -38.5t-51.5 -108.5v-23h-152v31q0 121 91 193.5t259 72.5q157 0 239.5 -64t82.5 -169q0 -94 -63 -149.5t-234 -131.5q-122 -52 -163 -88.5t-44 -101.5h491
v-135zM1606 1364l-967 -1364h-135l966 1364h136zM1669 840q157 0 245.5 -66.5t88.5 -163.5v-4q0 -67 -50 -118.5t-143 -69.5q101 -18 150 -69t49 -126v-2q0 -102 -90.5 -170.5t-249.5 -68.5q-183 0 -268.5 71.5t-85.5 182.5v26h149v-18q0 -62 49.5 -100t147.5 -38
q85 0 135.5 34t50.5 91v7q0 120 -205 120h-94v111h94q102 0 152.5 34.5t50.5 84.5v6q0 55 -51 88t-131 33q-96 0 -146.5 -38t-50.5 -95v-21h-149v29q0 105 87.5 177.5t264.5 72.5z" />
    <glyph glyph-name="onefifth" unicode="&#x2155;" horiz-adv-x="1857" 
d="M336 1376h115v-831h-166v598h-199v119h55q96 0 139 25t56 89zM1368 1364l-967 -1364h-135l967 1364h135zM1155 823h606q-6 -82 -29.5 -109.5t-93.5 -27.5h-348l-20 -240q107 76 239 76q131 0 202 -67t71 -183v-8q0 -124 -87 -203t-251 -79q-175 0 -255.5 70.5
t-80.5 180.5v11h154v-4q0 -58 47 -94.5t133 -36.5q83 0 131.5 43t48.5 112v6q0 62 -41.5 103t-124.5 41q-120 0 -205 -74l-129 27z" />
    <glyph glyph-name="twofifths" unicode="&#x2156;" horiz-adv-x="2095" 
d="M743 545h-663v45q0 103 28.5 169t93 115t189.5 103q126 54 164.5 85t38.5 83q0 56 -46 84t-120 28q-89 0 -140.5 -38.5t-51.5 -108.5v-23h-152v31q0 121 91 193.5t259 72.5q157 0 239.5 -64t82.5 -169q0 -94 -63 -149.5t-234 -131.5q-122 -52 -163 -88.5t-44 -101.5h491
v-135zM1606 1364l-967 -1364h-135l966 1364h136zM1393 823h606q-6 -82 -29.5 -109.5t-93.5 -27.5h-348l-21 -240q107 76 242 76q130 0 200 -67t70 -183v-8q0 -124 -87 -203t-251 -79q-174 0 -254.5 70.5t-80.5 180.5v11h153v-4q0 -58 47 -94.5t135 -36.5q82 0 130.5 43
t48.5 112v6q0 62 -41 103t-125 41q-120 0 -205 -74l-129 27z" />
    <glyph glyph-name="threefifths" unicode="&#x2157;" horiz-adv-x="2054" 
d="M424 1384q156 0 244 -66t88 -163v-4q0 -68 -49 -119t-142 -69q100 -18 148.5 -69t48.5 -126v-2q0 -102 -90 -171t-250 -69q-94 0 -164 20.5t-110 56.5t-59 80t-19 97v27h149v-19q0 -62 48.5 -99.5t148.5 -37.5q83 0 133.5 34t50.5 91v6q0 121 -203 121h-94v111h94
q101 0 151 34.5t50 84.5v6q0 55 -50 88t-132 33q-96 0 -145.5 -38.5t-49.5 -95.5v-20h-151v29q0 49 20 92t60.5 79t111 57t162.5 21zM1565 1364l-967 -1364h-135l967 1364h135zM1352 823h606q-6 -82 -29.5 -109.5t-93.5 -27.5h-348l-21 -240q107 76 242 76q130 0 200 -67
t70 -183v-8q0 -124 -87 -203t-251 -79q-174 0 -254.5 70.5t-80.5 180.5v11h153v-4q0 -58 47 -94.5t135 -36.5q82 0 130.5 43t48.5 112v6q0 62 -41 103t-125 41q-117 0 -205 -74l-129 27z" />
    <glyph glyph-name="fourfifths" unicode="&#x2158;" horiz-adv-x="2072" 
d="M467 1368h195v-522h129v-121h-129v-180h-148v180h-487v123zM1581 1364l-967 -1364h-135l967 1364h135zM514 846v397l-336 -397h336zM1368 823h606q-6 -82 -29 -109.5t-94 -27.5h-348l-18 -240q103 76 239 76q131 0 201 -67t70 -183v-8q0 -124 -87 -203t-251 -79
q-174 0 -254 70.5t-80 180.5v11h154v-4q0 -58 46.5 -94.5t133.5 -36.5q82 0 130 43t48 112v6q0 62 -41 103t-125 41q-118 0 -203 -74l-129 27z" />
    <glyph glyph-name="onesixth" unicode="&#x2159;" horiz-adv-x="1812" 
d="M336 1376h115v-831h-166v598h-199v119h55q96 0 139 25t56 89zM1368 1364l-967 -1364h-135l967 1364h135zM1395 -20q-168 0 -258 88.5t-90 259.5v131q0 177 92.5 278t275.5 101q87 0 152 -22.5t99.5 -59.5t50.5 -76t16 -80v-8h-156v2q0 47 -39.5 82t-120.5 35
q-219 0 -219 -240v-53q86 92 246 92q143 0 221 -68t78 -174v-6q0 -122 -91 -202t-257 -80zM1395 111q87 0 137.5 40.5t50.5 104.5v6q0 59 -47.5 99t-136.5 40q-88 0 -141.5 -37.5t-53.5 -99.5v-2q0 -71 52.5 -111t138.5 -40z" />
    <glyph glyph-name="fivesixths" unicode="&#x215a;" horiz-adv-x="2011" 
d="M133 1368h606q-6 -82 -29.5 -109.5t-93.5 -27.5h-348l-20 -240q107 76 239 76q131 0 202 -67t71 -183v-8q0 -124 -88 -203.5t-250 -79.5q-175 0 -255.5 70.5t-80.5 181.5v10h154v-4q0 -58 46.5 -94.5t133.5 -36.5q83 0 131.5 43.5t48.5 112.5v6q0 62 -41.5 102.5
t-124.5 40.5q-121 0 -205 -73l-129 26zM1567 1364l-967 -1364h-135l967 1364h135zM1593 -20q-169 0 -258.5 88t-89.5 260v131q0 177 93 278t276 101q70 0 126 -15.5t91 -39.5t58.5 -56t32.5 -63.5t9 -63.5v-8h-155v2q0 47 -39.5 82t-120.5 35q-219 0 -219 -240v-53
q86 92 245 92q143 0 221.5 -68t78.5 -174v-6q0 -122 -91.5 -202t-257.5 -80zM1593 111q88 0 138.5 40.5t50.5 104.5v6q0 59 -48 99t-137 40q-88 0 -141 -37.5t-53 -99.5v-2q0 -71 52 -111t138 -40z" />
    <glyph glyph-name="oneeighth" unicode="&#x215b;" horiz-adv-x="1845" 
d="M336 1376h115v-831h-166v598h-199v119h55q96 0 139 25t56 89zM1368 1364l-967 -1364h-135l967 1364h135zM1427 844q165 0 255 -68.5t90 -173.5v-2q0 -129 -160 -184q86 -27 129 -78t43 -119v-6q0 -107 -93.5 -171.5t-263.5 -64.5q-169 0 -262.5 64.5t-93.5 171.5v6
q0 68 43 119t129 78q-158 54 -158 184v2q0 105 89 173.5t253 68.5zM1427 717q-85 0 -134.5 -35.5t-49.5 -91.5v-4q0 -54 51 -87.5t133 -33.5t134.5 33.5t52.5 87.5v4q0 56 -50.5 91.5t-136.5 35.5zM1427 106q93 0 145 36.5t52 93.5v4q0 56 -53.5 90.5t-143.5 34.5
t-143 -34.5t-53 -90.5v-4q0 -58 52 -94t144 -36z" />
    <glyph glyph-name="threeeighths" unicode="&#x215c;" horiz-adv-x="2043" 
d="M424 1384q156 0 244 -66t88 -163v-4q0 -68 -49 -119t-142 -69q100 -18 148.5 -69t48.5 -126v-2q0 -102 -90 -171t-250 -69q-94 0 -164 20.5t-110 56.5t-59 80t-19 97v27h149v-19q0 -62 48.5 -99.5t148.5 -37.5q83 0 133.5 34t50.5 91v6q0 121 -203 121h-94v111h94
q101 0 151 34.5t50 84.5v6q0 55 -50 88t-132 33q-96 0 -145.5 -38.5t-49.5 -95.5v-20h-151v29q0 49 20 92t60.5 79t111 57t162.5 21zM1565 1364l-967 -1364h-135l967 1364h135zM1624 844q165 0 254.5 -68.5t89.5 -173.5v-2q0 -130 -158 -184q85 -27 128.5 -78.5t43.5 -118.5
v-6q0 -107 -94 -171.5t-264 -64.5q-169 0 -262.5 64.5t-93.5 171.5v6q0 67 43.5 118.5t128.5 78.5q-158 54 -158 184v2q0 105 89 173.5t253 68.5zM1624 717q-85 0 -134.5 -35.5t-49.5 -91.5v-4q0 -54 51 -87.5t133 -33.5q83 0 134.5 33.5t51.5 87.5v4q0 57 -50 92t-136 35z
M1624 106q93 0 146 36.5t53 93.5v4q0 56 -54.5 90.5t-144.5 34.5t-143.5 -34.5t-53.5 -90.5v-4q0 -58 52.5 -94t144.5 -36z" />
    <glyph glyph-name="fiveeighths" unicode="&#x215d;" horiz-adv-x="2043" 
d="M133 1368h606q-6 -82 -29.5 -109.5t-93.5 -27.5h-348l-20 -240q107 76 239 76q131 0 202 -67t71 -183v-8q0 -124 -88 -203.5t-250 -79.5q-175 0 -255.5 70.5t-80.5 181.5v10h154v-4q0 -58 46.5 -94.5t133.5 -36.5q83 0 131.5 43.5t48.5 112.5v6q0 62 -41.5 102.5
t-124.5 40.5q-121 0 -205 -73l-129 26zM1567 1364l-967 -1364h-135l967 1364h135zM1626 844q165 0 254.5 -68.5t89.5 -173.5v-2q0 -129 -160 -184q86 -27 129 -78t43 -119v-6q0 -107 -93.5 -171.5t-262.5 -64.5t-262.5 64.5t-93.5 171.5v6q0 68 43 119t129 78
q-160 55 -160 184v2q0 105 90 173.5t254 68.5zM1626 717q-85 0 -134.5 -35.5t-49.5 -91.5v-4q0 -54 51 -87.5t133 -33.5t134 33.5t52 87.5v4q0 57 -50 92t-136 35zM1626 106q93 0 145 36.5t52 93.5v4q0 56 -53.5 90.5t-143.5 34.5t-143 -34.5t-53 -90.5v-4q0 -59 51.5 -94.5
t144.5 -35.5z" />
    <glyph glyph-name="seveneighths" unicode="&#x215e;" horiz-adv-x="1853" 
d="M72 1368h706v-94q-169 -172 -256 -346t-112 -383h-183q23 189 113 354t260 326h-528v143zM1376 1364l-966 -1364h-136l967 1364h135zM1436 844q165 0 254.5 -68.5t89.5 -173.5v-2q0 -129 -160 -184q86 -27 129 -78t43 -119v-6q0 -107 -93.5 -171.5t-262.5 -64.5
q-170 0 -263.5 64.5t-93.5 171.5v6q0 68 43 119t129 78q-159 55 -159 184v2q0 105 89.5 173.5t254.5 68.5zM1436 717q-86 0 -136.5 -35.5t-50.5 -91.5v-4q0 -54 52.5 -87.5t134.5 -33.5t134 33.5t52 87.5v4q0 57 -50 92t-136 35zM1436 106q93 0 144.5 36.5t51.5 93.5v4
q0 56 -53 90.5t-143 34.5t-143.5 -34.5t-53.5 -90.5v-4q0 -58 52 -94t145 -36z" />
    <glyph glyph-name="minus" unicode="&#x2212;" horiz-adv-x="1183" 
d="M147 768h889v-172h-889v172z" />
    <glyph glyph-name="hcoslug" unicode="&#xe10b;" horiz-adv-x="1421" 
d="M1319 1434v-1639h-1217v1639h1217zM782 541q42 55 95 86q30 -52 88 -52q43 0 72.5 32t29.5 79t-29.5 77t-72.5 30q-70 0 -123 -78q-3 40 -30.5 59t-70.5 17q19 32 19 69q0 59 -52.5 105.5t-142.5 46.5q-99 0 -161 -52.5t-62 -121.5q0 -43 15 -75t49 -67
q-168 -57 -168 -186q0 -81 65 -136t158 -55q129 0 213 93q51 -52 89.5 -72.5t84.5 -20.5q68 0 114.5 53t49.5 140l-15 4q-34 -59 -88 -59q-30 0 -59 19.5t-68 64.5zM506 877q0 26 15 42.5t40 16.5q26 0 43 -21.5t17 -56.5q0 -46 -37 -102q-30 29 -42.5 42.5t-24 35
t-11.5 43.5zM639 700q61 42 86 70q23 -23 29 -49t-2 -52.5t-29 -62.5q-68 78 -84 94zM535 449q-46 0 -76.5 31.5t-30.5 78.5q0 49 33 82q72 -68 151 -168q-31 -24 -77 -24zM721 256v-106h12l8 16q10 -16 29 -16q17 0 25 13.5t8 29.5q0 18 -8.5 29t-22.5 11q-21 0 -27 -18v55
h-36v-14h12zM256 166v-14h61v14h-20v33h8q7 0 8.5 -3t3.5 -14h15v47h-15q-1 -8 -2 -10.5t-3 -4t-7 -1.5h-8v37h25q11 0 15 -5t7 -22h16v41h-104v-14h14v-84h-14zM586 254l-25 -4v-19h-14v-14h14v-41q0 -26 25 -26q22 0 28 26l-10 4q-3 -14 -10 -14q-8 0 -8 10v41h26v14h-26
v23zM356 193q0 -20 12 -31.5t31 -11.5t31 12t12 31q0 18 -12 29t-31 11t-31 -11t-12 -29zM618 180v-28h15l2 8q15 -10 27 -10q13 0 20.5 7.5t7.5 18.5q0 19 -24.5 25t-24.5 12q0 8 10 8q11 0 21 -14h14v26h-12l-4 -10q-7 10 -23 10q-13 0 -21 -7t-8 -17q0 -19 25 -26t25 -13
q0 -8 -11 -8q-12 0 -24 18h-15zM449 166v-14h45v14h-9v31q0 20 15 20q12 0 12 -14v-37h-8v-14h45v14h-12v39q0 28 -25 28q-20 0 -29 -22v20h-34v-14h12v-51h-12zM829 133q5 5 2.5 13t-12.5 8q-14 0 -14 -15q0 -18 22 -18q24 0 37 33l27 63h10v14h-35v-14h11l-17 -41l-18 41
h12v14h-51v-14h10q25 -47 33 -67q-3 -17 -17 -17zM416 193q0 -33 -17 -33q-16 0 -16 33q0 30 16 30q17 0 17 -30zM776 190q0 -26 -14 -26q-17 0 -17 26q0 27 17 27q14 0 14 -27zM565 14v-14h47v14h-10v52h29v-52h-10v-14h47v14h-13v107l-20 -4q-8 4 -19 4q-16 0 -27 -10
t-11 -29v-2h-15v-14h15v-52h-13zM961 55q0 -26 15.5 -41.5t43.5 -15.5q46 0 49 47h-16q-4 -33 -29 -33q-33 0 -33 45t29 45q12 0 18.5 -6.5t12.5 -25.5h16v45h-16l-2 -13q-15 15 -33 15q-22 0 -38.5 -17.5t-16.5 -44.5zM254 14v-14h59v14h-16v37h45v-37h-16v-14h59v14h-16
v84h16v15h-59v-15h16v-32h-45v32h16v15h-59v-15h16v-84h-16zM950 68h-37v-15h13q-2 -7 -13 -18q-4 4 -11.5 12.5t-12.5 13.5q22 9 22 25q0 10 -7.5 17.5t-20.5 7.5q-14 0 -24.5 -9t-10.5 -20q0 -13 12 -25q-26 -7 -26 -30q0 -29 36 -29q19 0 31 12q10 -12 25 -12q19 0 26 25
l-10 2q-3 -11 -8 -11t-12 11q12 16 18 28h10v15zM602 80v6q0 25 12 25l7 -2q-3 -3 -3 -7q0 -12 13 -12v-10h-29zM883 68q-13 13 -13 20q0 10 11 10q12 0 12 -12q0 -11 -10 -18zM506 37h53q3 45 -39 45q-17 0 -29 -12t-12 -31t11.5 -30t31.5 -11q30 0 37 29h-14
q-3 -15 -19 -15q-20 0 -20 25zM754 14v-14h53v14h-16v33q8 19 14 19v-3q0 -12 12 -12q14 0 14 15q0 16 -16 16q-15 0 -24 -23v21h-37v-14h12v-52h-12zM1075 41q0 -20 12 -31.5t31 -11.5t31 12t12 31t-12 30t-31 11t-31 -11t-12 -30zM387 41q0 -20 12 -31.5t31 -11.5t31 12
t12 31t-12 30t-31 11t-31 -11t-12 -30zM696 37h54q3 45 -39 45q-17 0 -29 -12t-12 -31t11.5 -30t31.5 -11q30 0 37 29h-15q-3 -15 -18 -15q-21 0 -21 25zM1135 41q0 -33 -17 -33q-16 0 -16 33q0 31 16 31q17 0 17 -31zM446 41q0 -33 -16 -33t-16 33q0 31 16 31t16 -31z
M696 47q0 25 15 25q14 0 14 -25h-29zM506 47q0 25 14 25q15 0 15 -25h-29zM895 18q-9 -6 -16 -6q-9 0 -15 6t-6 15q0 10 8 18q9 -9 29 -33zM1194 12q0 15 -14 15q-6 0 -10.5 -4.5t-4.5 -10.5q0 -14 15 -14q14 0 14 14z" />
    <glyph glyph-name="fi" unicode="&#xfb01;" horiz-adv-x="1308" 
d="M735 1417v-155h-86q-104 0 -148 -41.5t-44 -124.5v-121h270v-158h-270v-817h-205v817h-182v158h182v127q0 315 360 315h123zM928 1362h227v-195h-227v195zM938 975h207v-975h-207v975z" />
    <glyph glyph-name="fl" unicode="&#xfb02;" horiz-adv-x="1308" 
d="M735 1417v-155h-86q-104 0 -148 -41.5t-44 -124.5v-121h270v-158h-270v-817h-205v817h-182v158h182v127q0 315 360 315h123zM1145 1417v-1417h-207v1417h207z" />
    <glyph glyph-name="NUL" horiz-adv-x="0" 
 />
    <glyph glyph-name="Q.alt" horiz-adv-x="1507" 
d="M1188 -172v-152h-115q-236 0 -329 64t-93 221v37q-245 29 -383.5 193t-138.5 423v154q0 289 167.5 458t457.5 169q289 0 455.5 -168.5t166.5 -458.5v-154q0 -258 -136.5 -421.5t-379.5 -194.5v-49q0 -72 57.5 -96.5t210.5 -24.5h60zM754 1212q-184 0 -294 -117t-110 -311
v-186q0 -194 110 -311t294 -117t292.5 116.5t108.5 311.5v186q0 194 -108.5 311t-292.5 117z" />
    <glyph glyph-name="Q.alt2" horiz-adv-x="1519" 
d="M1481 -16q-63 -29 -138 -29q-70 0 -124 24.5t-111 86.5q-149 -97 -354 -97q-290 0 -457.5 170.5t-167.5 464.5v154q0 295 167.5 466t457.5 171t456 -171t166 -466v-154q0 -251 -133 -420q43 -44 76.5 -57.5t79.5 -13.5q43 0 82 10v-139zM1096 356l10 -18q53 103 53 250
v186q0 202 -109 321t-296 119q-186 0 -296 -119.5t-110 -320.5v-170q0 -142 62 -250q10 126 96 195t203 69q128 0 214.5 -64.5t172.5 -197.5zM522 309q0 -80 57.5 -124t174.5 -44q148 0 250 76l-23 35q-70 113 -134 166t-151 53q-77 0 -125.5 -46.5t-48.5 -115.5z" />
    <glyph glyph-name="R.alt" horiz-adv-x="1419" 
d="M190 1364h623q227 0 341 -94t114 -262v-43q0 -134 -68.5 -211t-200.5 -111v-4q123 -28 179.5 -95.5t56.5 -197.5v-164q0 -54 21.5 -82t72.5 -43v-57h-137q-178 0 -178 172v166q0 111 -59.5 162t-198.5 51h-344v-551h-222v1364zM410 1186v-467h348q139 0 214 58t75 161v45
q0 96 -67 149.5t-202 53.5h-368z" />
    <glyph glyph-name="t.alt" horiz-adv-x="772" 
d="M242 1188l202 49v-262h291v-158h-291v-422q0 -155 36 -227.5t151 -140.5v-27h-246q-54 42 -82.5 82.5t-44.5 110.5t-16 182v442h-179v158h179v213z" />
    <glyph glyph-name="Racute.alt" horiz-adv-x="1419" 
d="M1065 1917l-340 -356h-147l237 356h250zM190 1364h623q227 0 341 -94t114 -262v-43q0 -134 -68.5 -211t-200.5 -111v-4q123 -28 179.5 -95.5t56.5 -197.5v-164q0 -54 21.5 -82t72.5 -43v-57h-137q-178 0 -178 172v166q0 111 -59.5 162t-198.5 51h-344v-551h-222v1364z
M410 1186v-467h348q139 0 214 58t75 161v45q0 96 -67 149.5t-202 53.5h-368z" />
    <glyph glyph-name="Rcaron.alt" horiz-adv-x="1419" 
d="M322 1935q121 -22 217 -84.5t147 -138.5q54 77 150.5 139t216.5 84v-88q-197 -74 -258 -278h-217q-58 204 -256 278v88zM190 1364h623q227 0 341 -94t114 -262v-43q0 -134 -68.5 -211t-200.5 -111v-4q123 -28 179.5 -95.5t56.5 -197.5v-164q0 -54 21.5 -82t72.5 -43v-57
h-137q-178 0 -178 172v166q0 111 -59.5 162t-198.5 51h-344v-551h-222v1364zM410 1186v-467h348q139 0 214 58t75 161v45q0 96 -67 149.5t-202 53.5h-368z" />
    <glyph glyph-name="Rcommaaccent.alt" horiz-adv-x="1419" 
d="M190 1364h623q227 0 341 -94t114 -262v-43q0 -134 -68.5 -211t-200.5 -111v-4q123 -28 179.5 -95.5t56.5 -197.5v-164q0 -54 21.5 -82t72.5 -43v-57h-137q-178 0 -178 172v166q0 111 -59.5 162t-198.5 51h-344v-551h-222v1364zM410 1186v-467h348q139 0 214 58t75 161v45
q0 96 -67 149.5t-202 53.5h-368zM616 -188h220v-189q0 -116 -69.5 -189.5t-201.5 -99.5v60q81 24 126 77.5t44 131.5h-119v209z" />
    <glyph glyph-name="tcaron.alt" horiz-adv-x="772" 
d="M623 1475h186l-98 -363h-105zM242 1188l202 49v-262h291v-158h-291v-422q0 -155 36 -227.5t151 -140.5v-27h-246q-54 42 -82.5 82.5t-44.5 110.5t-16 182v442h-179v158h179v213z" />
    <glyph glyph-name="tcommaaccent.alt" horiz-adv-x="772" 
d="M242 1188l202 49v-262h291v-158h-291v-422q0 -155 36 -227.5t151 -140.5v-27h-246q-54 42 -82.5 82.5t-44.5 110.5t-16 182v442h-179v158h179v213zM305 -197h219v-190q0 -116 -70 -189t-200 -100v60q80 24 124.5 77t43.5 131h-117v211z" />
    <glyph glyph-name="one.alt" horiz-adv-x="1069" 
d="M1024 0h-885v174h346v864h-370v158h86q189 0 263 38t87 144h149v-1204h324v-174z" />
    <glyph glyph-name="one.alt2" horiz-adv-x="661" 
d="M223 1221q108 18 111 165h104v-1386h-215v1221z" />
    <glyph glyph-name="colon.alt" horiz-adv-x="501" 
d="M133 1159h236v-250h-236v250zM133 455h236v-248h-236v248z" />
    <glyph glyph-name="guillemotleft.cap" horiz-adv-x="1335" 
d="M541 1163h116q-61 -283 -315 -481q254 -195 315 -479h-116q-113 282 -437 422v114q323 140 437 424zM1087 1163h117q-61 -283 -315 -481q254 -195 315 -479h-117q-109 280 -434 422v114q324 142 434 424z" />
    <glyph glyph-name="guillemotright.cap" horiz-adv-x="1331" 
d="M791 201h-117q61 283 315 481q-254 195 -315 479h117q109 -280 436 -422v-114q-167 -72 -275.5 -181.5t-160.5 -242.5zM248 201h-117q61 283 315 481q-254 195 -315 479h117q109 -280 436 -422v-114q-167 -72 -275.5 -181.5t-160.5 -242.5z" />
    <glyph glyph-name="guilsinglleft.cap" horiz-adv-x="788" 
d="M543 1163h116q-61 -283 -315 -481q254 -195 315 -479h-116q-113 282 -437 422v114q323 140 437 424z" />
    <glyph glyph-name="guilsinglright.cap" horiz-adv-x="788" 
d="M246 201h-117q62 287 315 481q-253 194 -315 481h117q108 -282 436 -424v-114q-328 -142 -436 -424z" />
    <glyph glyph-name="hyphen.cap" horiz-adv-x="858" 
d="M127 764h604v-164h-604v164z" />
    <glyph glyph-name="endash.cap" horiz-adv-x="1277" 
d="M156 764h966v-162h-966v162z" />
    <glyph glyph-name="emdash.cap" horiz-adv-x="1869" 
d="M160 764h1550v-162h-1550v162z" />
    <glyph glyph-name="at.cap" horiz-adv-x="1675" 
d="M905 1464q140 0 256 -36t195 -96t134 -140t80 -167.5t25 -178.5q0 -146 -54.5 -270.5t-152 -198.5t-214.5 -74q-103 0 -162.5 51.5t-57.5 134.5q-99 -172 -249 -172q-107 0 -168.5 71t-61.5 198q0 79 26.5 164t73 158.5t120.5 121t159 47.5q73 0 123.5 -38t69.5 -103
l40 127h158l-127 -414q-76 -248 80 -248q108 0 196.5 127.5t88.5 317.5q0 235 -159 376.5t-419 141.5q-198 0 -355 -96t-245 -267.5t-88 -386.5q0 -276 170 -445t467 -169q142 0 272 44.5t222 113.5l57 -84q-100 -75 -248.5 -124.5t-304.5 -49.5q-171 0 -311 52t-236 145
t-148.5 225t-52.5 290q0 245 104 440t287 303.5t410 108.5zM883 958q-58 0 -107 -40t-78 -99t-45 -121t-16 -112q0 -74 32.5 -111t90.5 -37q61 0 114.5 54.5t79.5 144.5l60 201q-5 50 -39 85t-92 35z" />
    <glyph glyph-name="registered.large" horiz-adv-x="1810" 
d="M145 682q0 156 57 293t156.5 236t241.5 156.5t305 57.5t305 -57.5t241.5 -156.5t156.5 -236t57 -293t-57 -293t-156.5 -236t-241.5 -156.5t-305 -57.5t-305 57.5t-241.5 156.5t-156.5 236t-57 293zM1561 682q0 183 -82 331.5t-232.5 234t-341.5 85.5t-340.5 -85.5
t-231 -234t-81.5 -331.5q0 -136 48 -256t132.5 -207t207 -137.5t265.5 -50.5q191 0 341.5 86t232.5 234.5t82 330.5zM772 584v-256h-141v708h344q252 0 252 -225q0 -82 -40 -135.5t-112 -75.5l170 -272h-158l-157 256h-158zM772 920v-226h170q141 0 141 111q0 58 -32 86.5
t-103 28.5h-176z" />
    <glyph glyph-name="registered.large_alt" horiz-adv-x="1810" 
d="M145 682q0 156 57 293t156.5 236t241.5 156.5t305 57.5t305 -57.5t241.5 -156.5t156.5 -236t57 -293t-57 -293t-156.5 -236t-241.5 -156.5t-305 -57.5t-305 57.5t-241.5 156.5t-156.5 236t-57 293zM1561 682q0 137 -48 257t-133 207t-208 137t-267 50
q-191 0 -340.5 -85.5t-231 -234t-81.5 -331.5q0 -136 48 -256t132.5 -207t207 -137.5t265.5 -50.5q144 0 267 50.5t208 137.5t133 207t48 256zM631 1036h346q125 0 187.5 -53t62.5 -152q0 -81 -35.5 -122.5t-110.5 -61.5v-2q64 -14 94.5 -48.5t30.5 -98.5v-58q0 -30 10 -45
t35 -26v-41h-94q-92 0 -92 94v65q0 51 -29.5 75t-101.5 24h-162v-258h-141v708zM772 920v-224h168q145 0 145 113q0 58 -32 84.5t-105 26.5h-176z" />
    <glyph glyph-name="registered.alt" horiz-adv-x="1112" 
d="M555 1395q198 0 326.5 -127.5t128.5 -315.5q0 -187 -128.5 -312.5t-326.5 -125.5q-196 0 -323.5 125.5t-127.5 312.5q0 188 127.5 315.5t323.5 127.5zM555 1323q-169 0 -272 -104.5t-103 -266.5q0 -161 103 -265.5t272 -104.5q172 0 274.5 104.5t102.5 265.5
q0 163 -102.5 267t-274.5 104zM379 1176h219q80 0 121 -33t41 -94q0 -93 -90 -113v-2q39 -9 57 -31t18 -63v-19q0 -22 7.5 -33t27.5 -18v-29h-71q-62 0 -62 62v33q0 59 -76 59h-94v-154h-98v435zM477 1098v-131h96q86 0 86 67q0 33 -18.5 48.5t-60.5 15.5h-103z" />
    <glyph glyph-name="R_p" horiz-adv-x="2525" 
d="M430 539v-539h-209v1364h606q223 0 338 -98.5t115 -276.5v-69q0 -139 -85.5 -236t-236.5 -131l365 -553h-236l-346 539h-311zM430 709h352q139 0 213 58t74 159v53q0 107 -65.5 160t-206.5 53h-367v-483zM2017 -25q-119 0 -197 50t-139 135v-482h-206v1297h176l16 -191
q62 101 144.5 158t209.5 57q179 0 286.5 -123.5t107.5 -318.5v-139q0 -194 -110 -318.5t-288 -124.5zM1958 131q118 0 185 84t67 213v119q0 129 -67 213t-185 84q-113 0 -195 -87.5t-82 -219.5v-99q0 -132 82 -219.5t195 -87.5z" />
    <glyph glyph-name="R_p.alt" horiz-adv-x="2568" 
d="M221 1364h604q227 0 341 -94t114 -260v-45q0 -133 -69 -210t-201 -112v-4q124 -25 181.5 -93t57.5 -198v-166q0 -54 21.5 -82t72.5 -43v-57h-135q-178 0 -178 172v170q0 111 -59.5 161t-202.5 50h-338v-553h-209v1364zM430 1188v-471h346q141 0 217 58t76 161v49
q0 203 -272 203h-367zM1518 975h174l16 -191q41 65 84.5 109t114 75t157.5 31q179 0 285.5 -123.5t106.5 -318.5v-139q0 -194 -109 -318.5t-287 -124.5q-83 0 -150.5 28.5t-106.5 65t-79 91.5v-482h-206v1297zM2001 844q-115 0 -197 -87.5t-82 -219.5v-99q0 -132 82 -219.5
t197 -87.5q118 0 185 84t67 213v119q0 129 -67 213t-185 84z" />
    <glyph glyph-name="rupee.alt" horiz-adv-x="2426" 
d="M221 1364h604q227 0 341 -94t114 -260v-45q0 -133 -69 -210t-201 -112v-4q124 -25 181.5 -93t57.5 -198v-166q0 -54 21.5 -82t72.5 -43v-57h-135q-178 0 -178 172v170q0 111 -59.5 161t-202.5 50h-338v-553h-209v1364zM430 1188v-471h346q141 0 217 58t76 161v49
q0 203 -272 203h-367zM1888 -29q-214 0 -321 91.5t-107 240.5v31h178v-21q0 -85 64.5 -136.5t189.5 -51.5q104 0 161.5 38t57.5 103q0 59 -53 91t-203 61q-197 33 -285.5 98.5t-88.5 188.5q0 127 107.5 211.5t291.5 84.5q195 0 300.5 -86t105.5 -229v-22h-179v12
q0 81 -59.5 127.5t-171.5 46.5q-92 0 -148.5 -37t-56.5 -96q0 -57 55 -88.5t199 -59.5q203 -35 291 -100t88 -193q0 -134 -111 -219.5t-305 -85.5z" />
    <glyph glyph-name="rupeeindia.alt" horiz-adv-x="1429" 
d="M1190 57v-57h-139q-94 0 -141 39.5t-50 130.5l-4 72q-3 126 -77.5 181.5t-266.5 55.5h-356v160h340q175 0 266 55.5t110 167.5h-718v131h718q-15 112 -99 166.5t-259 54.5h-360v150h1187v-150h-401q126 -78 147 -215h256v-147h-258q-44 -216 -323 -274v-7
q93 -12 154.5 -37t96.5 -65.5t49.5 -89.5t16.5 -119l4 -76q3 -54 26 -83.5t81 -43.5z" />
    <glyph glyph-name="onehalf.alt" horiz-adv-x="2093" 
d="M758 545h-652v127h256v467h-268v123h109q110 0 154 24.5t55 89.5h112v-704h234v-127zM1618 1364l-967 -1364h-135l967 1364h135zM2003 0h-666v45q0 151 64.5 229.5t249.5 157.5q125 54 162.5 84.5t37.5 83.5q0 56 -45 84.5t-118 28.5q-89 0 -141 -39t-52 -109v-22h-154
v30q0 121 92 194t259 73q157 0 240 -64.5t83 -169.5q0 -50 -15.5 -86t-55.5 -69t-90 -59.5t-138 -65.5q-121 -52 -162.5 -89t-42.5 -102h492v-135z" />
    <glyph glyph-name="onethird.alt" horiz-adv-x="2113" 
d="M770 545h-649v127h254v467h-269v123h109q112 0 156 24.5t55 89.5h113v-704h231v-127zM1630 1364l-966 -1364h-136l967 1364h135zM1704 840q156 0 244 -66.5t88 -163.5v-4q0 -68 -49 -119t-144 -69q101 -18 150 -69t49 -126v-2q0 -102 -90 -170.5t-250 -68.5
q-183 0 -268.5 71.5t-85.5 182.5v26h151v-18q0 -62 48.5 -100t146.5 -38q85 0 135.5 34t50.5 91v7q0 120 -203 120h-94v111h94q101 0 151 34.5t50 84.5v6q0 55 -50 88t-132 33q-96 0 -146.5 -38t-50.5 -95v-21h-149v29q0 49 20 92t60.5 79.5t111 57.5t162.5 21z" />
    <glyph glyph-name="onequarter.alt" horiz-adv-x="1992" 
d="M770 545h-649v127h254v467h-269v123h109q112 0 156 24.5t55 89.5h113v-704h231v-127zM1630 1364l-966 -1364h-136l967 1364h135zM1626 823h195v-522h127v-121h-127v-180h-150v180h-487v123zM1671 301v397l-334 -397h334z" />
    <glyph glyph-name="onefifth.alt" horiz-adv-x="2131" 
d="M770 545h-649v127h254v467h-269v123h109q112 0 156 24.5t55 89.5h113v-704h231v-127zM1630 1364l-966 -1364h-136l967 1364h135zM1430 823h606q-6 -82 -29.5 -109.5t-93.5 -27.5h-348l-21 -240q107 76 240 76q131 0 201.5 -67t70.5 -183v-8q0 -124 -87.5 -203t-250.5 -79
q-175 0 -255.5 70.5t-80.5 180.5v11h154v-4q0 -58 46.5 -94.5t133.5 -36.5q83 0 131.5 43t48.5 112v6q0 62 -41 103t-124 41q-120 0 -205 -74l-129 27z" />
    <glyph glyph-name="onesixth.alt" horiz-adv-x="2084" 
d="M770 545h-649v127h254v467h-269v123h109q112 0 156 24.5t55 89.5h113v-704h231v-127zM1630 1364l-966 -1364h-136l967 1364h135zM1667 -20q-169 0 -258.5 88t-89.5 260v131q0 177 93 278t276 101q70 0 126 -15.5t91 -39.5t58.5 -56t32.5 -63.5t9 -63.5v-8h-156v2
q0 47 -39 82t-120 35q-220 0 -220 -240v-53q86 92 246 92q143 0 221 -68t78 -174v-6q0 -122 -91 -202t-257 -80zM1667 111q87 0 137.5 40.5t50.5 104.5v6q0 59 -47.5 99t-136.5 40q-88 0 -141 -37.5t-53 -99.5v-2q0 -71 52 -111t138 -40z" />
    <glyph glyph-name="oneeighth.alt" horiz-adv-x="2117" 
d="M770 545h-649v127h254v467h-269v123h109q112 0 156 24.5t55 89.5h113v-704h231v-127zM1630 1364l-966 -1364h-136l967 1364h135zM1700 844q164 0 254 -68.5t90 -173.5v-2q0 -129 -160 -184q86 -27 129 -78t43 -119v-6q0 -107 -93.5 -171.5t-262.5 -64.5
q-170 0 -263.5 64.5t-93.5 171.5v6q0 68 43.5 119t129.5 78q-160 54 -160 184v2q0 105 89.5 173.5t254.5 68.5zM1700 717q-86 0 -136.5 -35.5t-50.5 -91.5v-4q0 -54 52.5 -87.5t134.5 -33.5t134 33.5t52 87.5v4q0 56 -50.5 91.5t-135.5 35.5zM1700 106q93 0 144.5 36.5
t51.5 93.5v4q0 56 -53 90.5t-143 34.5t-143.5 -34.5t-53.5 -90.5v-4q0 -58 52 -94t145 -36z" />
    <glyph glyph-name="one.sup_alt" 
d="M770 598h-649v127h254v467h-269v123h109q111 0 155.5 25t55.5 90h113v-705h231v-127z" />
    <glyph glyph-name="one.inf_alt" 
d="M770 -322h-649v127h254v467h-269v123h109q111 0 155.5 25t55.5 90h113v-705h231v-127z" />
    <glyph glyph-name="zero.tab" horiz-adv-x="1347" 
d="M674 1395q272 0 423.5 -170t151.5 -461v-164q0 -291 -151.5 -461t-423.5 -170t-424 170t-152 461v166q0 291 152 460t424 169zM674 1219q-175 0 -270 -121.5t-95 -337.5v-156q0 -216 95 -336.5t270 -120.5q177 0 270.5 120.5t93.5 336.5v156q0 217 -94 338t-270 121z" />
    <glyph glyph-name="one.tab" horiz-adv-x="1347" 
d="M702 1378h154v-1206h438v-172h-1116v172h467v862h-489v160h200q185 0 258 38.5t88 145.5z" />
    <glyph glyph-name="two.tab" horiz-adv-x="1347" 
d="M698 1395q251 0 382.5 -107.5t131.5 -286.5q0 -40 -6.5 -74.5t-16.5 -63.5t-30.5 -56t-40 -48t-54 -44t-63.5 -40.5t-78 -40.5t-88 -40t-102 -43q-219 -89 -291.5 -160t-72.5 -205h831v-186h-1065v76q0 104 16.5 181t49.5 138t95.5 113t141.5 96.5t201 97.5
q90 39 143 64.5t99 53.5t67.5 53.5t33 56t11.5 69.5q0 106 -81.5 158.5t-221.5 52.5q-150 0 -239 -65t-89 -187v-49h-206v56q0 196 143.5 313t398.5 117z" />
    <glyph glyph-name="three.tab" horiz-adv-x="1347" 
d="M684 1395q127 0 228 -31.5t162.5 -85t93.5 -120.5t32 -142v-4q0 -111 -77.5 -200t-227.5 -120q161 -31 237 -115t76 -204v-6q0 -78 -33.5 -149t-97.5 -127t-166 -89t-229 -33q-123 0 -219 22.5t-157.5 60.5t-101.5 91.5t-56.5 111.5t-16.5 124v41h207v-33q0 -105 81 -170
t251 -65q150 0 235.5 62.5t85.5 168.5v4q0 104 -81 163.5t-259 59.5h-170v156h170q171 0 253.5 61t82.5 158v6q0 102 -84.5 161.5t-230.5 59.5q-166 0 -249 -67.5t-83 -167.5v-33h-207v41q0 62 17.5 118.5t59 110.5t103.5 93.5t157.5 63.5t213.5 24z" />
    <glyph glyph-name="four.tab" horiz-adv-x="1347" 
d="M799 1364h264v-899h221v-168h-221v-297h-197v297h-794v156zM866 465v717l-577 -717h577z" />
    <glyph glyph-name="five.tab" horiz-adv-x="1347" 
d="M774 872q230 0 349.5 -115t119.5 -308v-11q0 -209 -143 -339t-408 -130q-145 0 -254.5 33.5t-172.5 92t-93.5 131t-30.5 157.5v4h207v-2q0 -105 87 -170t255 -65q152 0 245 73.5t93 208.5v10q0 119 -75.5 191t-229.5 72q-208 0 -381 -130l-170 41l53 748h977
q-9 -114 -40.5 -149t-137.5 -35h-618l-35 -445q175 137 403 137z" />
    <glyph glyph-name="six.tab" horiz-adv-x="1347" 
d="M672 -29q-271 0 -409 142t-138 399v279q0 279 147.5 441.5t432.5 162.5q110 0 198.5 -24.5t144 -63t93 -89.5t52.5 -100.5t15 -99.5v-31h-207v10q0 93 -75.5 156.5t-216.5 63.5q-381 0 -381 -418v-125q22 30 54.5 58t81.5 57.5t121 47t154 17.5q227 0 355.5 -113.5
t128.5 -296.5v-14q0 -199 -147.5 -329t-403.5 -130zM674 147q152 0 245 71.5t93 203.5v8q0 126 -87.5 197t-242.5 71q-150 0 -248 -70t-98 -190v-6q0 -136 93 -210.5t245 -74.5z" />
    <glyph glyph-name="seven.tab" horiz-adv-x="1347" 
d="M639 0h-238q37 315 187 598t444 578h-932v188h1170v-129q-283 -298 -434.5 -591.5t-196.5 -643.5z" />
    <glyph glyph-name="eight.tab" horiz-adv-x="1347" 
d="M674 1395q129 0 230.5 -31t165 -85t96 -124t32.5 -151v-5q0 -110 -66 -189t-192 -122q281 -90 281 -330v-4q0 -176 -142.5 -280.5t-404.5 -104.5q-260 0 -403.5 105t-143.5 280v4q0 239 283 330q-125 43 -191.5 122t-66.5 189v5q0 81 32.5 151t95 124t164 85t230.5 31z
M674 1223q-149 0 -233.5 -63.5t-84.5 -170.5v-4q0 -107 86.5 -168t231.5 -61q144 0 230.5 61t86.5 168v4q0 107 -84 170.5t-233 63.5zM674 141q161 0 249.5 64t88.5 174v2q0 112 -89.5 174.5t-248.5 62.5q-157 0 -246.5 -62.5t-89.5 -172.5v-4q0 -110 88.5 -174t247.5 -64z
" />
    <glyph glyph-name="nine.tab" horiz-adv-x="1347" 
d="M672 1395q273 0 410 -141.5t137 -397.5v-278q0 -184 -62 -318.5t-194.5 -211.5t-325.5 -77q-108 0 -196.5 24.5t-144 63t-93 88.5t-53 97.5t-15.5 93.5v22h205v-6q0 -83 76.5 -145t216.5 -62q383 0 383 418v107q-22 -31 -54 -59t-80.5 -57t-119.5 -46.5t-154 -17.5
q-231 0 -359 113.5t-128 293.5v37q0 96 36.5 179t104.5 145.5t173.5 98.5t236.5 36zM670 1219q-153 0 -245.5 -71.5t-92.5 -209.5v-18q0 -131 87 -202t243 -71q152 0 250 70.5t98 191.5v15q0 145 -93.5 220t-246.5 75z" />
    <glyph glyph-name="dollar.tab" horiz-adv-x="1347" 
d="M1208 381q0 -166 -118 -269t-318 -122v-228h-172v226q-231 18 -346 129t-115 284v48h207v-33q0 -122 87 -192t257 -70q143 0 226 54t83 154t-76 148t-284 98q-260 56 -368.5 137.5t-108.5 239.5q0 156 121.5 264t322.5 125v223h172v-223q212 -22 313 -130t101 -269v-37
h-205v33q0 106 -75 172.5t-240 66.5q-138 0 -219.5 -58t-81.5 -148q0 -92 73.5 -138.5t278.5 -93.5q132 -30 218.5 -61.5t149 -77t90 -106.5t27.5 -146z" />
    <glyph glyph-name="sterling.tab" horiz-adv-x="1347" 
d="M944 -31q-56 0 -109 14t-106 44.5t-85 53t-87 64.5q-43 -83 -115 -129.5t-159 -46.5q-114 0 -175 57.5t-61 151.5q0 92 64 153.5t178 61.5q85 0 182 -51q4 18 4 57q0 104 -59 219h-266v125h198q-67 134 -67 261q0 82 29 152t86 124t147.5 84.5t206.5 30.5
q225 0 344.5 -111t119.5 -303v-47h-196v31q0 123 -70.5 188.5t-193.5 65.5q-117 0 -192 -58.5t-75 -175.5q0 -44 12 -91t22.5 -72t35.5 -79h412v-125h-359q33 -101 33 -188t-35 -168q65 -40 101 -60.5t91.5 -40.5t102.5 -20q87 0 130.5 47.5t43.5 171.5v68h187v-80
q0 -192 -77.5 -285.5t-242.5 -93.5zM172 176q0 -45 29.5 -72.5t85.5 -27.5q55 0 98 37.5t66 107.5q-88 58 -162 58q-58 0 -87.5 -28.5t-29.5 -74.5z" />
    <glyph glyph-name="Euro.tab" horiz-adv-x="1347" 
d="M1245 408q0 -67 -18.5 -130.5t-58.5 -119.5t-97 -98t-139 -66.5t-180 -24.5q-241 0 -384 131.5t-169 380.5h-152v111h146v178h-146v111h152q26 249 169.5 381.5t383.5 132.5q123 0 219.5 -37t155 -99.5t88.5 -139.5t30 -163v-16h-198v8q0 50 -16.5 96.5t-50 86.5t-92 64
t-134.5 24q-315 0 -353 -338h498v-111h-504v-178h504v-111h-498q41 -336 353 -336q75 0 133.5 24t92 64t50.5 86.5t17 96.5v6h198v-14z" />
    <glyph glyph-name="yen.tab" horiz-adv-x="1347" 
d="M1188 246h-412v-246h-201v246h-417v121h417v159l-14 23h-403v119h331l-417 696h231l379 -657l377 657h219l-416 -696h326v-119h-397l-15 -23v-159h412v-121z" />
    <glyph glyph-name="cent.tab" horiz-adv-x="1347" 
d="M1143 535q0 -134 -97.5 -235t-271.5 -122v-196h-170v196q-196 24 -300.5 151.5t-104.5 329.5v43q0 201 106.5 329.5t298.5 154.5v196h170v-196q118 -13 203 -65.5t125.5 -127t40.5 -162.5v-14h-197q0 81 -63.5 141t-186.5 60q-143 0 -216.5 -82.5t-73.5 -218.5v-68
q0 -136 73 -219.5t215 -83.5q121 0 186.5 60.5t65.5 138.5v2h197v-12z" />
    <glyph glyph-name="numbersign.tab" horiz-adv-x="1347" 
d="M731 0l57 362h-327l-55 -362h-150l55 362h-245v142h268l55 356h-270v141h291l57 363h149l-55 -363h326l55 363h152l-58 -363h246v-141h-268l-56 -356h271v-142h-291l-57 -362h-150zM483 504h326l55 356h-325z" />
    <glyph glyph-name="degree.tab" horiz-adv-x="1347" 
d="M674 1397q203 0 322.5 -112.5t119.5 -289.5t-121 -289t-321 -112q-202 0 -322.5 111t-120.5 290q0 177 120 289.5t323 112.5zM674 1253q-131 0 -204 -70t-73 -188q0 -120 74 -190t203 -70q130 0 203 69.5t73 190.5q0 118 -72.5 188t-203.5 70z" />
    <glyph glyph-name="percent.tab" horiz-adv-x="2019" 
d="M539 1393q153 0 241 -91.5t88 -240.5v-39q0 -148 -89.5 -239t-241.5 -91t-242 91t-90 239v39q0 149 90 240.5t244 91.5zM1722 1372l-1251 -1380h-172l1249 1380h174zM537 1264q-89 0 -135 -55t-46 -144v-47q0 -88 47 -142.5t136 -54.5q86 0 133 54.5t47 142.5v47
q0 89 -46.5 144t-135.5 55zM1483 -29q-152 0 -242 91t-90 239v39q0 148 89.5 240t242.5 92q154 0 244 -91.5t90 -240.5v-39q0 -148 -90 -239t-244 -91zM1483 100q89 0 135.5 54t46.5 143v47q0 89 -46 144t-136 55q-89 0 -134.5 -55t-45.5 -144v-47q0 -88 47 -142.5
t133 -54.5z" />
    <glyph glyph-name="quotedbl.tab" horiz-adv-x="1347" 
d="M414 1364h229l-215 -655h-135zM885 1364h229l-231 -655h-133z" />
    <glyph glyph-name="quotesingle.tab" horiz-adv-x="673" 
d="M311 1364h234l-211 -655h-139z" />
    <glyph glyph-name="period.tab" horiz-adv-x="673" 
d="M217 250h238v-250h-238v250z" />
    <glyph glyph-name="comma.tab" horiz-adv-x="673" 
d="M217 250h238v-184q0 -174 -70.5 -264.5t-222.5 -131.5v66q98 53 131 107t33 157h-109v250z" />
    <glyph glyph-name="colon.tab" horiz-adv-x="673" 
d="M217 952h238v-247h-238v247zM217 250h238v-250h-238v250z" />
    <glyph glyph-name="semicolon.tab" horiz-adv-x="673" 
d="M217 952h238v-247h-238v247zM217 250h238v-184q0 -174 -70.5 -264.5t-222.5 -131.5v66q98 53 131 107t33 157h-109v250z" />
    <glyph glyph-name="periodcentered.tab" horiz-adv-x="673" 
d="M217 807h238v-248h-238v248z" />
    <glyph glyph-name="slash.tab" horiz-adv-x="1347" 
d="M1094 1559h186l-1022 -1881h-186z" />
    <glyph glyph-name="bar.tab" horiz-adv-x="673" 
d="M250 1559h172v-1881h-172v1881z" />
    <glyph glyph-name="underscore.tab" horiz-adv-x="1347" 
d="M68 -184h1212v-138h-1212v138z" />
    <glyph glyph-name="plus.tab" horiz-adv-x="1347" 
d="M590 1141h170v-379h393v-160h-393v-379h-170v379h-397v160h397v379z" />
    <glyph glyph-name="minus.tab" horiz-adv-x="1347" 
d="M213 768h922v-172h-922v172z" />
    <glyph glyph-name="divide.tab" horiz-adv-x="1347" 
d="M569 1133h207v-189h-207v189zM201 760h948v-156h-948v156zM569 420h207v-189h-207v189z" />
    <glyph glyph-name="equal.tab" horiz-adv-x="1347" 
d="M217 983h913v-164h-913v164zM217 545h913v-164h-913v164z" />
    <glyph glyph-name="multiply.tab" horiz-adv-x="1347" 
d="M1004 244l-330 321l-330 -323l-119 118l328 322l-328 322l121 118l328 -321l327 321l119 -118l-325 -320l327 -322z" />
    <glyph glyph-name="less.tab" horiz-adv-x="1347" 
d="M1055 1171v-182l-649 -307l649 -307v-182l-858 409v162z" />
    <glyph glyph-name="greater.tab" horiz-adv-x="1347" 
d="M281 1171l858 -409v-162l-858 -407v182l649 307l-649 307v182z" />
    <glyph glyph-name="plusminus.tab" horiz-adv-x="1347" 
d="M594 1280h162v-352h366v-154h-366v-352h-162v352h-369v154h369v352zM225 258h899v-156h-899v156z" />
    <glyph glyph-name="onehalf.tab" horiz-adv-x="2019" 
d="M770 545h-649v127h254v467h-269v123h109q112 0 156 24.5t55 89.5h113v-704h231v-127zM1587 1364l-966 -1364h-134l965 1364h135zM1927 0h-663v45q0 103 28.5 169t93 115t189.5 103q126 54 164.5 85t38.5 83q0 56 -46.5 84.5t-119.5 28.5q-89 0 -141 -39t-52 -109v-22
h-151v30q0 122 91 194.5t259 72.5q157 0 239 -64t82 -170q0 -50 -15.5 -86t-55.5 -69t-89 -59.5t-137 -65.5q-122 -52 -162.5 -89t-43.5 -102h491v-135z" />
    <glyph glyph-name="onethird.tab" horiz-adv-x="2019" 
d="M770 545h-649v127h254v467h-269v123h109q112 0 156 24.5t55 89.5h113v-704h231v-127zM1587 1364l-966 -1364h-134l965 1364h135zM1608 840q156 0 243.5 -66.5t87.5 -163.5v-4q0 -68 -48.5 -119t-141.5 -69q100 -18 148.5 -69t48.5 -126v-2q0 -102 -90 -170.5t-250 -68.5
q-94 0 -164 20.5t-110.5 56.5t-59.5 80t-19 97v26h150v-18q0 -62 48.5 -100t147.5 -38q84 0 134.5 34t50.5 91v7q0 120 -203 120h-94v111h94q101 0 151 34.5t50 84.5v6q0 55 -50.5 88t-132.5 33q-96 0 -145 -38t-49 -95v-21h-152v29q0 49 20 92t61 79.5t111.5 57.5t162.5 21
z" />
    <glyph glyph-name="twothirds.tab" horiz-adv-x="2019" 
d="M743 545h-663v45q0 103 28.5 169t93 115t189.5 103q126 54 164.5 85t38.5 83q0 56 -46 84t-120 28q-89 0 -140.5 -38.5t-51.5 -108.5v-23h-152v31q0 121 91 193.5t259 72.5q157 0 239.5 -64t82.5 -169q0 -94 -63 -149.5t-234 -131.5q-122 -52 -163 -88.5t-44 -101.5h491
v-135zM1573 1364l-967 -1364h-135l967 1364h135zM1608 840q156 0 243.5 -66.5t87.5 -163.5v-4q0 -68 -48.5 -119t-141.5 -69q100 -18 148.5 -69t48.5 -126v-2q0 -102 -90 -170.5t-250 -68.5q-94 0 -164 20.5t-110.5 56.5t-59.5 80t-19 97v26h150v-18q0 -62 48.5 -100
t147.5 -38q84 0 134.5 34t50.5 91v7q0 120 -203 120h-94v111h94q101 0 151 34.5t50 84.5v6q0 55 -50.5 88t-132.5 33q-96 0 -145 -38t-49 -95v-21h-152v29q0 49 20 92t61 79.5t111.5 57.5t162.5 21z" />
    <glyph glyph-name="onequarter.tab" horiz-adv-x="2019" 
d="M770 545h-649v127h254v467h-269v123h109q112 0 156 24.5t55 89.5h113v-704h231v-127zM1653 1364l-967 -1364h-133l965 1364h135zM1651 823h194v-522h129v-121h-129v-180h-147v180h-488v123zM1698 301v397l-336 -397h336z" />
    <glyph glyph-name="threequarters.tab" horiz-adv-x="2019" 
d="M424 1384q156 0 244 -66t88 -163v-4q0 -68 -49 -119t-142 -69q100 -18 148.5 -69t48.5 -126v-2q0 -102 -90 -171t-250 -69q-94 0 -164 20.5t-110 56.5t-59 80t-19 97v27h149v-19q0 -62 48.5 -99.5t148.5 -37.5q83 0 133.5 34t50.5 91v6q0 121 -203 121h-94v111h94
q101 0 151 34.5t50 84.5v6q0 55 -50 88t-132 33q-96 0 -145.5 -38.5t-49.5 -95.5v-20h-151v29q0 49 20 92t60.5 79t111 57t162.5 21zM1622 1364l-967 -1364h-135l967 1364h135zM1651 823h194v-522h129v-121h-129v-180h-147v180h-488v123zM1698 301v397l-336 -397h336z" />
    <glyph glyph-name="onefifth.tab" horiz-adv-x="2019" 
d="M770 545h-649v127h254v467h-269v123h109q112 0 156 24.5t55 89.5h113v-704h231v-127zM1587 1364l-966 -1364h-136l967 1364h135zM1317 823h606q-8 -83 -31 -110t-94 -27h-346l-20 -240q107 76 239 76q131 0 202 -67t71 -183v-8q0 -124 -87.5 -203t-250.5 -79
q-175 0 -255.5 70.5t-80.5 180.5v11h153v-4q0 -58 47 -94.5t134 -36.5q83 0 130.5 43t47.5 112v6q0 62 -40.5 103t-123.5 41q-120 0 -205 -74l-129 27z" />
    <glyph glyph-name="twofifths.tab" horiz-adv-x="2019" 
d="M743 545h-663v45q0 103 28.5 169t93 115t189.5 103q126 54 164.5 85t38.5 83q0 56 -46 84t-120 28q-89 0 -140.5 -38.5t-51.5 -108.5v-23h-152v31q0 121 91 193.5t259 72.5q157 0 239.5 -64t82.5 -169q0 -94 -63 -149.5t-234 -131.5q-122 -52 -163 -88.5t-44 -101.5h491
v-135zM1569 1364l-967 -1364h-135l967 1364h135zM1317 823h606q-8 -83 -31 -110t-94 -27h-346l-20 -240q107 76 239 76q131 0 202 -67t71 -183v-8q0 -124 -87.5 -203t-250.5 -79q-175 0 -255.5 70.5t-80.5 180.5v11h153v-4q0 -58 47 -94.5t134 -36.5q83 0 130.5 43t47.5 112
v6q0 62 -40.5 103t-123.5 41q-120 0 -205 -74l-129 27z" />
    <glyph glyph-name="threefifths.tab" horiz-adv-x="2019" 
d="M424 1384q156 0 244 -66t88 -163v-4q0 -68 -49 -119t-142 -69q100 -18 148.5 -69t48.5 -126v-2q0 -102 -90 -171t-250 -69q-94 0 -164 20.5t-110 56.5t-59 80t-19 97v27h149v-19q0 -62 48.5 -99.5t148.5 -37.5q83 0 133.5 34t50.5 91v6q0 121 -203 121h-94v111h94
q101 0 151 34.5t50 84.5v6q0 55 -50 88t-132 33q-96 0 -145.5 -38.5t-49.5 -95.5v-20h-151v29q0 49 20 92t60.5 79t111 57t162.5 21zM1552 1364l-966 -1364h-135l966 1364h135zM1317 823h606q-8 -83 -31 -110t-94 -27h-346l-20 -240q107 76 239 76q131 0 202 -67t71 -183v-8
q0 -124 -87.5 -203t-250.5 -79q-175 0 -255.5 70.5t-80.5 180.5v11h153v-4q0 -58 47 -94.5t134 -36.5q83 0 130.5 43t47.5 112v6q0 62 -40.5 103t-123.5 41q-120 0 -205 -74l-129 27z" />
    <glyph glyph-name="fourfifths.tab" horiz-adv-x="2019" 
d="M467 1368h195v-522h129v-121h-129v-180h-148v180h-487v123zM1559 1364l-967 -1364h-135l966 1364h136zM514 846v397l-336 -397h336zM1317 823h606q-8 -83 -31 -110t-94 -27h-346l-20 -240q107 76 239 76q131 0 202 -67t71 -183v-8q0 -124 -87.5 -203t-250.5 -79
q-175 0 -255.5 70.5t-80.5 180.5v11h153v-4q0 -58 47 -94.5t134 -36.5q83 0 130.5 43t47.5 112v6q0 62 -40.5 103t-123.5 41q-120 0 -205 -74l-129 27z" />
    <glyph glyph-name="onesixth.tab" horiz-adv-x="2019" 
d="M770 545h-649v127h254v467h-269v123h109q112 0 156 24.5t55 89.5h113v-704h231v-127zM1608 1364l-969 -1364h-133l967 1364h135zM1602 -20q-169 0 -259 88t-90 260v131q0 177 93 278t276 101q70 0 126 -15.5t91 -39.5t58.5 -56t32.5 -63.5t9 -63.5v-8h-155v2
q0 47 -39.5 82t-120.5 35q-219 0 -219 -240v-53q86 92 246 92q143 0 221 -68t78 -174v-6q0 -122 -91 -202t-257 -80zM1602 111q87 0 137.5 40.5t50.5 104.5v6q0 59 -47.5 99t-136.5 40q-88 0 -141.5 -37.5t-53.5 -99.5v-2q0 -71 52.5 -111t138.5 -40z" />
    <glyph glyph-name="fivesixths.tab" horiz-adv-x="2019" 
d="M133 1368h606q-6 -82 -29.5 -109.5t-93.5 -27.5h-348l-20 -240q107 76 239 76q131 0 202 -67t71 -183v-8q0 -124 -88 -203.5t-250 -79.5q-175 0 -255.5 70.5t-80.5 181.5v10h154v-4q0 -58 46.5 -94.5t133.5 -36.5q83 0 131.5 43.5t48.5 112.5v6q0 62 -41.5 102.5
t-124.5 40.5q-121 0 -205 -73l-129 26zM1577 1364l-967 -1364h-135l967 1364h135zM1602 -20q-169 0 -259 88t-90 260v131q0 177 93 278t276 101q70 0 126 -15.5t91 -39.5t58.5 -56t32.5 -63.5t9 -63.5v-8h-155v2q0 47 -39.5 82t-120.5 35q-219 0 -219 -240v-53q86 92 246 92
q143 0 221 -68t78 -174v-6q0 -122 -91 -202t-257 -80zM1602 111q87 0 137.5 40.5t50.5 104.5v6q0 59 -47.5 99t-136.5 40q-88 0 -141.5 -37.5t-53.5 -99.5v-2q0 -71 52.5 -111t138.5 -40z" />
    <glyph glyph-name="oneeighth.tab" horiz-adv-x="2019" 
d="M770 545h-649v127h254v467h-269v123h109q112 0 156 24.5t55 89.5h113v-704h231v-127zM1591 1364l-966 -1364h-136l967 1364h135zM1602 844q164 0 254 -68.5t90 -173.5v-2q0 -129 -160 -184q86 -27 129 -78t43 -119v-6q0 -107 -94 -171.5t-262 -64.5q-170 0 -263.5 64.5
t-93.5 171.5v6q0 68 43 119t129 78q-160 54 -160 184v2q0 105 90 173.5t255 68.5zM1602 717q-86 0 -136.5 -35.5t-50.5 -91.5v-4q0 -54 52.5 -87.5t134.5 -33.5t133 33.5t51 87.5v4q0 56 -49.5 91.5t-134.5 35.5zM1602 106q93 0 144.5 36.5t51.5 93.5v4q0 56 -53 90.5
t-143 34.5t-143.5 -34.5t-53.5 -90.5v-4q0 -58 52 -94t145 -36z" />
    <glyph glyph-name="threeeighths.tab" horiz-adv-x="2019" 
d="M424 1384q156 0 244 -66t88 -163v-4q0 -68 -49 -119t-142 -69q100 -18 148.5 -69t48.5 -126v-2q0 -102 -90 -171t-250 -69q-94 0 -164 20.5t-110 56.5t-59 80t-19 97v27h149v-19q0 -62 48.5 -99.5t148.5 -37.5q83 0 133.5 34t50.5 91v6q0 121 -203 121h-94v111h94
q101 0 151 34.5t50 84.5v6q0 55 -50 88t-132 33q-96 0 -145.5 -38.5t-49.5 -95.5v-20h-151v29q0 49 20 92t60.5 79t111 57t162.5 21zM1559 1364l-967 -1364h-135l966 1364h136zM1602 844q164 0 254 -68.5t90 -173.5v-2q0 -129 -160 -184q86 -27 129 -78t43 -119v-6
q0 -107 -94 -171.5t-262 -64.5q-170 0 -263.5 64.5t-93.5 171.5v6q0 68 43 119t129 78q-160 54 -160 184v2q0 105 90 173.5t255 68.5zM1602 717q-86 0 -136.5 -35.5t-50.5 -91.5v-4q0 -54 52.5 -87.5t134.5 -33.5t133 33.5t51 87.5v4q0 56 -49.5 91.5t-134.5 35.5zM1602 106
q93 0 144.5 36.5t51.5 93.5v4q0 56 -53 90.5t-143 34.5t-143.5 -34.5t-53.5 -90.5v-4q0 -58 52 -94t145 -36z" />
    <glyph glyph-name="fiveeighths.tab" horiz-adv-x="2019" 
d="M133 1368h606q-6 -82 -29.5 -109.5t-93.5 -27.5h-348l-20 -240q107 76 239 76q131 0 202 -67t71 -183v-8q0 -124 -88 -203.5t-250 -79.5q-175 0 -255.5 70.5t-80.5 181.5v10h154v-4q0 -58 46.5 -94.5t133.5 -36.5q83 0 131.5 43.5t48.5 112.5v6q0 62 -41.5 102.5
t-124.5 40.5q-121 0 -205 -73l-129 26zM1559 1364l-967 -1364h-135l966 1364h136zM1602 844q164 0 254 -68.5t90 -173.5v-2q0 -129 -160 -184q86 -27 129 -78t43 -119v-6q0 -107 -94 -171.5t-262 -64.5q-170 0 -263.5 64.5t-93.5 171.5v6q0 68 43 119t129 78
q-160 54 -160 184v2q0 105 90 173.5t255 68.5zM1602 717q-86 0 -136.5 -35.5t-50.5 -91.5v-4q0 -54 52.5 -87.5t134.5 -33.5t133 33.5t51 87.5v4q0 56 -49.5 91.5t-134.5 35.5zM1602 106q93 0 144.5 36.5t51.5 93.5v4q0 56 -53 90.5t-143 34.5t-143.5 -34.5t-53.5 -90.5v-4
q0 -58 52 -94t145 -36z" />
    <glyph glyph-name="seveneighths.tab" horiz-adv-x="2019" 
d="M72 1368h706v-94q-169 -172 -256 -346t-112 -383h-183q23 189 113 354t260 326h-528v143zM1462 1364l-966 -1364h-136l967 1364h135zM1602 844q164 0 254 -68.5t90 -173.5v-2q0 -129 -160 -184q86 -27 129 -78t43 -119v-6q0 -107 -94 -171.5t-262 -64.5
q-170 0 -263.5 64.5t-93.5 171.5v6q0 68 43 119t129 78q-160 54 -160 184v2q0 105 90 173.5t255 68.5zM1602 717q-86 0 -136.5 -35.5t-50.5 -91.5v-4q0 -54 52.5 -87.5t134.5 -33.5t133 33.5t51 87.5v4q0 56 -49.5 91.5t-134.5 35.5zM1602 106q93 0 144.5 36.5t51.5 93.5v4
q0 56 -53 90.5t-143 34.5t-143.5 -34.5t-53.5 -90.5v-4q0 -58 52 -94t145 -36z" />
    <glyph glyph-name="i.dot" horiz-adv-x="536" 
d="M156 1362h225v-195h-225v195zM164 975h209v-975h-209v975z" />
    <glyph glyph-name="fraction.tab" horiz-adv-x="348" 
d="M723 1364l-967 -1364h-135l967 1364h135z" />
    <glyph glyph-name="zero.num" 
d="M418 1389q172 0 268 -105.5t96 -288.5v-77q0 -183 -96 -288.5t-268 -105.5t-269.5 105.5t-97.5 288.5v77q0 183 97.5 288.5t269.5 105.5zM418 1251q-100 0 -153.5 -68t-53.5 -192v-71q0 -124 53 -191t154 -67q100 0 152.5 67t52.5 191v71q0 124 -52.5 192t-152.5 68z" />
    <glyph glyph-name="one.num" horiz-adv-x="653" 
d="M336 1376h115v-831h-166v598h-199v119h55q96 0 139 25t56 89z" />
    <glyph glyph-name="one.num_alt" 
d="M770 545h-649v127h254v467h-269v123h109q112 0 156 24.5t55 89.5h113v-704h231v-127z" />
    <glyph glyph-name="two.num" 
d="M743 545h-663v45q0 103 28.5 169t93 115t189.5 103q126 54 164.5 85t38.5 83q0 56 -46 84t-120 28q-89 0 -140.5 -38.5t-51.5 -108.5v-23h-152v31q0 121 91 193.5t259 72.5q157 0 239.5 -64t82.5 -169q0 -94 -63 -149.5t-234 -131.5q-122 -52 -163 -88.5t-44 -101.5h491
v-135z" />
    <glyph glyph-name="three.num" 
d="M424 1384q156 0 244 -66t88 -163v-4q0 -68 -49 -119t-142 -69q100 -18 148.5 -69t48.5 -126v-2q0 -102 -90 -171t-250 -69q-94 0 -164 20.5t-110 56.5t-59 80t-19 97v27h149v-19q0 -62 48.5 -99.5t148.5 -37.5q83 0 133.5 34t50.5 91v6q0 121 -203 121h-94v111h94
q101 0 151 34.5t50 84.5v6q0 55 -50 88t-132 33q-96 0 -145.5 -38.5t-49.5 -95.5v-20h-151v29q0 49 20 92t60.5 79t111 57t162.5 21z" />
    <glyph glyph-name="four.num" 
d="M467 1368h195v-522h129v-121h-129v-180h-148v180h-487v123zM514 846v397l-336 -397h336z" />
    <glyph glyph-name="five.num" 
d="M133 1368h606q-6 -82 -29.5 -109.5t-93.5 -27.5h-348l-20 -240q107 76 239 76q131 0 202 -67t71 -183v-8q0 -124 -88 -203.5t-250 -79.5q-175 0 -255.5 70.5t-80.5 181.5v10h154v-4q0 -58 46.5 -94.5t133.5 -36.5q83 0 131.5 43.5t48.5 112.5v6q0 62 -41.5 102.5
t-124.5 40.5q-121 0 -205 -73l-129 26z" />
    <glyph glyph-name="six.num" 
d="M418 524q-169 0 -258.5 88t-89.5 260v132q0 177 92.5 277.5t275.5 100.5q87 0 152 -22.5t99.5 -59t50.5 -75.5t16 -80v-8h-156v2q0 47 -39.5 81.5t-120.5 34.5q-116 0 -167.5 -62t-51.5 -177v-53q86 92 246 92q143 0 221 -68t78 -174v-6q0 -122 -91 -202.5t-257 -80.5z
M418 655q87 0 137.5 40.5t50.5 105.5v6q0 59 -47.5 99t-136.5 40q-88 0 -141.5 -37.5t-53.5 -99.5v-2q0 -71 52.5 -111.5t138.5 -40.5z" />
    <glyph glyph-name="seven.num" 
d="M72 1368h706v-94q-169 -172 -256 -346t-112 -383h-183q23 189 113 354t260 326h-528v143z" />
    <glyph glyph-name="eight.num" 
d="M418 1389q164 0 254 -68.5t90 -173.5v-2q0 -129 -160 -184q86 -27 129 -78t43 -119v-6q0 -107 -94 -171.5t-262 -64.5q-170 0 -263.5 64.5t-93.5 171.5v6q0 68 43 119t129 78q-159 54 -159 184v2q0 105 89.5 173.5t254.5 68.5zM418 1262q-86 0 -136.5 -35.5t-50.5 -91.5
v-5q0 -54 52.5 -87t134.5 -33t133 33t51 87v5q0 56 -49.5 91.5t-134.5 35.5zM418 651q93 0 144.5 36t51.5 93v4q0 56 -53 90.5t-143 34.5t-143.5 -34.5t-53.5 -90.5v-4q0 -58 52 -93.5t145 -35.5z" />
    <glyph glyph-name="nine.num" 
d="M418 1386q170 0 260 -88.5t90 -257.5v-131q0 -179 -93.5 -280t-279.5 -101q-88 0 -153.5 22t-100 58t-51 74.5t-16.5 79.5v8h155v-2q0 -44 37.5 -78.5t126.5 -34.5q119 0 170 62.5t51 179.5v47q-30 -36 -90.5 -64t-158.5 -28q-141 0 -219 68t-78 172v12q0 123 91 202.5
t259 79.5zM418 1255q-88 0 -139.5 -41.5t-51.5 -103.5v-12q0 -58 48.5 -97.5t138.5 -39.5q85 0 140.5 37t55.5 98v6q0 71 -52.5 112t-139.5 41z" />
    <glyph glyph-name="zero.den" 
d="M418 844q172 0 268 -105t96 -288v-78q0 -183 -96 -288t-268 -105t-269.5 105.5t-97.5 287.5v78q0 182 97.5 287.5t269.5 105.5zM418 707q-100 0 -153.5 -68.5t-53.5 -192.5v-71q0 -124 53 -191t154 -67q100 0 152.5 67t52.5 191v71q0 124 -52.5 192.5t-152.5 68.5z" />
    <glyph glyph-name="one.den" horiz-adv-x="653" 
d="M336 831h115v-831h-166v598h-199v119h55q96 0 139 25t56 89z" />
    <glyph glyph-name="one.den_alt" 
d="M770 0h-649v127h254v467h-269v123h109q112 0 156 24.5t55 89.5h113v-704h231v-127z" />
    <glyph glyph-name="two.den" 
d="M743 0h-663v45q0 103 28.5 169t93 115t189.5 103q126 54 164.5 85t38.5 83q0 56 -46.5 84.5t-119.5 28.5q-89 0 -140.5 -39t-51.5 -109v-22h-152v30q0 122 91 194.5t259 72.5q157 0 239.5 -64t82.5 -170q0 -50 -15.5 -86t-55.5 -69t-89 -59.5t-137 -65.5
q-122 -52 -163 -89t-44 -102h491v-135z" />
    <glyph glyph-name="three.den" 
d="M424 840q156 0 244 -66.5t88 -163.5v-4q0 -68 -49 -119t-142 -69q100 -18 148.5 -69t48.5 -126v-2q0 -102 -90 -170.5t-250 -68.5q-94 0 -164 20.5t-110 56.5t-59 80t-19 97v26h149v-18q0 -62 49 -100t148 -38q83 0 133.5 34t50.5 91v7q0 120 -203 120h-94v111h94
q101 0 151 34.5t50 84.5v6q0 55 -50 88t-132 33q-96 0 -145.5 -38t-49.5 -95v-21h-151v29q0 49 20 92t60.5 79.5t111 57.5t162.5 21z" />
    <glyph glyph-name="four.den" 
d="M467 823h195v-522h129v-121h-129v-180h-148v180h-487v123zM514 301v397l-336 -397h336z" />
    <glyph glyph-name="five.den" 
d="M133 823h606q-6 -82 -29.5 -109.5t-93.5 -27.5h-348l-20 -240q107 76 239 76q131 0 202 -67t71 -183v-8q0 -124 -87.5 -203t-250.5 -79q-175 0 -255.5 70.5t-80.5 180.5v11h154v-4q0 -58 46.5 -94.5t133.5 -36.5q83 0 131.5 43t48.5 112v6q0 62 -41.5 103t-124.5 41
q-120 0 -205 -74l-129 27z" />
    <glyph glyph-name="six.den" 
d="M418 -20q-169 0 -258.5 88t-89.5 260v131q0 177 92.5 278t275.5 101q87 0 152 -22.5t99.5 -59.5t50.5 -76t16 -80v-8h-156v2q0 47 -39.5 82t-120.5 35q-219 0 -219 -240v-53q86 92 246 92q143 0 221 -68t78 -174v-6q0 -122 -91 -202t-257 -80zM418 111q87 0 137.5 40.5
t50.5 104.5v6q0 59 -47.5 99t-136.5 40q-88 0 -141.5 -37.5t-53.5 -99.5v-2q0 -71 52.5 -111t138.5 -40z" />
    <glyph glyph-name="seven.den" 
d="M72 823h706v-94q-169 -172 -256 -346t-112 -383h-183q23 189 113 354t260 326h-528v143z" />
    <glyph glyph-name="eight.den" 
d="M418 844q164 0 254 -68.5t90 -173.5v-2q0 -129 -160 -184q86 -27 129 -78t43 -119v-6q0 -107 -94 -171.5t-262 -64.5q-170 0 -263.5 64.5t-93.5 171.5v6q0 68 43 119t129 78q-159 54 -159 184v2q0 105 89.5 173.5t254.5 68.5zM418 717q-86 0 -136.5 -35.5t-50.5 -91.5v-4
q0 -54 52.5 -87.5t134.5 -33.5t133 33.5t51 87.5v4q0 56 -49.5 91.5t-134.5 35.5zM418 106q93 0 144.5 36.5t51.5 93.5v4q0 56 -53 90.5t-143 34.5t-143.5 -34.5t-53.5 -90.5v-4q0 -58 52 -94t145 -36z" />
    <glyph glyph-name="nine.den" 
d="M418 842q170 0 260 -88.5t90 -257.5v-131q0 -179 -93.5 -280t-279.5 -101q-88 0 -153.5 22t-100 57.5t-51 74t-16.5 79.5v8h155v-2q0 -44 37 -78t127 -34q119 0 170 62t51 179v47q-30 -36 -90.5 -64t-158.5 -28q-141 0 -219 68t-78 172v12q0 123 91 203t259 80zM418 711
q-88 0 -139.5 -42t-51.5 -104v-12q0 -58 48.5 -97.5t138.5 -39.5q85 0 140.5 37t55.5 98v6q0 71 -52.5 112.5t-139.5 41.5z" />
    <glyph glyph-name="caron.alt" horiz-adv-x="1024" 
d="M432 1485h186l-98 -363h-106z" />
    <glyph glyph-name="acute.cap" horiz-adv-x="1021" 
d="M756 1917l-342 -356h-146l238 356h250z" />
    <glyph glyph-name="hungarumlaut.cap" horiz-adv-x="1021" 
d="M547 1917l-307 -356h-129l223 356h213zM911 1917l-309 -356h-127l221 356h215z" />
    <glyph glyph-name="grave.cap" horiz-adv-x="1021" 
d="M268 1917h250l238 -356h-148z" />
    <glyph glyph-name="circumflex.cap" horiz-adv-x="1024" 
d="M403 1903h218q62 -205 258 -279v-88q-121 22 -218.5 84.5t-148.5 138.5q-51 -76 -148 -138.5t-217 -84.5v88q198 74 256 279z" />
    <glyph glyph-name="caron.cap" horiz-adv-x="1024" 
d="M145 1935q121 -22 218.5 -84.5t148.5 -138.5q51 76 148.5 138.5t218.5 84.5v-88q-197 -74 -258 -278h-218q-61 204 -258 278v88z" />
    <glyph glyph-name="breve.cap" horiz-adv-x="1024" 
d="M512 1698q227 0 227 129q0 25 -10 90h84q29 -71 29 -141q0 -112 -90.5 -173t-239.5 -61t-239.5 61t-90.5 173q0 70 29 141h84q-10 -65 -10 -90q0 -129 227 -129z" />
    <glyph glyph-name="tilde.cap" horiz-adv-x="1024" 
d="M330 1888q64 0 112 -27.5t99 -76.5q65 -63 94 -79q32 -19 65 -19q37 0 57.5 25.5t20.5 72.5q0 34 -14 92h92q25 -72 25 -133q0 -95 -50 -151t-137 -56q-64 0 -112 27.5t-99 76.5q-5 5 -21.5 20.5t-23 21t-20.5 17.5t-23 17t-21.5 11.5t-24.5 9t-25 2.5q-37 0 -57.5 -26
t-20.5 -73q0 -33 14 -94h-92q-25 78 -25 135q0 95 50 151t137 56z" />
    <glyph glyph-name="macron.cap" horiz-adv-x="1024" 
d="M170 1737h684v-133h-684v133z" />
    <glyph glyph-name="dieresis.cap" horiz-adv-x="1024" 
d="M209 1778h199v-205h-199v205zM616 1778h199v-205h-199v205z" />
    <glyph glyph-name="dotaccent.cap" horiz-adv-x="1024" 
d="M397 1765h230v-192h-230v192z" />
    <glyph glyph-name="ring.cap" horiz-adv-x="1024" 
d="M512 1974q115 0 184.5 -65t69.5 -158q0 -94 -69.5 -158.5t-184.5 -64.5t-184.5 64.5t-69.5 158.5q0 93 69.5 158t184.5 65zM512 1882q-69 0 -110.5 -37.5t-41.5 -93.5q0 -57 41.5 -95t110.5 -38t110.5 38t41.5 95q0 56 -41.5 93.5t-110.5 37.5z" />
    <glyph glyph-name="commaaccent.rot" horiz-adv-x="1024" 
d="M375 1167v191q0 116 69 188.5t201 100.5v-62q-170 -51 -170 -209h119v-209h-219z" />
    </font>
</defs>
</svg>
