<svg xmlns="http://www.w3.org/2000/svg" xmlns:xlink="http://www.w3.org/1999/xlink" width="83.474" height="87.099" viewBox="0 0 83.474 87.099">
  <defs>
    <clipPath id="clip-path">
      <rect id="Rectangle_3" data-name="Rectangle 3" width="83.474" height="87.099" fill="none"/>
    </clipPath>
  </defs>
  <g id="logo" transform="translate(-678.263 -45.79)">
    <g id="Group_5743" data-name="Group 5743" transform="translate(678.263 45.79)">
      <g id="Group_5742" data-name="Group 5742" clip-path="url(#clip-path)">
        <path id="Path_1" data-name="Path 1" d="M23.284,8.308A79.457,79.457,0,0,1,32.719,0H26.5c-1.1.851-2.176,1.728-3.213,2.611ZM36.45,56.83h4.137c8.934-18.537,7.286-5.9,5.435,0H47.4c9.062-36.884-10.952,0-10.952,0M23.284,0V.966L24.525,0Zm0,12.642v4.985A73.911,73.911,0,0,1,39.632,5.511a51.209,51.209,0,0,1,6.927-3.029A44.3,44.3,0,0,1,54.61.47a39.278,39.278,0,0,1,4.131-.4c.489-.02.984-.031,1.48-.031V0H37.035a5.346,5.346,0,0,0-.6.45A154.07,154.07,0,0,0,23.284,12.643M45.964,15.3a68.249,68.249,0,0,0-7.3,6.151,112.708,112.708,0,0,0-8.075,8.643c-2.448,2.879-4.917,6.022-7.339,9.344v9.056c.645-1.08,1.3-2.181,1.972-3.258a128.961,128.961,0,0,1,9.307-13.159c1.85-2.287,3.718-4.253,5.54-6.176C51.2,14.154,59.913,15,60.192,15.059V9.885a11.7,11.7,0,0,0-2.775.1,18.469,18.469,0,0,0-4.3,1.22A35.431,35.431,0,0,0,45.964,15.3m3.847-5.191c5.394-2.547,9.05-2.865,10.409-2.881V2.193c-.5-.033-1.018-.062-1.52-.066a25.128,25.128,0,0,0-4.826.469,36.027,36.027,0,0,0-6.441,1.85,51.807,51.807,0,0,0-9.594,4.99,79.26,79.26,0,0,0-11.193,8.919c-1.132,1.071-2.264,2.192-3.363,3.335v3.334c1.743-1.61,3.049-2.425,3.888-2.425H27.2a1.094,1.094,0,0,1,.8.339c.37.4,1.234,1.319-4.711,8.583v1.627c6.351-7.964,15.841-17.994,26.528-23.04M60.221,24.136V18.779C60,18.734,43.942,15.174,23.8,56.83h6.925S44.6,20.758,60.221,24.136m-.355,17.28a5.18,5.18,0,0,0-.213-.746,5.7,5.7,0,0,1-.123-.625.025.025,0,0,0-.005-.01.262.262,0,0,0,.069-.1.191.191,0,0,0-.006-.112c-.059-.148-.126-.268-.178-.4a.2.2,0,0,0-.1-.1.709.709,0,0,1-.054-.1,3.473,3.473,0,0,1-.139-.482,1.446,1.446,0,0,0-.265-.366c-.124-.165-.2-.362-.31-.534-.173-.29-.388-.553-.55-.85-.189-.357-.38-.713-.6-1.053-.115-.176-.239-.358-.362-.542a.025.025,0,0,0,0-.009c-.028-.047-.059-.093-.091-.141-.012-.018-.024-.036-.036-.055l.019-.016a8.146,8.146,0,0,1,.813-.618c.621-.487,1.238-1,1.836-1.491a.782.782,0,0,0,.211-.313,2.814,2.814,0,0,0,.034-.48c.008-.131.02-.267.033-.381.027-.232.053-.464.067-.7a1.186,1.186,0,0,0-.032-.322c-.03-.265-.021-.633-.056-.915a.258.258,0,0,0-.028-.093.079.079,0,0,0,.031-.053c0-.09-.01-.179-.013-.269s.01-.288,0-.328a.255.255,0,0,0,0-.042v0a.049.049,0,0,0,0-.015v0h0v0c-.012-.078-.065-.089-.107-.106h-.005a.1.1,0,0,0-.031-.007,1.088,1.088,0,0,0-.14-.03,2.35,2.35,0,0,0-.106-.343.686.686,0,0,0,.1-.038c.018-.017.018-.033.01-.044s0-.038-.005-.073a.714.714,0,0,0-.026-.113.966.966,0,0,0-.17-.22,2.008,2.008,0,0,0-.383-.431.707.707,0,0,0-.137-.075.19.19,0,0,0-.009-.109.768.768,0,0,0-.345-.419.691.691,0,0,0-.229.169.522.522,0,0,0-.047-.03.694.694,0,0,1-.374.089.4.4,0,0,0-.2.113.314.314,0,0,0-.334.2.022.022,0,0,0,0,.011.084.084,0,0,0,0,.034.109.109,0,0,0-.043.021.1.1,0,0,0-.014,0,.038.038,0,0,0-.014,0,.23.23,0,0,0-.081-.016.193.193,0,0,0-.09.036.254.254,0,0,0-.113.11.537.537,0,0,0,0,.207s0,.009,0,.014-.028,0-.044,0a.447.447,0,0,0-.259.107.109.109,0,0,0-.021.05l0,.005c-.017,0-.037,0-.049,0a.472.472,0,0,0-.159.026.2.2,0,0,0-.08.09.289.289,0,0,0-.053.172.3.3,0,0,0,.022.076.13.13,0,0,1-.039.017c-.079,0-.154.007-.166.009a.453.453,0,0,0-.257.082.221.221,0,0,0-.061.128.144.144,0,0,0,.061.1c-.3.2-.592.414-.871.643a.23.23,0,0,0,0,.078L52.2,31.545a.515.515,0,0,0-.125-.214c-.055-.054-.173-.1-.225-.018a.23.23,0,0,0-.01.035,2.343,2.343,0,0,0-.49-.443,2.076,2.076,0,0,0-.811-.3c-.007-.009-.019-.007-.028-.009a1.311,1.311,0,0,0-1.049.362.918.918,0,0,0-.265.426c-.014.038-.025.07-.028.078a1.469,1.469,0,0,0-.069.709A1.385,1.385,0,0,0,49,32.8a.547.547,0,0,0,.092.287.193.193,0,0,0,.223.087.4.4,0,0,0,.181-.121.452.452,0,0,0,.1.046c.059.024.118.044.177.063a.114.114,0,0,0-.037.178l.006.005-2.454,1.838-2.555,1.823c-.006,0-.016.008-.022.013-.15.1-.3.2-.453.3a1.072,1.072,0,0,0-.461,1.051c0,.026.006.05.01.068a.725.725,0,0,0,.387.615.2.2,0,0,0,.249-.092,2.147,2.147,0,0,0,.107-.978c-.009-.143-.045-.326-.048-.424a.316.316,0,0,1,.041-.09c.045-.035.092-.074.134-.107.064-.051.176-.148.212-.174s.066-.057.1-.086l5.041-3.6h0c.222.118.378.312.59.44.105.042.2.1.307.143a1.338,1.338,0,0,0-.169.375.624.624,0,0,0,.016.493,6.525,6.525,0,0,0,.221.636c.243.531.806.834,1.2,1.279a6.275,6.275,0,0,1,.866,1.041c.048.087.064.179.126.28a5.465,5.465,0,0,0,.341.452c.087.138.146.286.242.419q.037.105.071.212c.013.068.022.132.027.165a2.387,2.387,0,0,0,.126.481,2.247,2.247,0,0,1,.142.328,5.158,5.158,0,0,0,.141.538.694.694,0,0,1,.02.186,1.549,1.549,0,0,0-.1.2,3.008,3.008,0,0,0-.074.652,2.413,2.413,0,0,1-.214.753.857.857,0,0,0,.009.55,2.1,2.1,0,0,1,.153.545c.061.257.03.586.11.887.074.33.236.508.274.79a4.368,4.368,0,0,1-.057,1.138,2.9,2.9,0,0,0,.038.826.894.894,0,0,1-.013.462,1.992,1.992,0,0,1-.238.644c-.059.107-.191.289-.23.342a2.466,2.466,0,0,0-.365.506,1.364,1.364,0,0,0-.129.482h0a7.666,7.666,0,0,0-.248.818,4.309,4.309,0,0,1-.169.721.557.557,0,0,0-.221.581.729.729,0,0,0,.228.262l-.04.088h0a1.453,1.453,0,0,0-.143.2,1.734,1.734,0,0,0-.119.294c-.026.071-.064.136-.085.207a5.064,5.064,0,0,1-.59,1.316,2.184,2.184,0,0,0-.127.261l-.008.013a1.3,1.3,0,0,0-.121.366,5.079,5.079,0,0,0-.1.549,1.568,1.568,0,0,0-.007.282h0c-.016.348.117,1.04.776,1.09.025,0,.049,0,.074,0,.725,0,.892-.923.892-.923h0a1.035,1.035,0,0,0,.152-.431c.012-.07.02-.142.026-.213A1.745,1.745,0,0,1,53.8,54.6a2.326,2.326,0,0,1,.129-.207,1.471,1.471,0,0,0,.2-.209,2.447,2.447,0,0,0,.248-.429,1.5,1.5,0,0,0,.185-.843l.078-.236c.283.014.36-.057.36-.057a.614.614,0,0,0,.133-.508,6.222,6.222,0,0,1,.533-1.469c.044-.07.087-.141.126-.2a2.177,2.177,0,0,0,.258-.516c.043-.174.051-.355.095-.528a1.677,1.677,0,0,1,.224-.523,2.1,2.1,0,0,0,.289-.547c.013-.049.024-.1.033-.141,0,.014,0,.028,0,.043a7.694,7.694,0,0,1,.107.861,3.339,3.339,0,0,1-.048.446c-.043.253.062.535.032.835a3.828,3.828,0,0,0-.058,1.066,3.638,3.638,0,0,1,.093.782,8.047,8.047,0,0,1-.159.875,5.424,5.424,0,0,1-.124.7c-.055.21-.213.384-.274.607a1.459,1.459,0,0,0,0,.442.769.769,0,0,1-.007.133.167.167,0,0,0-.066.014.223.223,0,0,0-.081.072,2.141,2.141,0,0,1-.494.516,2.834,2.834,0,0,1-.466.224,1.289,1.289,0,0,1-.324.1.926.926,0,0,1-.095.009.809.809,0,0,0-.76.437h0s-.1-.009-.131.124a1.167,1.167,0,0,0,.007.336h4.341a.773.773,0,0,0,.3-.083.229.229,0,0,0,.094-.072h0a.178.178,0,0,0,.027-.046.027.027,0,0,0,0-.009.187.187,0,0,0,.013-.033.18.18,0,0,0,0-.1.087.087,0,0,0,0-.022c0-.037-.006-.073-.017-.137a.3.3,0,0,0-.057-.134l0,0,0,0a.2.2,0,0,0-.1-.1.008.008,0,0,1,0-.005c0-.007,0-.014-.009-.021s-.007-.027-.01-.042c-.025-.114-.052-.228-.081-.341s-.076-.289-.09-.379a.23.23,0,0,1,0-.03l.021-.005.016.005c.113.029.157-.062.194-.191a1.808,1.808,0,0,0,.043-.493c.017-.1.036-.2.047-.288a10.157,10.157,0,0,1,.273-1.253,1.675,1.675,0,0,0,.07-.483,1.021,1.021,0,0,0,.028-.124c.049-.258.037-.665.076-.975a9.265,9.265,0,0,0,.174-1.386,3.685,3.685,0,0,0-.05-.67c0-.037,0-.076,0-.112a6.524,6.524,0,0,1,.052-1.011c.025-.345.052-.744.1-1.029.034-.159.1-.309.124-.471.022-.122.024-.307.038-.377.038-.218.1-.43.145-.647.137-.663.226-1.285.3-1.906.014-.27.034-.54.034-.811,0-.184-.029-.3-.036-.478,0-.375.022-.753-.012-1.127M55.03,30.409a1.8,1.8,0,0,0-.511.564c-.059.084-.146.173-.207.27-.041.063-.066.134-.107.2a1.584,1.584,0,0,1-.282.3l-.128.1c-.114.086-.231.162-.333.235s-.194.157-.279.188a.536.536,0,0,0-.206.155,1.026,1.026,0,0,1-.281.185l-.018.009c-.149-.14-.3-.292-.433-.447a.482.482,0,0,0,.026-.257l2.757-1.967.077-.053a.327.327,0,0,0,.074.034c.388-.248.764-.486,1.147-.73l.007,0a.745.745,0,0,0,.179.076,2.723,2.723,0,0,0-.212.188l-.026.024a.029.029,0,0,1-.011.005,1.183,1.183,0,0,0-.212.13c-.105.1-.2.213-.309.313a6.245,6.245,0,0,1-.713.475M56.7,32.644c-.083.036-.19.065-.281.095a2.05,2.05,0,0,0-.39.195,3.69,3.69,0,0,1-.487.1,1.507,1.507,0,0,1-.3.022,1.983,1.983,0,0,0,.3-.378c.244-.324.437-.678.648-1.023.015-.024.031-.047.048-.071s.024-.034.037-.052a5.188,5.188,0,0,0,.494-.651l.006-.01,0-.007.007-.011a1.306,1.306,0,0,0,.068-.145.665.665,0,0,0,.025-.142.376.376,0,0,0,.072-.045,2.51,2.51,0,0,1,.32-.361c.034-.028.15-.081.159-.107a.227.227,0,0,0,.032-.174c-.014-.076-.029-.139-.046-.2a.308.308,0,0,1,0-.113.071.071,0,0,0,.008-.012c.061-.1.2-.164.249-.287.062-.1.027-.21.033-.317.007-.036.028-.1.04-.154.07-.011.14-.032.2-.041a.585.585,0,0,1,.135,0l.007.01h0a1.205,1.205,0,0,0,.167.122,1.324,1.324,0,0,1,.159.147c.007.006.014.009.021.013-.014.091.009.32,0,.471a.853.853,0,0,0,.015.326.077.077,0,0,0,.025.024.008.008,0,0,1,0,.005.178.178,0,0,1-.023.09.019.019,0,0,0,0,.019.434.434,0,0,0-.037.141c-.006.053-.013.074-.016.121a1.444,1.444,0,0,0,.027.154.937.937,0,0,1-.01.147c-.014.1-.062.223-.078.337-.026.133-.009.279-.028.407-.024.242-.155.464-.178.691a.192.192,0,0,1-.071.12.272.272,0,0,1-.059.051,2.06,2.06,0,0,0-.324.085c-.088.033-.16.08-.228.1a3.3,3.3,0,0,0-.443.154c-.1.048-.213.112-.311.157M38.361,84.013a1.113,1.113,0,0,0,.826-1.073c0-.848-.775-1.212-1.759-1.212h-1.12v5.281h1.465c1.108,0,2.069-.449,2.069-1.467a1.6,1.6,0,0,0-1.48-1.529m-.658,2.7h-.62v-4.69h.407c.728,0,.972.354.972.887,0,.089.059.96-.657,1.118a1.889,1.889,0,0,1,.8.411,1.284,1.284,0,0,1,.421,1.026A1.161,1.161,0,0,1,37.7,86.713m-5.639-5.077a2.742,2.742,0,1,0,2.507,2.732,2.576,2.576,0,0,0-2.507-2.732m0,5.169c-1.037,0-1.732-1-1.732-2.437s.694-2.437,1.732-2.437S33.8,82.938,33.8,84.368s-.694,2.437-1.732,2.437m-3.775-1.149c0,1.2-1.2,1.443-1.886,1.443a2.766,2.766,0,0,1-1.213-.267l-.368-.651a2.494,2.494,0,0,0,1.585.625c.711,0,1.153-.352,1.153-.918,0-.6-.685-1.093-1.12-1.4-.938-.673-1.5-1.079-1.5-1.8,0-.909.891-1.232,1.655-1.232a2.188,2.188,0,0,1,.844.143l.285.5a2.169,2.169,0,0,0-1.137-.346c-.575,0-.99.269-.99.718,0,.54.63.872,1.092,1.2,1,.677,1.606,1.149,1.606,1.988m37.479-4.025h.268v5.428l-3.865-4.188v4.053H61.9V81.5l2.382,2.581,1.483,1.607Zm2.907.268v2.19h1.919v.268H68.675v2.3h2.293v.268H67.929V81.632h3.038V81.9ZM47.507,87.009h.3l.635-1.551h2.039l.635,1.551h.814l-2.213-5.4Zm1.058-1.845.9-2.2.9,2.2Zm9-3.618a2.741,2.741,0,0,0,0,5.463,2.742,2.742,0,0,0,0-5.463m0,5.169c-1.038,0-1.731-1-1.731-2.437s.694-2.437,1.731-2.437S59.3,82.848,59.3,84.278s-.694,2.437-1.732,2.437M45.242,81.728h.775v5.28h-.775V84.192H42.409v2.816h-.775v-5.28h.775V83.9h2.833Zm-32.733,5.28h.3l.635-1.551h2.039l.635,1.551h.814l-2.213-5.4Zm1.058-1.845.9-2.2.9,2.2Zm3.57-3.582h4.113v.294H19.58v5.133h-.775V81.876H17.136ZM2.852,73.149l-.3-.89H6.915v3.868H1.188a1.144,1.144,0,0,1-.839-.348A1.132,1.132,0,0,1,0,74.949V70.657a1.131,1.131,0,0,1,.348-.83,1.144,1.144,0,0,1,.839-.348H6.915l-.258.9H1.792a.349.349,0,0,0-.253.1.336.336,0,0,0-.1.251v4.136a.335.335,0,0,0,.1.25.348.348,0,0,0,.253.1H5.479V73.149Zm7.255,2.978A1.187,1.187,0,0,1,8.92,74.949V70.657a1.133,1.133,0,0,1,.348-.83,1.144,1.144,0,0,1,.839-.348h4.564a1.106,1.106,0,0,1,.825.348,1.149,1.149,0,0,1,.338.83v4.292a1.149,1.149,0,0,1-.338.83,1.106,1.106,0,0,1-.825.348Zm.6-.9h3.352a.317.317,0,0,0,.241-.1.349.349,0,0,0,.095-.25V70.735a.35.35,0,0,0-.095-.251.318.318,0,0,0-.241-.1H10.711a.349.349,0,0,0-.253.1.335.335,0,0,0-.1.251v4.136a.335.335,0,0,0,.1.25.348.348,0,0,0,.253.1m7.186.9v-5.7l-.278-.949h1.713v5.742h5l-.287.9Zm8.238,0V70.365l-.278-.885h6.676v.9H27.569v1.844h4.583l-.277.89H27.569v3.007Zm18.918,0H43.4l-1.226-2.034h-2.9v2.034H37.836v-5.7l-.316-.949h6.048a1.183,1.183,0,0,1,1.182,1.177v2.472l-.963.964H43.7Zm-5.781-5.7v2.74H42.8a.514.514,0,0,0,.372-.144.487.487,0,0,0,.148-.367V70.764a.313.313,0,0,0-.1-.243.371.371,0,0,0-.258-.093Zm7.571,0-.278-.949h1.713v6.656H46.842Zm9.215-.949a1.184,1.184,0,0,1,1.182,1.177v4.292a1.184,1.184,0,0,1-1.182,1.177H50.326V70.385l-.277-.9Zm-.248,5.391V70.735a.337.337,0,0,0-.1-.251.356.356,0,0,0-.258-.1H51.761v4.837H55.45a.354.354,0,0,0,.258-.1.336.336,0,0,0,.1-.25m6.276-1.722-.3-.89h4.365v3.868H60.422a1.187,1.187,0,0,1-1.187-1.177V70.657a1.187,1.187,0,0,1,1.187-1.177h5.727l-.258.9H61.025a.35.35,0,0,0-.253.1.337.337,0,0,0-.1.251v4.136a.336.336,0,0,0,.1.25.349.349,0,0,0,.253.1h3.689V73.149ZM74.63,70.385H69.647v1.854h4.676l-.273.89h-4.4v2.093h5.022l-.258.9h-6.2V70.385l-.278-.9h6.7Zm8.845,1.066H82.04v-.686a.318.318,0,0,0-.336-.336H78.351a.36.36,0,0,0-.253.095.315.315,0,0,0-.1.241v.978a.332.332,0,0,0,.1.248.408.408,0,0,0,.255.112l3.961.409a1.389,1.389,0,0,1,.849.353,1.065,1.065,0,0,1,.314.81v1.275a1.149,1.149,0,0,1-.338.83,1.107,1.107,0,0,1-.825.348H77.748a1.187,1.187,0,0,1-1.187-1.177V74H78v.847a.329.329,0,0,0,.1.248.355.355,0,0,0,.253.1H81.7a.319.319,0,0,0,.243-.1.346.346,0,0,0,.093-.248V73.713a.323.323,0,0,0-.093-.239.384.384,0,0,0-.243-.107l-3.956-.409a1.425,1.425,0,0,1-.861-.36,1.07,1.07,0,0,1-.326-.817V70.657a1.187,1.187,0,0,1,1.187-1.177h4.564a1.107,1.107,0,0,1,.825.348,1.149,1.149,0,0,1,.338.83Z" transform="translate(-0.001 -0.001)" fill="#040405"/>
      </g>
    </g>
  </g>
</svg>
