<svg id="sobha" xmlns="http://www.w3.org/2000/svg" xmlns:xlink="http://www.w3.org/1999/xlink" width="85.634" height="30.994" viewBox="0 0 85.634 30.994">
  <defs>
    <clipPath id="clip-path">
      <path id="Rectangle_9653" data-name="Rectangle 9653" d="M0,0H85.634V30.994H0Z"/>
    </clipPath>
  </defs>
  <g id="Group_23962" data-name="Group 23962" clip-path="url(#clip-path)">
    <path id="Path_81246" data-name="Path 81246" d="M75.545,8.852a3.515,3.515,0,0,0,2.609-3.39c0-2.679-2.449-3.829-5.557-3.829h-3.54V18.315h4.626c3.5,0,6.537-1.418,6.537-4.634,0-2.543-1.9-4.288-4.675-4.828m-2.081,8.529H71.507V2.566h1.284c2.3,0,3.072,1.118,3.072,2.8,0,.28.187,3.032-2.074,3.533a5.968,5.968,0,0,1,2.522,1.3,4.054,4.054,0,0,1,1.329,3.24c0,2.334-1.285,3.943-4.173,3.943" transform="translate(-32.78 -0.775)"/>
    <path id="Path_81247" data-name="Path 81247" d="M1.162,16.981a8.739,8.739,0,0,0,3.829.845c2.157,0,5.957-.774,5.957-4.558,0-2.651-1.916-4.142-5.071-6.281C4.416,5.95,2.427,4.9,2.427,3.2,2.427,1.777,3.74.927,5.555.927A6.866,6.866,0,0,1,9.147,2.019L8.248.451A6.917,6.917,0,0,0,5.582,0C3.172,0,.357,1.017.357,3.888c0,2.271,1.786,3.554,4.752,5.679C6.484,10.545,8.646,12.1,8.646,14c0,1.786-1.4,2.9-3.642,2.9a7.873,7.873,0,0,1-5-1.975Z" transform="translate(0 0.002)"/>
    <path id="Path_81248" data-name="Path 81248" d="M36.379,18.342c-4.465,0-7.928-3.561-7.928-8.628,0-4.943,3.464-8.627,7.928-8.627S44.3,4.77,44.3,9.714c0,5.068-3.453,8.628-7.917,8.628m5.469-8.628c0-4.518-2.192-7.7-5.469-7.7S30.91,5.2,30.91,9.714c0,4.541,2.192,7.7,5.469,7.7s5.468-3.157,5.468-7.7" transform="translate(-13.505 -0.516)"/>
    <path id="Path_81249" data-name="Path 81249" d="M145.8,13.084h-6.441l-2.007,4.9H136.4L143.388.928l6.99,17.052h-2.571Zm-6.06-.93h5.68l-2.84-6.941Z" transform="translate(-64.744 -0.441)"/>
    <path id="Path_81250" data-name="Path 81250" d="M112.479,1.641V8.493h-8.948V1.641h-2.449V18.319h2.449v-8.9h8.948v8.9h2.449V1.641Z" transform="translate(-47.982 -0.779)"/>
    <path id="Path_81251" data-name="Path 81251" d="M49.6,54.418h-.99v-5.07h2.429c1.15,0,1.729.556,1.729,1.438v.275a1.373,1.373,0,0,1-1.1,1.363l1.3,2h-1.1l-1.226-1.911H49.6Zm0-2.672h1.218c.647,0,.959-.274.959-.708v-.206c0-.457-.267-.7-.921-.7H49.6Z" transform="translate(-23.072 -23.424)"/>
    <path id="Path_81252" data-name="Path 81252" d="M65.05,49.348v.822H62.2v1.287H64.42v.776H62.2V53.6H65.05v.823H61.23v-5.07Z" transform="translate(-29.065 -23.424)"/>
    <path id="Path_81253" data-name="Path 81253" d="M75.041,53.325H72.8l-.4,1.059h-1l1.988-5.108h1.1l1.987,5.108H75.437Zm-1.964-.745h1.681l-.837-2.223h-.016Z" transform="translate(-33.893 -23.39)"/>
    <path id="Path_81254" data-name="Path 81254" d="M86.078,49.348v4.21h2.535v.86H85.089v-5.07Z" transform="translate(-40.39 -23.424)"/>
    <path id="Path_81255" data-name="Path 81255" d="M98.193,49.348V50.2h-1.72v4.218h-.99V50.2H93.769v-.852Z" transform="translate(-44.51 -23.424)"/>
    <path id="Path_81256" data-name="Path 81256" d="M106.287,49.348l1.34,2.284,1.324-2.284h1.074l-1.934,3.129v1.944h-.99V52.477l-1.926-3.129Z" transform="translate(-49.925 -23.424)"/>
  </g>
</svg>
